<?xml version="1.0" encoding="UTF-8" standalone="no"?>
<svg
   viewBox="0 0 483 527.48"
   version="1.1"
   id="svg46278"
   sodipodi:docname="House Cole.svg"
   inkscape:version="1.2.1 (9c6d41e410, 2022-07-14)"
   xmlns:inkscape="http://www.inkscape.org/namespaces/inkscape"
   xmlns:sodipodi="http://sodipodi.sourceforge.net/DTD/sodipodi-0.dtd"
   xmlns="http://www.w3.org/2000/svg"
   xmlns:svg="http://www.w3.org/2000/svg">
  <sodipodi:namedview
     id="namedview46280"
     pagecolor="#ffffff"
     bordercolor="#000000"
     borderopacity="0.25"
     inkscape:showpageshadow="2"
     inkscape:pageopacity="0.0"
     inkscape:pagecheckerboard="0"
     inkscape:deskcolor="#d1d1d1"
     showgrid="false"
     inkscape:zoom="0.56101501"
     inkscape:cx="76.64679"
     inkscape:cy="276.28494"
     inkscape:window-width="1920"
     inkscape:window-height="1017"
     inkscape:window-x="-8"
     inkscape:window-y="-8"
     inkscape:window-maximized="1"
     inkscape:current-layer="svg46278" />
  <defs
     id="defs46250">
    <style
       id="style46248">.cls-1{fill:#af1e23;stroke:#000;stroke-width:3px;}</style>
    <radialGradient
       id="rg"
       gradientUnits="userSpaceOnUse"
       cx="220"
       cy="220"
       r="405"
       gradientTransform="matrix(0.80510068,0,0,0.80302287,-0.03020215,-0.9020163)">
      <stop
         style="stop-color:#ffffff;stop-opacity:.3"
         offset="0"
         id="stop753" />
      <stop
         style="stop-color:#ffffff;stop-opacity:.2"
         offset=".2"
         id="stop755" />
      <stop
         style="stop-color:#666666;stop-opacity:.1"
         offset=".6"
         id="stop757" />
      <stop
         style="stop-color:#000000;stop-opacity:.13"
         offset="1"
         id="stop759" />
    </radialGradient>
  </defs>
  <title
     id="title46252">Cole-Shield</title>
  <g
     id="Layer_4"
     data-name="Layer 4">
    <path
       class="cls-1"
       d="M923,121.76V327.6a314.37,314.37,0,0,1-2.28,38c-.11.93-.24,1.86-.36,2.79s-.24,1.86-.39,2.79q-.7,5.05-1.61,10c-.07.44-.15.87-.23,1.31-.15.8-.29,1.6-.45,2.39s-.34,1.8-.51,2.69l-.45,2.22-.24,1.16c-.15.71-.3,1.44-.47,2.15q-.8,3.55-1.61,7l-.58,2.32-.52,2q-1.52,5.88-3.27,11.61c-.29,1-.59,1.94-.9,2.92l-.6,1.88c-.19.63-.39,1.25-.6,1.86l-1.1,3.26c-.37,1.09-.68,2-1,3-.47,1.28-.92,2.55-1.39,3.81-.36,1-.73,2-1.11,3l-.19.49c-.43,1.14-.87,2.25-1.32,3.37s-.87,2.16-1.32,3.19a3.35,3.35,0,0,1-.18.42c-.4,1-.8,2-1.25,3s-.75,1.75-1.13,2.62l-.66,1.49c-.47,1.07-.95,2.12-1.44,3.15s-.9,2-1.36,2.93l-1,2.12c-.3.63-.6,1.25-.91,1.88-.63,1.32-1.31,2.64-2,4q-2.53,5-5.19,9.77l-2,3.57-.11.21q-2.13,3.71-4.33,7.33c-.71,1.2-1.46,2.39-2.18,3.54-.1.16-.19.31-.3.46-.55.89-1.12,1.78-1.69,2.66l-.66,1c-.65,1-1.31,2-2,3l-.13.18c-.66,1-1.32,2-2,3l-.45.67q-2.26,3.28-4.54,6.46l-.31.42c-.8,1.07-1.54,2.14-2.31,3.19s-1.66,2.23-2.5,3.32q-2.29,3-4.61,6l-.8,1c-.73.93-1.48,1.85-2.22,2.76L850,525.61l-.57.69L847,529.1q-2.83,3.32-5.72,6.53c-.75.85-1.52,1.69-2.29,2.51l-2.22,2.39q-3,3.19-5.93,6.24-2.76,2.83-5.53,5.59c-.91.91-1.84,1.82-2.76,2.71s-1.85,1.78-2.78,2.67l-2.28,2.11c-.68.65-1.36,1.28-2.05,1.91a448.64,448.64,0,0,1-61.76,47.47c-.86.55-1.73,1.1-2.58,1.6q-6.42,4.07-12.46,7.63l-2.41,1.4-2.36,1.36-2.34,1.35-2.22,1.28c-8.35,4.68-15.91,8.59-22.38,11.76l-1.61.8c-10.63,5.15-18.11,8.22-21,9.35l-.42.18-.61.23-.14.06h-.08l-.23-.1-.21,0-1.07-.42-.55-.23c-.87-.34-2-.8-3.36-1.38l-.47-.18c-1.76-.8-3.88-1.67-6.33-2.77l-1.39-.61a443.16,443.16,0,0,1-39.74-20.6c-.8-.45-1.61-.92-2.36-1.38a473.14,473.14,0,0,1-44.78-30l-2.62-2c-1-.75-2-1.52-2.95-2.29l-2.81-2.21c-6.19-4.92-12.43-10.15-18.64-15.69L554.08,565q-2.3-2.05-4.59-4.2l-1.67-1.57L546,557.54l-2-1.94c-1.12-1.07-2.24-2.16-3.34-3.26-.84-.8-1.69-1.67-2.52-2.51l-.24-.26q-1.25-1.25-2.5-2.51c-.66-.68-1.32-1.36-2-2l-2-2.07-.13-.15-2.1-2.24q-3.36-3.61-6.66-7.36c-.68-.8-1.36-1.55-2-2.35-.57-.65-1.12-1.28-1.66-1.94l-2-2.39q-4.26-5.11-8.39-10.48-1.13-1.45-2.24-2.92c-1.89-2.47-3.73-5-5.57-7.55l-1.68-2.39c-.13-.16-.24-.34-.36-.5-.59-.85-1.19-1.7-1.77-2.55-.95-1.38-1.89-2.77-2.82-4.17q-1.11-1.64-2.18-3.31l-.15-.24-2.22-3.47c-.07-.13-.15-.24-.22-.37-.71-1.14-1.41-2.27-2.1-3.4s-1.49-2.46-2.21-3.7-1.44-2.39-2.13-3.67q-4.6-8-8.77-16.47c-.35-.69-.69-1.38-1-2.08-.22-.44-.44-.89-.65-1.35-.43-.87-.8-1.75-1.25-2.63a27.17,27.17,0,0,1-1.15-2.47l-.23-.48c-.26-.58-.52-1.16-.8-1.75l-.26-.57c-.26-.58-.52-1.18-.8-1.77q-1.44-3.26-2.78-6.58c-.42-1-.8-2-1.23-3.07-.1-.26-.21-.53-.31-.8-.4-1-.8-2-1.16-3s-.68-1.82-1-2.74l-.23-.65c-.18-.45-.34-.91-.5-1.36q-1-2.69-1.89-5.44c-.21-.6-.4-1.21-.6-1.8-.26-.8-.51-1.54-.75-2.31-.14-.42-.26-.8-.39-1.22-.26-.8-.5-1.6-.75-2.39-.31-1-.61-2.06-.92-3.1-.18-.65-.39-1.28-.57-2-.37-1.28-.74-2.58-1.08-3.89-.19-.68-.37-1.35-.55-2-.13-.5-.26-1-.39-1.51-.32-1.22-.63-2.46-.92-3.7-.18-.7-.35-1.4-.52-2.11-.07-.29-.13-.57-.19-.85-.37-1.55-.71-3.11-1.07-4.69-.26-1.16-.5-2.33-.74-3.5-.14-.71-.29-1.43-.43-2.14s-.32-1.6-.47-2.45a2.13,2.13,0,0,0-.1-.47c-.15-.8-.3-1.64-.45-2.48s-.31-1.84-.47-2.77-.3-1.8-.45-2.71q-.87-5.52-1.56-11.17A314.73,314.73,0,0,1,443,327.58V121.76Z"
       transform="translate(-441.5 -120.26)"
       id="path46254" />
  </g>
  <g
     id="Layer_2"
     data-name="Layer 2">
    <path
       d="M844.54,170.22a39.07,39.07,0,0,1,39.27,39,39.67,39.67,0,0,1-39.55,39.4c-21.59,0-39.54-18.18-39.26-39.67A39.08,39.08,0,0,1,844.54,170.22Z"
       transform="translate(-441.5 -120.26)"
       id="path46257" />
    <path
       d="M591.79,422.88c.05-22.13,17.19-39.07,39.44-39a39.08,39.08,0,0,1,39,39.27c0,21.59-17.92,39.25-39.69,39.16A39,39,0,0,1,591.79,422.88Z"
       transform="translate(-441.5 -120.26)"
       id="path46259" />
    <path
       d="M790.94,355.3a39.21,39.21,0,0,1,.32-78.43,39.21,39.21,0,1,1-.32,78.43Z"
       transform="translate(-441.5 -120.26)"
       id="path46261" />
    <path
       d="M484.55,207c.43-19.15,17.58-39.88,44.4-36.55a38.46,38.46,0,0,1,33.92,41.13C561.15,236,541,250,521.18,248.49,498.8,246.74,482.48,227.83,484.55,207Z"
       transform="translate(-441.5 -120.26)"
       id="path46263" />
    <path
       d="M576.87,355.3c-21.79-.07-38.74-17.32-38.68-39.36a38.91,38.91,0,0,1,39.13-39.06,39.46,39.46,0,0,1,39.34,39.52C616.6,338.15,599,355.37,576.87,355.3Z"
       transform="translate(-441.5 -120.26)"
       id="path46265" />
    <path
       d="M684.48,568.95c-22.23,0-39.13-17-39.07-39.33a39,39,0,0,1,39.14-39.09,39.54,39.54,0,0,1,39.32,39.15A39,39,0,0,1,684.48,568.95Z"
       transform="translate(-441.5 -120.26)"
       id="path46267" />
    <path
       d="M630.82,170.22c22,.06,39,17.3,38.89,39.57a39.11,39.11,0,0,1-39.42,38.87c-21.61-.08-39.14-17.95-39-39.8C591.37,187.3,608.92,170.16,630.82,170.22Z"
       transform="translate(-441.5 -120.26)"
       id="path46269" />
    <path
       d="M698.3,209a39.24,39.24,0,0,1,78.47.61A39.24,39.24,0,1,1,698.3,209Z"
       transform="translate(-441.5 -120.26)"
       id="path46271" />
    <path
       d="M723.32,316c0,22.13-17.12,39.32-39.18,39.31A39.21,39.21,0,1,1,723.32,316Z"
       transform="translate(-441.5 -120.26)"
       id="path46273" />
    <path
       d="M737.67,383.87a39.22,39.22,0,0,1,.24,78.43,39.22,39.22,0,1,1-.24-78.43Z"
       transform="translate(-441.5 -120.26)"
       id="path46275" />
  </g>
  <path
     id="shine"
     d="M 1.579999,0.7040293 V 207.08091 c 0,229.66454 239.920001,319.6031 239.920001,319.6031 0,0 239.92,-89.93856 239.92,-319.6031 V 0.7040293 Z"
     style="fill:url(#rg);stroke:#000000;stroke-width:2.41218" />
</svg>
