<?xml version="1.0" encoding="UTF-8" standalone="no"?>
<svg
   viewBox="0 0 511.9999 558.99991"
   version="1.1"
   id="svg271"
   sodipodi:docname="House Blackbar.svg"
   xml:space="preserve"
   width="512"
   height="559"
   inkscape:version="1.2.1 (9c6d41e410, 2022-07-14)"
   xmlns:inkscape="http://www.inkscape.org/namespaces/inkscape"
   xmlns:sodipodi="http://sodipodi.sourceforge.net/DTD/sodipodi-0.dtd"
   xmlns="http://www.w3.org/2000/svg"
   xmlns:svg="http://www.w3.org/2000/svg"
   xmlns:rdf="http://www.w3.org/1999/02/22-rdf-syntax-ns#"
   xmlns:cc="http://creativecommons.org/ns#"
   xmlns:dc="http://purl.org/dc/elements/1.1/"><sodipodi:namedview
     id="namedview273"
     pagecolor="#ffffff"
     bordercolor="#000000"
     borderopacity="0.25"
     inkscape:showpageshadow="2"
     inkscape:pageopacity="0.0"
     inkscape:pagecheckerboard="0"
     inkscape:deskcolor="#d1d1d1"
     showgrid="false"
     inkscape:zoom="0.70710678"
     inkscape:cx="199.40411"
     inkscape:cy="321.02648"
     inkscape:window-width="1920"
     inkscape:window-height="1017"
     inkscape:window-x="-8"
     inkscape:window-y="-8"
     inkscape:window-maximized="1"
     inkscape:current-layer="svg271" /><defs
     id="defs4"><style
       id="style2">.cls-1{fill:#dddad0;}.cls-2{fill:#b23d26;}.cls-3{fill:#d1ba59;}.cls-4{fill:none;stroke:#000;stroke-width:3px;}</style><radialGradient
       id="rg"
       gradientUnits="userSpaceOnUse"
       cx="220"
       cy="220"
       r="405"><stop
         style="stop-color:#fff;stop-opacity:.3"
         offset="0"
         id="stop1419" /><stop
         style="stop-color:#fff;stop-opacity:.2"
         offset=".2"
         id="stop1421" /><stop
         style="stop-color:#666;stop-opacity:.1"
         offset=".6"
         id="stop1423" /><stop
         style="stop-color:#000;stop-opacity:.13"
         offset="1"
         id="stop1425" /></radialGradient><clipPath
       id="clip-shield"><path
         id="shield"
         d="m 2,2 v 257 c 0,286 298,398 298,398 0,0 298,-112 298,-398 V 2 Z" /></clipPath><radialGradient
       id="rg-6"
       gradientUnits="userSpaceOnUse"
       cx="220"
       cy="220"
       r="405"
       gradientTransform="matrix(0.84929899,0,0,0.84018502,1.2103068,2.6193499)"><stop
         style="stop-color:#ffffff;stop-opacity:.3"
         offset="0"
         id="stop753" /><stop
         style="stop-color:#ffffff;stop-opacity:.2"
         offset=".2"
         id="stop755" /><stop
         style="stop-color:#666666;stop-opacity:.1"
         offset=".6"
         id="stop757" /><stop
         style="stop-color:#000000;stop-opacity:.13"
         offset="1"
         id="stop759" /></radialGradient></defs><title
     id="title6">House Blackbar</title><g
     id="g1453"
     transform="matrix(0.84944903,0,0,0.84901098,1.1652453,-0.42736018)"><g
       id="design"
       clip-path="url(#clip-shield)"><rect
         fill="#dddddd"
         x="0"
         y="0"
         width="600"
         height="660"
         id="rect1432" /><path
         fill="none"
         stroke="#000000"
         stroke-width="150"
         d="M 0,300 H 600"
         id="path1434" /></g></g><g
     id="Layer_3"
     data-name="Layer 3"
     transform="scale(1.0600412,1.0598764)"><path
       class="cls-4"
       d="M 927,122.76 V 328.6 a 313.88,313.88 0 0 1 -2.28,38 c -0.11,0.93 -0.24,1.86 -0.36,2.79 0,0.2 0,0.4 -0.08,0.59 -0.09,0.74 -0.19,1.47 -0.31,2.2 -0.46,3.37 -1,6.69 -1.6,10 -0.07,0.44 -0.15,0.87 -0.23,1.31 -0.16,0.8 -0.29,1.6 -0.45,2.4 -0.16,0.8 -0.34,1.79 -0.51,2.69 l -0.45,2.22 -0.24,1.15 c -0.15,0.71 -0.3,1.44 -0.46,2.15 -0.54,2.37 -1.07,4.71 -1.61,7 l -0.58,2.32 -0.52,2 q -1.53,5.88 -3.27,11.61 c -0.29,1 -0.59,1.94 -0.9,2.92 l -0.6,1.88 c -0.2,0.63 -0.4,1.24 -0.61,1.86 -0.37,1.09 -0.73,2.17 -1.1,3.25 -0.37,1.08 -0.68,2 -1,3 -0.47,1.28 -0.93,2.56 -1.39,3.81 -0.36,1 -0.73,2 -1.11,3 l -0.19,0.5 c -0.43,1.14 -0.87,2.25 -1.32,3.36 -0.45,1.11 -0.87,2.17 -1.31,3.2 0,0.15 -0.12,0.28 -0.18,0.42 -0.4,1 -0.8,2 -1.25,3 -0.45,1 -0.76,1.75 -1.13,2.62 l -0.66,1.49 c -0.48,1.07 -1,2.11 -1.44,3.15 -0.44,1.04 -0.9,2 -1.36,2.93 l -1,2.12 c -0.29,0.63 -0.6,1.25 -0.91,1.87 -0.63,1.33 -1.31,2.64 -2,4 q -2.52,5 -5.19,9.77 l -2,3.57 -0.12,0.21 c -1.4,2.44 -2.82,4.86 -4.28,7.24 a 0.41,0.41 0 0 1 0,0.09 c -0.71,1.2 -1.46,2.4 -2.18,3.54 -0.11,0.16 -0.2,0.32 -0.3,0.47 -0.1,0.15 -0.31,0.5 -0.47,0.74 -0.4,0.64 -0.81,1.28 -1.22,1.92 l -0.65,1 c -0.65,1 -1.31,2 -2,3 l -0.13,0.18 c -0.65,1 -1.31,2 -2,3 l -0.45,0.67 q -2.25,3.29 -4.54,6.46 l -0.31,0.43 c -0.8,1.07 -1.54,2.14 -2.31,3.19 -0.77,1.05 -1.66,2.23 -2.5,3.32 -1.52,2 -3.06,4 -4.61,6 l -0.81,1 q -1.09,1.39 -2.22,2.76 l -2.3,2.64 -0.57,0.69 c -0.4,0.47 -0.79,0.93 -1.2,1.39 a 4.16,4.16 0 0 1 -0.27,0.32 c -0.31,0.37 -0.62,0.73 -0.94,1.09 -1.23,1.44 -2.46,2.87 -3.73,4.29 -0.65,0.75 -1.32,1.5 -2,2.24 -0.68,0.74 -1.52,1.69 -2.29,2.51 -0.77,0.82 -1.47,1.6 -2.22,2.4 q -3,3.2 -5.93,6.24 -2.76,2.82 -5.53,5.59 l -0.83,0.82 c -0.64,0.64 -1.29,1.27 -1.93,1.89 -0.92,0.89 -1.85,1.78 -2.79,2.66 l -2.28,2.12 c -0.68,0.65 -1.36,1.28 -2,1.91 q -14.52,13.32 -30.16,25.31 c -1,0.77 -2,1.52 -3,2.28 q -9.86,7.43 -20.1,14.31 -1.56,1.05 -3.12,2.07 c -1,0.65 -2,1.29 -3,1.92 l -0.18,0.12 v 0 l -2.24,1.45 c -0.86,0.55 -1.72,1.1 -2.57,1.6 l -1.74,1.09 c -3.67,2.31 -7.25,4.48 -10.73,6.54 l -2.41,1.4 -2.36,1.37 -2.33,1.34 -2.23,1.29 c -8.34,4.68 -15.9,8.59 -22.38,11.76 l -1.6,0.8 c -10.64,5.15 -18.12,8.22 -21,9.35 l -0.42,0.17 -0.61,0.24 h -0.14 -0.08 l -0.23,-0.09 h -0.21 l -1.07,-0.42 -0.54,-0.23 c -0.87,-0.34 -2,-0.8 -3.37,-1.38 l -0.46,-0.18 c -1.76,-0.8 -3.89,-1.67 -6.33,-2.77 l -1.39,-0.61 a 442.25,442.25 0 0 1 -39.75,-20.6 c -0.8,-0.44 -1.6,-0.92 -2.35,-1.38 q -7.23,-4.26 -14.29,-8.78 -5.26,-3.36 -10.42,-6.85 c -0.75,-0.51 -1.49,-1 -2.23,-1.53 -0.57,-0.38 -1.13,-0.76 -1.69,-1.16 q -8.21,-5.66 -16.15,-11.66 l -2.63,-2 -0.61,-0.47 c -0.77,-0.6 -1.55,-1.2 -2.33,-1.82 l -2.37,-1.86 -0.44,-0.35 c -6.19,-4.92 -12.43,-10.15 -18.64,-15.69 L 558.08,566 q -2.31,-2.05 -4.59,-4.2 l -1.67,-1.57 -1.82,-1.69 -2,-1.94 c -1.12,-1.07 -2.23,-2.17 -3.33,-3.27 -0.85,-0.79 -1.69,-1.66 -2.52,-2.5 l -0.24,-0.26 c -0.84,-0.83 -1.67,-1.67 -2.5,-2.51 l -0.34,-0.36 c -0.55,-0.56 -1.09,-1.12 -1.63,-1.69 l -1,-1.06 -1,-1 -0.13,-0.15 -2.1,-2.25 c -1.12,-1.2 -2.24,-2.41 -3.34,-3.64 v 0 c -1.11,-1.23 -2.21,-2.46 -3.31,-3.71 l -1.31,-1.5 -0.74,-0.84 c -0.57,-0.65 -1.12,-1.29 -1.66,-1.94 q -1,-1.2 -2,-2.4 -4.28,-5.1 -8.39,-10.48 c -0.76,-1 -1.5,-1.93 -2.24,-2.92 -1.89,-2.47 -3.73,-5 -5.57,-7.55 -0.55,-0.8 -1.12,-1.59 -1.68,-2.39 -0.13,-0.16 -0.24,-0.34 -0.36,-0.5 -0.59,-0.86 -1.19,-1.7 -1.77,-2.56 l -1.54,-2.28 a 1,1 0 0 1 -0.12,-0.17 c -0.39,-0.57 -0.77,-1.14 -1.15,-1.72 -0.38,-0.58 -0.79,-1.17 -1.18,-1.77 l -1,-1.54 a 1,1 0 0 0 -0.15,-0.24 l -2.22,-3.48 -0.22,-0.36 -0.88,-1.43 -1.22,-2 -0.32,-0.53 c -0.17,-0.27 -0.34,-0.56 -0.51,-0.85 -0.46,-0.76 -0.94,-1.56 -1.38,-2.33 l -0.64,-1.1 c -0.5,-0.84 -1,-1.67 -1.49,-2.57 q -4.61,-8 -8.77,-16.46 c -0.35,-0.69 -0.69,-1.38 -1,-2.09 -0.22,-0.44 -0.44,-0.88 -0.65,-1.35 -0.43,-0.87 -0.8,-1.74 -1.25,-2.63 A 25.91,25.91 0 0 1 474,453.75 l -0.23,-0.48 c -0.27,-0.58 -0.53,-1.16 -0.81,-1.75 l -0.26,-0.57 c -0.27,-0.59 -0.52,-1.19 -0.8,-1.78 q -1.44,-3.25 -2.79,-6.57 c -0.42,-1 -0.8,-2 -1.23,-3.08 -0.1,-0.25 -0.21,-0.52 -0.31,-0.79 -0.4,-1 -0.8,-2 -1.16,-3 -0.36,-1 -0.69,-1.82 -1,-2.74 l -0.24,-0.65 c -0.17,-0.44 -0.33,-0.91 -0.49,-1.35 q -1,-2.7 -1.9,-5.44 c -0.21,-0.6 -0.4,-1.2 -0.6,-1.8 -0.26,-0.8 -0.51,-1.54 -0.75,-2.32 -0.14,-0.41 -0.27,-0.8 -0.4,-1.22 -0.25,-0.8 -0.49,-1.59 -0.75,-2.39 -0.31,-1 -0.61,-2.06 -0.92,-3.11 -0.19,-0.64 -0.39,-1.28 -0.57,-1.95 -0.37,-1.29 -0.74,-2.58 -1.09,-3.89 -0.19,-0.68 -0.37,-1.35 -0.55,-2 -0.13,-0.5 -0.27,-1 -0.4,-1.51 -0.32,-1.22 -0.62,-2.45 -0.92,-3.7 -0.18,-0.7 -0.34,-1.4 -0.52,-2.11 -0.07,-0.28 -0.13,-0.56 -0.19,-0.85 -0.37,-1.55 -0.72,-3.11 -1.07,-4.69 -0.26,-1.16 -0.5,-2.33 -0.74,-3.5 -0.13,-0.71 -0.29,-1.43 -0.42,-2.14 -0.13,-0.71 -0.32,-1.59 -0.48,-2.45 a 1.86,1.86 0 0 0 -0.09,-0.47 c -0.16,-0.8 -0.3,-1.64 -0.45,-2.48 -0.15,-0.84 -0.32,-1.84 -0.48,-2.77 -0.16,-0.93 -0.29,-1.8 -0.45,-2.71 q -0.57,-3.7 -1.07,-7.47 c -0.17,-1.23 -0.33,-2.47 -0.48,-3.71 A 312.7,312.7 0 0 1 447,328.58 V 122.76 Z"
       transform="translate(-445.5,-121.26)"
       id="path268" /></g><metadata
     id="metadata1874"><rdf:RDF><cc:Work
         rdf:about=""><dc:title>House Blackbar</dc:title></cc:Work></rdf:RDF></metadata><path
     id="shine"
     d="M 2.9089052,4.2997198 V 220.22727 c 0,240.29291 253.0910848,334.39364 253.0910848,334.39364 0,0 253.0911,-94.10073 253.0911,-334.39364 V 4.2997198 Z"
     style="fill:url(#rg-6);stroke:#000000;stroke-width:2.53419" /></svg>
