<?xml version="1.0" encoding="UTF-8"?>
<svg xmlns="http://www.w3.org/2000/svg" width="483" height="527.5" version="1.1" xmlns:i="http://ns.adobe.com/AdobeIllustrator/10.0/" xmlns:inkscape="http://www.inkscape.org/namespaces/inkscape" xmlns:sodipodi="http://sodipodi.sourceforge.net/DTD/sodipodi-0.dtd" xmlns:svg="http://www.w3.org/2000/svg" xmlns:xlink="http://www.w3.org/1999/xlink" viewBox="0 0 483 527.5">
  <!-- Generator: Adobe Illustrator 30.2.1, SVG Export Plug-In . SVG Version: 2.1.1 Build 1)  -->
  <defs>
    <radialGradient id="radial-gradient" cx="393.8" cy="242.5" fx="393.8" fy="242.5" r="405" gradientTransform="translate(-140 371.3) scale(.8 -.8)" gradientUnits="userSpaceOnUse">
      <stop offset="0" stop-color="#fff" stop-opacity=".3"/>
      <stop offset=".2" stop-color="#fff" stop-opacity=".2"/>
      <stop offset=".6" stop-color="#666" stop-opacity=".1"/>
      <stop offset="1" stop-color="#000" stop-opacity=".1"/>
    </radialGradient>
  </defs>
  <g id="svg56020" sodipodi:docname="House Gaunt.svg">
    <sodipodi:namedview id="namedview56022" bordercolor="#000000" borderopacity="0.25" inkscape:current-layer="svg56020" inkscape:cx="172.9009" inkscape:cy="270.93749" inkscape:deskcolor="#d1d1d1" inkscape:pagecheckerboard="0" inkscape:pageopacity="0.0" inkscape:showpageshadow="2" inkscape:window-height="1017" inkscape:window-maximized="1" inkscape:window-width="1920" inkscape:window-x="-8" inkscape:window-y="-8" inkscape:zoom="1.12203" pagecolor="#ffffff" showgrid="false"/>
    <g id="Layer_2">
      <path id="path55996" d="M481.5,1.5v205.8c0,12.7-.8,25.4-2.3,38-.1.9-.2,1.9-.4,2.8,0,.2,0,.4,0,.6,0,.7-.2,1.5-.3,2.2-.5,3.4-1,6.7-1.6,10,0,.4-.2.9-.2,1.3-.2.8-.3,1.6-.5,2.4s-.3,1.8-.5,2.7l-.5,2.2-.2,1.1c-.2.7-.3,1.4-.5,2.1-.5,2.4-1.1,4.7-1.6,7l-.6,2.3-.5,2c-1,3.9-2.1,7.8-3.3,11.6-.3,1-.6,1.9-.9,2.9l-.6,1.9c-.2.6-.4,1.2-.6,1.9-.4,1.1-.7,2.2-1.1,3.2s-.7,2-1,3c-.5,1.3-.9,2.6-1.4,3.8-.4,1-.7,2-1.1,3l-.2.5c-.4,1.1-.9,2.2-1.3,3.4s-.9,2.2-1.3,3.2c0,.1-.1.3-.2.4-.4,1-.8,2-1.2,3s-.8,1.8-1.1,2.6l-.7,1.5c-.5,1.1-1,2.1-1.4,3.1s-.9,2-1.4,2.9l-1,2.1c-.3.6-.6,1.2-.9,1.9-.6,1.3-1.3,2.6-2,4-1.7,3.3-3.4,6.6-5.2,9.8l-2,3.6v.2c-1.5,2.4-2.9,4.9-4.4,7.2,0,0,0,0,0,0-.7,1.2-1.5,2.4-2.2,3.5-.1.2-.2.3-.3.5s-.3.5-.5.7c-.4.6-.8,1.3-1.2,1.9l-.7,1c-.7,1-1.3,2-2,3v.2c-.8,1-1.4,2-2.1,3l-.5.7c-1.5,2.2-3,4.3-4.5,6.5l-.3.4c-.8,1.1-1.5,2.1-2.3,3.2s-1.7,2.2-2.5,3.3c-1.5,2-3.1,4-4.6,6l-.8,1c-.7.9-1.5,1.8-2.2,2.8l-2.3,2.6-.6.7c-.4.5-.8.9-1.2,1.4,0,.1-.2.2-.3.3-.3.4-.6.7-.9,1.1-1.2,1.4-2.5,2.9-3.7,4.3-.7.8-1.3,1.5-2,2.2s-1.5,1.7-2.3,2.5l-.8.8-1.4,1.5c-2,2.1-4,4.2-5.9,6.2-1.8,1.9-3.7,3.7-5.5,5.6l-.8.8c-.6.6-1.3,1.3-1.9,1.9-.9.9-1.8,1.8-2.8,2.7l-2.3,2.1c-.7.7-1.4,1.3-2,1.9-9.7,8.9-19.7,17.3-30.2,25.3-1,.8-2,1.5-3,2.3-6.6,5-13.3,9.7-20.1,14.3-1,.7-2.1,1.4-3.1,2.1-1,.7-2,1.3-3,1.9h-.2c0,.1-2.2,1.6-2.2,1.6-.9.5-1.7,1.1-2.6,1.6l-1.7,1.1c-3.7,2.3-7.2,4.5-10.7,6.5l-2.4,1.4-2.4,1.4-2.3,1.3-2.2,1.3c-8.3,4.7-15.9,8.6-22.4,11.8l-1.6.8c-10.6,5.2-18.1,8.2-21,9.3l-.4.2-.6.2h-.5c0,0-.2,0-.2,0l-1.1-.4-.5-.2c-.9-.3-2-.8-3.4-1.4l-.5-.2c-1.8-.8-3.9-1.7-6.3-2.8l-1.4-.6c-13.6-6.2-26.9-13.1-39.8-20.6-.8-.4-1.6-.9-2.3-1.4-4.8-2.8-9.6-5.8-14.3-8.8-3.5-2.2-7-4.5-10.4-6.8-.8-.5-1.5-1-2.2-1.5-.6-.4-1.1-.8-1.7-1.2-5.5-3.8-10.9-7.7-16.2-11.7l-2.6-2-.6-.5c-.8-.6-1.5-1.2-2.3-1.8l-2.4-1.9-.4-.3c-6.2-4.9-12.4-10.2-18.6-15.7l-1.5-1.4c-1.5-1.4-3.1-2.8-4.6-4.2l-1.7-1.6-1.8-1.7-2-1.9c-1.1-1.1-2.2-2.2-3.3-3.3-.8-.8-1.7-1.7-2.5-2.5l-.2-.3c-.8-.8-1.7-1.7-2.5-2.5l-.3-.4-.4-.4-1.3-1.3-1-1.1-1-1v-.2c-.1,0-2.2-2.2-2.2-2.2-1.1-1.1-2.2-2.3-3.2-3.5h-.1c-1.1-1.4-2.2-2.6-3.3-3.9l-1.3-1.5-.7-.8c-.6-.7-1.1-1.3-1.7-1.9-.7-.8-1.3-1.6-2-2.4-2.9-3.4-5.7-6.9-8.4-10.5-.8-1-1.5-1.9-2.2-2.9-1.9-2.5-3.7-5-5.6-7.5-.5-.8-1.1-1.6-1.7-2.4-.1-.2-.2-.3-.4-.5-.6-.9-1.2-1.7-1.8-2.6l-1.5-2.3c0,0,0-.1-.1-.2-.4-.6-.8-1.1-1.1-1.7-.7-1.1-1.5-2.2-2.2-3.3,0,0,0-.2-.1-.2l-2.2-3.5-.2-.4-.9-1.4-1.2-2-.3-.5c-.2-.3-.3-.6-.5-.9-.5-.8-.9-1.6-1.4-2.3l-.6-1.1c-.5-.8-1-1.7-1.5-2.6-3.1-5.3-6-10.8-8.8-16.5-.4-.7-.7-1.4-1-2.1-.2-.4-.4-.9-.6-1.4-.4-.9-.8-1.7-1.2-2.6-.4-.8-.8-1.6-1.1-2.5l-.2-.5c-.3-.6-.5-1.2-.8-1.8l-.3-.6c-.3-.6-.5-1.2-.8-1.8-1-2.2-1.9-4.4-2.8-6.6-.4-1-.8-2-1.2-3.1-.1-.2-.2-.5-.3-.8-.4-1-.8-2-1.2-3s-.7-1.8-1-2.7l-.2-.6c-.2-.4-.3-.9-.5-1.4-.7-1.8-1.3-3.6-1.9-5.4-.2-.6-.4-1.2-.6-1.8-.3-.8-.5-1.5-.8-2.3-.1-.4-.3-.8-.4-1.2-.2-.8-.5-1.6-.8-2.4s-.5-1.7-.8-2.6c0-.2-.1-.4-.2-.5-.2-.6-.4-1.3-.6-2-.4-1.3-.7-2.6-1.1-3.9-.2-.7-.4-1.4-.5-2-.1-.5-.3-1-.4-1.5-.3-1.2-.6-2.5-.9-3.7-.2-.7-.3-1.4-.5-2.1,0-.3-.1-.6-.2-.9-.4-1.5-.7-3.1-1.1-4.7-.3-1.2-.5-2.3-.7-3.5-.1-.7-.3-1.4-.4-2.1s-.3-1.6-.5-2.5c0-.2,0-.3,0-.5-.2-.8-.3-1.6-.5-2.5s-.3-1.8-.5-2.8-.3-1.8-.5-2.7c-.4-2.5-.7-5-1.1-7.5-.2-1.2-.3-2.5-.5-3.7-1.5-12.5-2.3-25.1-2.3-37.7V1.5h480Z" style="fill: #ff919f;"/>
    </g>
    <g id="Layer_4">
      <path id="path55999" d="M108.4,263.4c0,58-8.9,111.3-23.9,153.4h-.1c-1.1-1.4-2.2-2.6-3.3-3.9l-1.3-1.5-.7-.8c-.6-.7-1.1-1.3-1.7-1.9-.7-.8-1.3-1.6-2-2.4-2.9-3.4-5.7-6.9-8.4-10.5-.8-1-1.5-1.9-2.2-2.9-1.9-2.5-3.7-5-5.6-7.5-.5-.8-1.1-1.6-1.7-2.4-.1-.2-.2-.3-.4-.5-.6-.9-1.2-1.7-1.8-2.6l-1.5-2.3c0,0,0-.1-.1-.2-.4-.6-.8-1.1-1.1-1.7-.7-1.1-1.5-2.2-2.2-3.3,0,0,0-.2-.1-.2l-2.2-3.5-.2-.4-.9-1.4-1.2-2-.3-.5c-.2-.3-.3-.6-.5-.9-.5-.8-.9-1.6-1.4-2.3l-.6-1.1c-.5-.8-1-1.7-1.5-2.6-3.1-5.3-6-10.8-8.8-16.5-.4-.7-.7-1.4-1-2.1-.2-.4-.4-.9-.6-1.4-.4-.9-.8-1.7-1.2-2.6-.4-.8-.8-1.6-1.1-2.5l-.2-.5c-.3-.6-.5-1.2-.8-1.8l-.3-.6c-.3-.6-.5-1.2-.8-1.8-1-2.2-1.9-4.4-2.8-6.6-.4-1-.8-2-1.2-3.1-.1-.2-.2-.5-.3-.8-.4-1-.8-2-1.2-3s-.7-1.8-1-2.7l-.2-.6c-.2-.4-.3-.9-.5-1.4-.7-1.8-1.3-3.6-1.9-5.4-.2-.6-.4-1.2-.6-1.8-.3-.8-.5-1.5-.8-2.3-.1-.4-.3-.8-.4-1.2-.2-.8-.5-1.6-.8-2.4s-.5-1.7-.8-2.6c0-.2-.1-.4-.2-.5-.2-.6-.4-1.3-.6-2-.4-1.3-.7-2.6-1.1-3.9-.2-.7-.4-1.4-.5-2-.1-.5-.3-1-.4-1.5-.3-1.2-.6-2.5-.9-3.7-.2-.7-.3-1.4-.5-2.1,0-.3-.1-.6-.2-.9-.4-1.5-.7-3.1-1.1-4.7-.3-1.2-.5-2.3-.7-3.5-.1-.7-.3-1.4-.4-2.1s-.3-1.6-.5-2.5c0-.2,0-.3,0-.5-.2-.8-.3-1.6-.5-2.5s-.3-1.8-.5-2.8-.3-1.8-.5-2.7c-.4-2.5-.7-5-1.1-7.5-.2-1.2-.3-2.5-.5-3.7-1.5-12.5-2.3-25.1-2.4-37.7V1.5c39,25.2,106.9,128.1,106.9,261.9Z"/>
      <path id="path559991" data-name="path55999" d="M374.6,263.4c0,58,8.9,111.3,23.9,153.4h.1c1.1-1.4,2.2-2.6,3.3-3.9l1.3-1.5.7-.8c.6-.7,1.1-1.3,1.7-1.9.7-.8,1.3-1.6,2-2.4,2.9-3.4,5.7-6.9,8.4-10.5.8-1,1.5-1.9,2.2-2.9,1.9-2.5,3.7-5,5.6-7.5.5-.8,1.1-1.6,1.7-2.4.1-.2.2-.3.4-.5.6-.9,1.2-1.7,1.8-2.6l1.5-2.3c0,0,0-.1.1-.2.4-.6.8-1.1,1.1-1.7.7-1.1,1.5-2.2,2.2-3.3,0,0,0-.2.1-.2l2.2-3.5.2-.4.9-1.4,1.2-2,.3-.5c.2-.3.3-.6.5-.9.5-.8.9-1.6,1.4-2.3l.6-1.1c.5-.8,1-1.7,1.5-2.6,3.1-5.3,6-10.8,8.8-16.5.4-.7.7-1.4,1-2.1.2-.4.4-.9.6-1.4.4-.9.8-1.7,1.2-2.6.4-.8.8-1.6,1.1-2.5l.2-.5c.3-.6.5-1.2.8-1.8l.3-.6c.3-.6.5-1.2.8-1.8,1-2.2,1.9-4.4,2.8-6.6.4-1,.8-2,1.2-3.1.1-.2.2-.5.3-.8.4-1,.8-2,1.2-3s.7-1.8,1-2.7l.2-.6c.2-.4.3-.9.5-1.4.7-1.8,1.3-3.6,1.9-5.4.2-.6.4-1.2.6-1.8.3-.8.5-1.5.8-2.3.1-.4.3-.8.4-1.2.2-.8.5-1.6.8-2.4s.5-1.7.8-2.6c0-.2.1-.4.2-.5.2-.6.4-1.3.6-2,.4-1.3.7-2.6,1.1-3.9.2-.7.4-1.4.5-2,.1-.5.3-1,.4-1.5.3-1.2.6-2.5.9-3.7.2-.7.3-1.4.5-2.1,0-.3.1-.6.2-.9.4-1.5.7-3.1,1.1-4.7.3-1.2.5-2.3.7-3.5.1-.7.3-1.4.4-2.1s.3-1.6.5-2.5c0-.2,0-.3,0-.5.2-.8.3-1.6.5-2.5s.3-1.8.5-2.8.3-1.8.5-2.7c.4-2.5.7-5,1.1-7.5.2-1.2.3-2.5.5-3.7,1.5-12.5,2.3-25.1,2.4-37.7V1.5c-39,25.2-106.9,128.1-106.9,261.9Z"/>
    </g>
    <g id="Layer_5">
      <path id="path56004" d="M247.2,79.1c1.2-2.8,1.4-5.9.6-8.9-1.2-4.4-3-10.8-4.1-14.5-.5-1.8-.9-3.9-1.9-6.5-2.3,7.5-4.3,14.2-6.3,20.7-.9,3-.7,6.3.6,9.2h0c.9,2.8.4,2.9.5,5.9v10.6c.4,34.4,0,68.7-.5,103.1-.3,28.1-.8,56.1-1.3,84.2-.3,16.3-.5,32.7-1.1,49,0,4-1,8-2.7,11.7-3,5.9-7,11.3-11.1,17.8l15.6,2.2c-3.1,7.8,4.7,17.9-9.2,23.4,8.2,2.2,7.8,7.3,7.7,12.3,0,7.8,0,15.7.1,23.5,0,1.4.5,4.1,1,4.1,3.8.5,7.8,1,11.5.3,1.2-.2,2.3-4,2.5-6.2.4-4.9,0-9.9.3-14.8.4-6.9-2.3-14.5,4.8-19.6q-6.5-5.2-6.5-14.2c0-1.9,0-3.8,0-5.6-.2-2.8,1.1-3.9,3.9-4,3.1-.1,6.1-.8,10.7-1.5-4.3-6.8-7.9-12.3-11.2-18-1.4-2.2-2.3-4.8-2.6-7.5-.6-29.1-1.3-58.2-1.4-87.3-.2-48.9-1-99.5-1-148.5s0-2.6,0-3.8c0-1.9,0-3.7,0-5.6,0-3.9.4-7.8,1.2-11.7h0Z"/>
      <ellipse id="ellipse56006" cx="241.5" cy="86.8" rx="6.7" ry="4.9"/>
      <path id="path56008" d="M159.4,79.1c1.2-2.8,1.4-5.9.6-8.9-1.2-4.4-3-10.8-4.1-14.5-.5-1.8-.9-3.9-1.9-6.5-2.3,7.5-4.3,14.2-6.3,20.7-.9,3-.7,6.3.6,9.2h0c.9,2.8.4,2.9.5,5.9v10.6c.4,34.4,0,68.7-.5,103.1-.3,28.1-.8,56.1-1.3,84.2-.3,16.3-.5,32.7-1.1,49,0,4-1,8-2.7,11.7-3,5.9-7,11.3-11.1,17.8l15.6,2.2c-3.1,7.8,4.7,17.9-9.2,23.4,8.2,2.2,7.8,7.3,7.7,12.3,0,7.8,0,15.7.1,23.5,0,1.4.5,4.1,1,4.1,3.8.5,7.8,1,11.5.3,1.2-.2,2.3-4,2.5-6.2.4-4.9,0-9.9.3-14.8.4-6.9-2.3-14.5,4.8-19.6q-6.5-5.2-6.5-14.2c0-1.9,0-3.8,0-5.6-.2-2.8,1.1-3.9,3.9-4,3.1-.1,6.1-.8,10.7-1.5-4.3-6.8-7.9-12.3-11.2-18-1.4-2.2-2.3-4.8-2.6-7.5-.6-29.1-1.3-58.2-1.4-87.3-.2-48.9-1-99.5-1-148.5s0-2.6,0-3.8c0-1.9,0-3.7,0-5.6,0-3.9.4-7.8,1.2-11.7h0Z"/>
      <ellipse id="ellipse56010" cx="153.7" cy="86.8" rx="6.7" ry="4.9"/>
      <path id="path56012" d="M331.8,79.1c1.2-2.8,1.4-5.9.6-8.9-1.2-4.4-3-10.8-4.1-14.5-.5-1.8-.9-3.9-1.9-6.5-2.3,7.5-4.3,14.2-6.3,20.7-.9,3-.7,6.3.6,9.2h0c.9,2.8.4,2.9.5,5.9v10.6c.4,34.4,0,68.7-.5,103.1-.3,28.1-.8,56.1-1.3,84.2-.3,16.3-.5,32.7-1.1,49,0,4-1,8-2.7,11.7-3,5.9-7,11.3-11.1,17.8l15.6,2.2c-3.1,7.8,4.7,17.9-9.2,23.4,8.2,2.2,7.8,7.3,7.7,12.3,0,7.8,0,15.7.1,23.5,0,1.4.5,4.1,1,4.1,3.8.5,7.8,1,11.5.3,1.2-.2,2.3-4,2.5-6.2.4-4.9,0-9.9.3-14.8.4-6.9-2.3-14.5,4.8-19.6q-6.5-5.2-6.5-14.2c0-1.9,0-3.8,0-5.6-.2-2.8,1.1-3.9,3.9-4,3.1-.1,6.1-.8,10.7-1.5-4.3-6.8-7.9-12.3-11.2-18-1.4-2.2-2.3-4.8-2.6-7.5-.6-29.1-1.3-58.2-1.4-87.3-.2-48.9-1-99.5-1-148.5s0-2.6,0-3.8c0-1.9,0-3.7,0-5.6,0-3.9.4-7.8,1.2-11.7h0Z"/>
      <ellipse id="ellipse56014" cx="326" cy="86.8" rx="6.7" ry="4.9"/>
    </g>
    <g id="Layer_3">
      <path id="path56017" d="M481.5,1.5v205.8c0,12.7-.8,25.4-2.3,38-.1.9-.2,1.9-.4,2.8,0,.2,0,.4,0,.6,0,.7-.2,1.5-.3,2.2-.5,3.4-1,6.7-1.6,10,0,.4-.2.9-.2,1.3-.2.8-.3,1.6-.5,2.4s-.3,1.8-.5,2.7l-.5,2.2-.2,1.1c-.2.7-.3,1.4-.5,2.1-.5,2.4-1.1,4.7-1.6,7l-.6,2.3-.5,2c-1,3.9-2.1,7.8-3.3,11.6-.3,1-.6,1.9-.9,2.9l-.6,1.9c-.2.6-.4,1.2-.6,1.9-.4,1.1-.7,2.2-1.1,3.2s-.7,2-1,3c-.5,1.3-.9,2.6-1.4,3.8-.4,1-.7,2-1.1,3l-.2.5c-.4,1.1-.9,2.2-1.3,3.4s-.9,2.2-1.3,3.2c0,.1-.1.3-.2.4-.4,1-.8,2-1.2,3s-.8,1.8-1.1,2.6l-.7,1.5c-.5,1.1-1,2.1-1.4,3.1s-.9,2-1.4,2.9l-1,2.1c-.3.6-.6,1.2-.9,1.9-.6,1.3-1.3,2.6-2,4-1.7,3.3-3.4,6.6-5.2,9.8l-2,3.6v.2c-1.5,2.4-2.9,4.9-4.4,7.2,0,0,0,0,0,0-.7,1.2-1.5,2.4-2.2,3.5-.1.2-.2.3-.3.5s-.3.5-.5.7c-.4.6-.8,1.3-1.2,1.9l-.7,1c-.7,1-1.3,2-2,3v.2c-.8,1-1.4,2-2.1,3l-.5.7c-1.5,2.2-3,4.3-4.5,6.5l-.3.4c-.8,1.1-1.5,2.1-2.3,3.2s-1.7,2.2-2.5,3.3c-1.5,2-3.1,4-4.6,6l-.8,1c-.7.9-1.5,1.8-2.2,2.8l-2.3,2.6-.6.7c-.4.5-.8.9-1.2,1.4,0,.1-.2.2-.3.3-.3.4-.6.7-.9,1.1-1.2,1.4-2.5,2.9-3.7,4.3-.7.8-1.3,1.5-2,2.2s-1.5,1.7-2.3,2.5l-.8.8-1.4,1.5c-2,2.1-4,4.2-5.9,6.2-1.8,1.9-3.7,3.7-5.5,5.6l-.8.8c-.6.6-1.3,1.3-1.9,1.9-.9.9-1.8,1.8-2.8,2.7l-2.3,2.1c-.7.7-1.4,1.3-2,1.9-9.7,8.9-19.7,17.3-30.2,25.3-1,.8-2,1.5-3,2.3-6.6,5-13.3,9.7-20.1,14.3-1,.7-2.1,1.4-3.1,2.1-1,.7-2,1.3-3,1.9h-.2c0,.1-2.2,1.6-2.2,1.6-.9.5-1.7,1.1-2.6,1.6l-1.7,1.1c-3.7,2.3-7.2,4.5-10.7,6.5l-2.4,1.4-2.4,1.4-2.3,1.3-2.2,1.3c-8.3,4.7-15.9,8.6-22.4,11.8l-1.6.8c-10.6,5.2-18.1,8.2-21,9.3l-.4.2-.6.2h-.5c0,0-.2,0-.2,0l-1.1-.4-.5-.2c-.9-.3-2-.8-3.4-1.4l-.5-.2c-1.8-.8-3.9-1.7-6.3-2.8l-1.4-.6c-13.6-6.2-26.9-13.1-39.8-20.6-.8-.4-1.6-.9-2.3-1.4-4.8-2.8-9.6-5.8-14.3-8.8-3.5-2.2-7-4.5-10.4-6.8-.8-.5-1.5-1-2.2-1.5-.6-.4-1.1-.8-1.7-1.2-5.5-3.8-10.9-7.7-16.2-11.7l-2.6-2-.6-.5c-.8-.6-1.5-1.2-2.3-1.8l-2.4-1.9-.4-.3c-6.2-4.9-12.4-10.2-18.6-15.7l-1.5-1.4c-1.5-1.4-3.1-2.8-4.6-4.2l-1.7-1.6-1.8-1.7-2-1.9c-1.1-1.1-2.2-2.2-3.3-3.3-.8-.8-1.7-1.7-2.5-2.5l-.2-.3c-.8-.8-1.7-1.7-2.5-2.5l-.3-.4-.4-.4-1.3-1.3-1-1.1-1-1v-.2c-.1,0-2.2-2.2-2.2-2.2-1.1-1.1-2.2-2.3-3.2-3.5h-.1c-1.1-1.4-2.2-2.6-3.3-3.9l-1.3-1.5-.7-.8c-.6-.7-1.1-1.3-1.7-1.9-.7-.8-1.3-1.6-2-2.4-2.9-3.4-5.7-6.9-8.4-10.5-.8-1-1.5-1.9-2.2-2.9-1.9-2.5-3.7-5-5.6-7.5-.5-.8-1.1-1.6-1.7-2.4-.1-.2-.2-.3-.4-.5-.6-.9-1.2-1.7-1.8-2.6l-1.5-2.3c0,0,0-.1-.1-.2-.4-.6-.8-1.1-1.1-1.7-.7-1.1-1.5-2.2-2.2-3.3,0,0,0-.2-.1-.2l-2.2-3.5-.2-.4-.9-1.4-1.2-2-.3-.5c-.2-.3-.3-.6-.5-.9-.5-.8-.9-1.6-1.4-2.3l-.6-1.1c-.5-.8-1-1.7-1.5-2.6-3.1-5.3-6-10.8-8.8-16.5-.4-.7-.7-1.4-1-2.1-.2-.4-.4-.9-.6-1.4-.4-.9-.8-1.7-1.2-2.6-.4-.8-.8-1.6-1.1-2.5l-.2-.5c-.3-.6-.5-1.2-.8-1.8l-.3-.6c-.3-.6-.5-1.2-.8-1.8-1-2.2-1.9-4.4-2.8-6.6-.4-1-.8-2-1.2-3.1-.1-.2-.2-.5-.3-.8-.4-1-.8-2-1.2-3s-.7-1.8-1-2.7l-.2-.6c-.2-.4-.3-.9-.5-1.4-.7-1.8-1.3-3.6-1.9-5.4-.2-.6-.4-1.2-.6-1.8-.3-.8-.5-1.5-.8-2.3-.1-.4-.3-.8-.4-1.2-.2-.8-.5-1.6-.8-2.4s-.5-1.7-.8-2.6c0-.2-.1-.4-.2-.5-.2-.6-.4-1.3-.6-2-.4-1.3-.7-2.6-1.1-3.9-.2-.7-.4-1.4-.5-2-.1-.5-.3-1-.4-1.5-.3-1.2-.6-2.5-.9-3.7-.2-.7-.3-1.4-.5-2.1,0-.3-.1-.6-.2-.9-.4-1.5-.7-3.1-1.1-4.7-.3-1.2-.5-2.3-.7-3.5-.1-.7-.3-1.4-.4-2.1s-.3-1.6-.5-2.5c0-.2,0-.3,0-.5-.2-.8-.3-1.6-.5-2.5s-.3-1.8-.5-2.8-.3-1.8-.5-2.7c-.4-2.5-.7-5-1.1-7.5-.2-1.2-.3-2.5-.5-3.7-1.5-12.5-2.3-25.1-2.3-37.7V1.5h480Z" style="fill: none; stroke: #000; stroke-width: 3px;"/>
    </g>
    <path id="shine" d="M1.6,1.5v206.4c0,229.7,239.9,319.6,239.9,319.6,0,0,239.9-89.9,239.9-319.6V1.5H1.6Z" style="fill: url(#radial-gradient); stroke: #000; stroke-width: 2.4px;"/>
  </g>

</svg>