<?xml version="1.0" encoding="UTF-8" standalone="no"?>
<svg
   viewBox="0 0 483 527.48"
   version="1.1"
   id="svg45584"
   sodipodi:docname="House Clegane.svg"
   inkscape:version="1.2.1 (9c6d41e410, 2022-07-14)"
   xmlns:inkscape="http://www.inkscape.org/namespaces/inkscape"
   xmlns:sodipodi="http://sodipodi.sourceforge.net/DTD/sodipodi-0.dtd"
   xmlns="http://www.w3.org/2000/svg"
   xmlns:svg="http://www.w3.org/2000/svg">
  <sodipodi:namedview
     id="namedview45586"
     pagecolor="#ffffff"
     bordercolor="#000000"
     borderopacity="0.25"
     inkscape:showpageshadow="2"
     inkscape:pageopacity="0.0"
     inkscape:pagecheckerboard="0"
     inkscape:deskcolor="#d1d1d1"
     showgrid="false"
     inkscape:zoom="0.79339504"
     inkscape:cx="149.98833"
     inkscape:cy="244.5188"
     inkscape:window-width="1920"
     inkscape:window-height="1017"
     inkscape:window-x="-8"
     inkscape:window-y="-8"
     inkscape:window-maximized="1"
     inkscape:current-layer="svg45584" />
  <defs
     id="defs45347">
    <style
       id="style45345">.cls-1{fill:#fecf03;}.cls-2,.cls-6{fill:#fff;}.cls-3{fill:#221e1f;}.cls-4,.cls-5,.cls-7{fill:none;}.cls-4,.cls-5,.cls-6,.cls-7{stroke:#000;}.cls-4{stroke-linecap:round;stroke-linejoin:round;}.cls-5,.cls-6{stroke-miterlimit:10;}.cls-7{stroke-width:3px;}</style>
    <radialGradient
       id="rg"
       gradientUnits="userSpaceOnUse"
       cx="220"
       cy="220"
       r="405"
       gradientTransform="matrix(0.80510068,0,0,0.80302287,-0.0302014,-0.9220116)">
      <stop
         style="stop-color:#ffffff;stop-opacity:.3"
         offset="0"
         id="stop753" />
      <stop
         style="stop-color:#ffffff;stop-opacity:.2"
         offset=".2"
         id="stop755" />
      <stop
         style="stop-color:#666666;stop-opacity:.1"
         offset=".6"
         id="stop757" />
      <stop
         style="stop-color:#000000;stop-opacity:.13"
         offset="1"
         id="stop759" />
    </radialGradient>
  </defs>
  <title
     id="title45349">House Clegane</title>
  <g
     id="Layer_2"
     data-name="Layer 2">
    <path
       class="cls-1"
       d="M927,122.76V328.6a314.37,314.37,0,0,1-2.28,38c-.11.93-.24,1.86-.36,2.79s-.24,1.86-.39,2.79q-.7,5.05-1.61,10c-.07.44-.15.87-.23,1.31-.15.8-.29,1.6-.45,2.39s-.34,1.8-.51,2.69l-.45,2.22-.24,1.16c-.15.71-.3,1.44-.47,2.15q-.8,3.55-1.61,7l-.58,2.32-.52,2q-1.52,5.88-3.27,11.61c-.29,1-.59,1.94-.9,2.92l-.6,1.88c-.19.63-.39,1.25-.6,1.86l-1.1,3.26c-.37,1.09-.68,2-1,3-.47,1.28-.92,2.55-1.39,3.81-.36,1-.73,2-1.11,3l-.19.49c-.43,1.14-.87,2.25-1.32,3.37s-.87,2.16-1.32,3.19a3.35,3.35,0,0,1-.18.42c-.4,1-.8,2-1.25,3s-.75,1.75-1.13,2.62l-.66,1.49c-.47,1.07-.95,2.12-1.44,3.15s-.9,2-1.36,2.93l-1,2.12c-.3.63-.6,1.25-.91,1.88-.63,1.32-1.31,2.64-2,4q-2.53,5-5.19,9.77l-2,3.57-.11.21q-2.13,3.71-4.33,7.33c-.71,1.2-1.46,2.39-2.18,3.54-.1.16-.19.31-.3.46-.55.89-1.12,1.78-1.69,2.66l-.66,1c-.65,1-1.31,2-2,3l-.13.18c-.66,1-1.32,2-2,3l-.45.67q-2.26,3.28-4.54,6.46l-.31.42c-.8,1.07-1.54,2.14-2.31,3.19s-1.66,2.23-2.5,3.32q-2.29,3-4.61,6l-.8,1c-.73.93-1.48,1.85-2.22,2.76L854,526.61l-.57.69L851,530.1q-2.83,3.32-5.72,6.53c-.75.85-1.52,1.69-2.29,2.51l-2.22,2.39q-3,3.19-5.93,6.24-2.76,2.83-5.53,5.59c-.91.91-1.84,1.82-2.76,2.71s-1.85,1.78-2.78,2.67l-2.28,2.11c-.68.65-1.36,1.28-2.05,1.91a448.64,448.64,0,0,1-61.76,47.47c-.86.55-1.73,1.1-2.58,1.6q-6.42,4.07-12.46,7.63l-2.41,1.4-2.36,1.36-2.34,1.35-2.22,1.28c-8.35,4.68-15.91,8.59-22.38,11.76l-1.61.8c-10.63,5.15-18.11,8.22-21,9.35l-.42.18-.61.23-.14.06h-.08l-.23-.1-.21,0-1.07-.42-.55-.23c-.87-.34-2-.8-3.36-1.38l-.47-.18c-1.76-.8-3.88-1.67-6.33-2.77l-1.39-.61a443.16,443.16,0,0,1-39.74-20.6c-.8-.45-1.61-.92-2.36-1.38a473.14,473.14,0,0,1-44.78-30l-2.62-2c-1-.75-2-1.52-2.95-2.29l-2.81-2.21c-6.19-4.92-12.43-10.15-18.64-15.69L558.08,566q-2.3-2.05-4.59-4.2l-1.67-1.57L550,558.54l-2-1.94c-1.12-1.07-2.24-2.16-3.34-3.26-.84-.8-1.69-1.67-2.52-2.51l-.24-.26q-1.25-1.25-2.5-2.51c-.66-.68-1.32-1.36-2-2l-2-2.07-.13-.15-2.1-2.24q-3.36-3.61-6.66-7.36c-.68-.8-1.36-1.55-2-2.35-.57-.65-1.12-1.28-1.66-1.94l-2-2.39q-4.26-5.11-8.39-10.48-1.13-1.45-2.24-2.92c-1.89-2.47-3.73-5-5.57-7.55l-1.68-2.39c-.13-.16-.24-.34-.36-.5-.59-.85-1.19-1.7-1.77-2.55-.95-1.38-1.89-2.77-2.82-4.17q-1.11-1.64-2.18-3.31l-.15-.24-2.22-3.47c-.07-.13-.15-.24-.22-.37-.71-1.14-1.41-2.27-2.1-3.4s-1.49-2.46-2.21-3.7-1.44-2.39-2.13-3.67q-4.6-8-8.77-16.47c-.35-.69-.69-1.38-1-2.08-.22-.44-.44-.89-.65-1.35-.43-.87-.8-1.75-1.25-2.63a27.17,27.17,0,0,1-1.15-2.47l-.23-.48c-.26-.58-.52-1.16-.8-1.75l-.26-.57c-.26-.58-.52-1.18-.8-1.77q-1.44-3.26-2.78-6.58c-.42-1-.8-2-1.23-3.07-.1-.26-.21-.53-.31-.8-.4-1-.8-2-1.16-3s-.68-1.82-1-2.74l-.23-.65c-.18-.45-.34-.91-.5-1.36q-1-2.69-1.89-5.44c-.21-.6-.4-1.21-.6-1.8-.26-.8-.51-1.54-.75-2.31-.14-.42-.26-.8-.39-1.22-.26-.8-.5-1.6-.75-2.39-.31-1-.61-2.06-.92-3.1-.18-.65-.39-1.28-.57-2-.37-1.28-.74-2.58-1.08-3.89-.19-.68-.37-1.35-.55-2-.13-.5-.26-1-.39-1.51-.32-1.22-.63-2.46-.92-3.7-.18-.7-.35-1.4-.52-2.11-.07-.29-.13-.57-.19-.85-.37-1.55-.71-3.11-1.07-4.69-.26-1.16-.5-2.33-.74-3.5-.14-.71-.29-1.43-.43-2.14s-.32-1.6-.47-2.45a2.13,2.13,0,0,0-.1-.47c-.15-.8-.3-1.64-.45-2.48s-.31-1.84-.47-2.77-.3-1.8-.45-2.71q-.87-5.52-1.56-11.17A314.73,314.73,0,0,1,447,328.58V122.76Z"
       transform="translate(-445.5 -121.26)"
       id="path45351" />
  </g>
  <g
     id="Layer_6"
     data-name="Layer 6">
    <path
       class="cls-2"
       d="M693.58,185.42s.76,1.31-1,2.4a8.29,8.29,0,0,1-2.8,1,14.1,14.1,0,0,1-2-6.47S692.33,182.08,693.58,185.42Z"
       transform="translate(-445.5 -121.26)"
       id="path45354" />
    <path
       class="cls-2"
       d="M697.25,186.25a3.27,3.27,0,0,1-1.3,2.16c-1.46.91-3.38-.59-3.38-.59,1.77-1.09,1-2.4,1-2.4A2.89,2.89,0,0,1,697.25,186.25Z"
       transform="translate(-445.5 -121.26)"
       id="path45356" />
    <path
       class="cls-2"
       d="M702.92,188.17s.62,2.58-.42,3.21-1.18-2-6.55-3a3.27,3.27,0,0,0,1.3-2.16S699.92,184.08,702.92,188.17Z"
       transform="translate(-445.5 -121.26)"
       id="path45358" />
    <path
       class="cls-2"
       d="M707.83,188.58a3.62,3.62,0,0,1-.63,2.69c-1.43,1.64-4.7.11-4.7.11,1-.63.42-3.21.42-3.21S706.17,185.58,707.83,188.58Z"
       transform="translate(-445.5 -121.26)"
       id="path45360" />
    <path
       class="cls-2"
       d="M713.11,192.4c-1.47,1.6-5.91-1.13-5.91-1.13a3.62,3.62,0,0,0,.63-2.69,5.25,5.25,0,0,1,5.75,2.34A2.08,2.08,0,0,1,713.11,192.4Z"
       transform="translate(-445.5 -121.26)"
       id="path45362" />
    <path
       class="cls-2"
       d="M713.58,190.92s2.18-.66,5.18-1.45a2,2,0,0,0,.82-.46c1.28,5.86-6.47,3.39-6.47,3.39A2.08,2.08,0,0,0,713.58,190.92Z"
       transform="translate(-445.5 -121.26)"
       id="path45364" />
    <path
       class="cls-2"
       d="M718.58,186.58c-2.33.34-2.75,1.59-5.25,1-1.8-.42-.83-1.27-.15-1.72,0,0,5.88-4.19,5.87.7A2.6,2.6,0,0,0,718.58,186.58Z"
       transform="translate(-445.5 -121.26)"
       id="path45366" />
    <path
       class="cls-2"
       d="M708.41,183.68s9.74-4.92,4.77,2.18c-.93.49-3,1.39-4.93.64C705.86,185.54,708.2,183.82,708.41,183.68Z"
       transform="translate(-445.5 -121.26)"
       id="path45368" />
    <path
       class="cls-2"
       d="M703.77,182c1.87-.77,10.17-4,4.64,1.65a35.45,35.45,0,0,1-4.66,1.15c-2.08.33-.47-2.43-.34-2.65l.27-.17A.09.09,0,0,0,703.77,182Z"
       transform="translate(-445.5 -121.26)"
       id="path45370" />
    <path
       class="cls-2"
       d="M698.42,180.58s9.46-3.29,5.27,1.31a.09.09,0,0,0,0,.12l-.27.17a13.57,13.57,0,0,1-5.66.82C694.33,182.83,698.42,180.58,698.42,180.58Z"
       transform="translate(-445.5 -121.26)"
       id="path45372" />
    <path
       class="cls-2"
       d="M692.42,178s11-2.67,6,2.58c0,0-4.75.67-7,0S692.42,178,692.42,178Z"
       transform="translate(-445.5 -121.26)"
       id="path45374" />
    <path
       class="cls-2"
       d="M692.42,178s-3.59-.5-4.92,0,1.17-5.25,7.33-3.17Z"
       transform="translate(-445.5 -121.26)"
       id="path45376" />
    <path
       class="cls-3"
       d="M656.58,264.25c1-8.69-4.6-10-14.14-22.56a1.7,1.7,0,0,1,.18-2.27c1.56-1.5,5.13-5.43,13.21-15.75,0,0,3.17,3.5,6.09,3.58,0,0-2.27-2.91-2.17-4.92,0,0,6.58.25,7.08,1.34s-6.66,15.58-10.41,17.08-8-1.33-8-1.33-.34,4.41,3.91,3.83,4.34-2.17,5.75-1.17c1.15.81-.15,4.38,4.86,12.86l-2.39.34c-2.32-3.6-5.72-7.7-6.8-4.47,0,0,6.44,7.5,6.94,9.25s-.63,4.51,2.37,5.2a3.94,3.94,0,0,0,.91.11l.06,1.55c-3.39.27-8,3.23-4.36,7.33C659.67,274.25,655.41,274.78,656.58,264.25Z"
       transform="translate(-445.5 -121.26)"
       id="path45378" />
    <path
       class="cls-3"
       d="M729.43,164l-4.24.16c-.5-1.5-2.75-1.12-3.75-2.62a8.5,8.5,0,0,0,1.09,2.75l-3.54.18c-1.33-3.19-3.58-10.24.59-14.1a8.93,8.93,0,0,0,2.42,6.09C724.16,158.43,728,161.5,729.43,164Z"
       transform="translate(-445.5 -121.26)"
       id="path45380" />
    <path
       class="cls-3"
       d="M775.25,224s3.17,7.83-3.33,10.08c0,0,.91-2.83.33-4.58,0,0-2.25,4.08-6.67,4.58,0,0,1.92-1.33,2-6,0,0-4.16,4.67-7.91,5,0,0,2.5-3.16,2.33-5.91s-7.83-3.25-5.75,4.25c0,0-3.67,1.16-5.17-5.34,0,0-13.5,9.42-16.66,6.42,0,0,5.83-8.08,6.58-10,.68-1.73,7.25-1.83,12.26-5.62a2.63,2.63,0,0,1,3.22,0A34.68,34.68,0,0,0,775.25,224Z"
       transform="translate(-445.5 -121.26)"
       id="path45382" />
    <path
       class="cls-3"
       d="M664,265.37c1.68,0,1.82-1.37.36-2a1.87,1.87,0,0,1-1.21-1.66,8.15,8.15,0,0,0-.31-2.36,25.24,25.24,0,0,0-2.26-4.1l2.39-.34c.93,1.56,2.07,3.3,3.48,5.22a5.07,5.07,0,0,0,5.64,1.87,12.92,12.92,0,0,0,5-3.39,2.17,2.17,0,0,1,3.13,0c1.75,1.88,3.94,5.3,1.92,9.44,0,0-2.16-2.75-2.91-3s.75,4.67-4.34,6.59c0,0,.17-5.42-2.66-5.17s2.16,6.67-6.17,7.75c0,0,2.17-3.25.92-6.25-.36-.86-1.53-1.19-2.89-1.08Z"
       transform="translate(-445.5 -121.26)"
       id="path45384" />
    <path
       class="cls-3"
       d="M626.08,266.33c1.12-1.76,1-4.5.22-7.56l1.74-.47c.15.58.28,1.11.4,1.58.94,3.74.75,5.5,2.94,5.37s2.87-.13,2.31-4.94l2.17-.86a8.58,8.58,0,0,0,.89,1.72c2.81,4,9,3.62,12.4,2a1.45,1.45,0,0,1,2,1c.49,2.19.49,6.16-3.51,11.08,0,0,.33-6.83-2.5-6.33,0,0-.59,6.33-5.42,8,0,0,1.58-4.09.58-5.75s-1.5,4.66-7.66,6.41a11.41,11.41,0,0,0,2.58-6.83c-.08-3.75-8.08-3.75-7.58,4.5C627.67,275.25,622.17,272.5,626.08,266.33Z"
       transform="translate(-445.5 -121.26)"
       id="path45386" />
    <path
       class="cls-3"
       d="M628,225c-2.64,3.94-1.74,7.07-.86,8.7a2,2,0,0,0,2.58,1c.49-.22.7-.6-.1-1.28a4.32,4.32,0,0,1-1.07-3.54,7.82,7.82,0,0,1,.53-2.39c2.51-6.18,9.85-8.34,8.11-10.39S631.94,219.12,628,225Zm96.58,13.25c1.67-2.42,2.59.08,4.5-10.25s-4.66-17.58-11.16-17.33S712.5,217,712.5,217c1.08-4.08,10.83-7.5,13.58,3.92s-4.83,16.5-5.15,17.58,1.57,2.17,1.24,3.58-3.34,4-3.34,4C727.17,246,722.92,240.67,724.58,238.25ZM602.75,193.83c1.17,2.79,8.21-7.08,3.67-5.71A5,5,0,0,0,602.75,193.83Zm22.63,54.46s1.62,6,2.66,10l-1.74.47c-1.95-7.64-8.07-17.32-9.55-19.1-2.08-2.5,8.17-2.09,10.92-21.09,0,0-4.67,7.25-12.17,2.09s3.9-23,5.75-28c1.44-3.88-11.1-12-11.63,0a12.12,12.12,0,0,1-10.85,11.73l-.27,0s.5-1.17,2-4.75-3.92-9.25,3.83-15,19-4.84,21.59,3.16-3,14.37-6.17,21.75c0,0,.58,11.92,8.58,1.25s11.92-12.75,21.75-14.75,29,1.17,43.5,8.75c0,0,20.84,4.92,20.75-5.5a3.73,3.73,0,0,1,3.42,2.17s6.07-5.36-21.75-5.17a31.27,31.27,0,0,1-6.23-7.53,8.29,8.29,0,0,0,2.8-1s1.92,1.5,3.38.59c5.37,1,5.51,3.59,6.55,3,0,0,3.27,1.53,4.7-.11,0,0,4.44,2.73,5.91,1.13,0,0,7.75,2.47,6.47-3.39h0a1.67,1.67,0,0,0,.48-1.65,1,1,0,0,0-1-.79c0-4.89-5.87-.7-5.87-.7,5-7.1-4.77-2.18-4.77-2.18,5.53-5.67-2.77-2.42-4.64-1.65a.09.09,0,0,1-.09,0,.09.09,0,0,1,0-.12c4.19-4.6-5.27-1.31-5.27-1.31,5-5.25-6-2.58-6-2.58l2.41-3.17s10.59,1.34,12.25-.83a30.44,30.44,0,0,1,10.69-7.46,30.32,30.32,0,0,0,5.42.58c1.75.1,4.74-.81,6.86-1.69,1,1.93,5.56-.61,9.27,6.71-.16-.55-2.28-8,.85-11.14s8.25-6.75,9.25-8.92a10.15,10.15,0,0,1,.58,8.59c-1.92,4.41-3.42,3.25-5.08,12.5-1.57,8.69-1.22,15-7.41,22.82a3.08,3.08,0,0,0-.43,3.14c1.42,3.21,4,11.16,1.92,23.62,0,0-6.25,10.08-12.17,14.75,0,0,12.67,0,16.67-1s4.11-.75,7.22,2.83,9.53,5,15.11,5.34c0,0,3,5.33-1.75,9.25,0,0,.42-4.25-.5-4.17s-2.83,5.67-7.83,6.83a14.77,14.77,0,0,0,2-4.91,12.39,12.39,0,0,1-8.17,2.66s3.67-2.83,3.42-4.91a3.53,3.53,0,0,0-4.67-2.67c-2.08.67-1.91,1.92-1.66,5.17,0,0-5.75,1.08-4.09-8.34,0,0-13.83,5.34-18.16,6s-12.67-.08-12.67-.08,3.25-5.33,3.33-10.33-3-12.59-8.66-13.42-7.5,8.17-1.59,10.08c0,0-1.64-2.85-1.39-4.94s3.64-4.72,6.56-.31,4.5,14.17-.75,14c0,0-14.17,1.67-41.17-22.66,0,0-8.25-2.42-10.66-1.34S641.58,235.83,628.17,239c0,0-1.3,3.21,3.22,1.28a1.22,1.22,0,0,1,1.69,1.07c.2,4,.88,13.37,2.78,18.1l-2.17.86s-1.63,2.69-2.5,2.25S628.5,243.5,625.38,248.29ZM648.69,221s1.81,1.56,1.81-2-4.81-4.75-4.81-4.75A27.45,27.45,0,0,1,648.69,221Z"
       transform="translate(-445.5 -121.26)"
       id="path45388" />
    <path
       class="cls-4"
       d="M719.58,189a2,2,0,0,1-.82.46c-3,.79-5.18,1.45-5.18,1.45a5.25,5.25,0,0,0-5.75-2.34c-1.66-3-4.91-.41-4.91-.41-3-4.09-5.67-1.92-5.67-1.92a2.89,2.89,0,0,0-3.67-.83c-1.25-3.34-5.83-3.09-5.83-3.09a14.1,14.1,0,0,0,2,6.47,31.27,31.27,0,0,0,6.23,7.53c27.82-.19,21.75,5.17,21.75,5.17a3.73,3.73,0,0,0-3.42-2.17c.09,10.42-20.75,5.5-20.75,5.5-14.5-7.58-33.66-10.75-43.5-8.75s-13.75,4.09-21.75,14.75-8.58-1.25-8.58-1.25c3.15-7.38,8.75-13.75,6.17-21.75s-13.84-8.91-21.59-3.16-2.33,11.41-3.83,15-2,4.75-2,4.75l.27,0a12.12,12.12,0,0,0,10.85-11.73c.53-12,13.07-3.87,11.63,0-1.85,5-13.25,22.83-5.75,28s12.17-2.09,12.17-2.09c-2.75,19-13,18.59-10.92,21.09,1.48,1.78,7.6,11.46,9.55,19.1.79,3.06.9,5.8-.22,7.56-3.91,6.17,1.59,8.92,1.59,8.92-.5-8.25,7.5-8.25,7.58-4.5a11.41,11.41,0,0,1-2.58,6.83c6.16-1.75,6.66-8.08,7.66-6.41s-.58,5.75-.58,5.75c4.83-1.67,5.42-8,5.42-8,2.83-.5,2.5,6.33,2.5,6.33,4-4.92,4-8.89,3.51-11.08a1.45,1.45,0,0,0-2-1c-3.4,1.62-9.59,2-12.4-2a8.58,8.58,0,0,1-.89-1.72c-1.9-4.73-2.58-14.12-2.78-18.1a1.22,1.22,0,0,0-1.69-1.07c-4.52,1.93-3.22-1.28-3.22-1.28,13.41-3.17,26.83-17.33,29.25-18.42s10.66,1.34,10.66,1.34c27,24.33,41.17,22.66,41.17,22.66,5.25.17,3.67-9.58.75-14s-6.32-1.7-6.56.31,1.39,4.94,1.39,4.94c-5.91-1.91-4.08-10.91,1.59-10.08s8.75,8.42,8.66,13.42-3.33,10.33-3.33,10.33,8.33.75,12.67.08,18.16-6,18.16-6c-1.66,9.42,4.09,8.34,4.09,8.34-.25-3.25-.42-4.5,1.66-5.17a3.53,3.53,0,0,1,4.67,2.67c.25,2.08-3.42,4.91-3.42,4.91a12.39,12.39,0,0,0,8.17-2.66,14.77,14.77,0,0,1-2,4.91c5-1.16,6.92-6.75,7.83-6.83s.5,4.17.5,4.17c4.75-3.92,1.75-9.25,1.75-9.25-5.58-.34-12-1.75-15.11-5.34s-3.22-3.83-7.22-2.83-16.67,1-16.67,1c5.92-4.67,12.17-14.75,12.17-14.75,2.06-12.46-.5-20.41-1.92-23.62a3.08,3.08,0,0,1,.43-3.14c6.19-7.79,5.84-14.13,7.41-22.82,1.66-9.25,3.16-8.09,5.08-12.5a10.15,10.15,0,0,0-.58-8.59c-1,2.17-6,5.67-9.25,8.92s-1,10.59-.85,11.14c-3.71-7.32-8.25-4.78-9.27-6.71-2.12.88-5.11,1.79-6.86,1.69a30.32,30.32,0,0,1-5.42-.58A30.44,30.44,0,0,0,707.08,174c-1.66,2.17-12.25.83-12.25.83-6.16-2.08-8.66,3.67-7.33,3.17s4.92,0,4.92,0-3.25,1.92-1,2.58,7,0,7,0-4.09,2.25-.67,2.42a13.57,13.57,0,0,0,5.66-.82c-.13.22-1.74,3,.34,2.65a35.45,35.45,0,0,0,4.66-1.15c-.21.14-2.55,1.86-.16,2.82,1.88.75,4-.15,4.93-.64-.68.45-1.65,1.3.15,1.72,2.5.59,2.92-.66,5.25-1a2.6,2.6,0,0,1,.47,0,1,1,0,0,1,1,.79,1.67,1.67,0,0,1-.48,1.65"
       transform="translate(-445.5 -121.26)"
       id="path45390" />
    <path
       class="cls-4"
       d="M602.75,193.83a5,5,0,0,1,3.67-5.71C611,186.75,603.92,196.62,602.75,193.83Z"
       transform="translate(-445.5 -121.26)"
       id="path45392" />
    <path
       class="cls-4"
       d="M628,258.3c-1-4-2.66-10-2.66-10,3.12-4.79,4.93,13.83,5.81,14.27s2.5-2.25,2.5-2.25c.56,4.81-.13,4.81-2.31,4.94s-2-1.63-2.94-5.37C628.32,259.41,628.19,258.88,628,258.3Z"
       transform="translate(-445.5 -121.26)"
       id="path45394" />
    <path
       class="cls-4"
       d="M629.08,227.45a7.82,7.82,0,0,0-.53,2.39,4.32,4.32,0,0,0,1.07,3.54c.8.68.59,1.06.1,1.28a2,2,0,0,1-2.58-1c-.88-1.63-1.78-4.76.86-8.7,3.94-5.88,7.38-10.06,9.19-7.94S631.59,221.27,629.08,227.45Z"
       transform="translate(-445.5 -121.26)"
       id="path45396" />
    <path
       class="cls-4"
       d="M648.69,221a27.45,27.45,0,0,0-3-6.75s4.81,1.19,4.81,4.75S648.69,221,648.69,221Z"
       transform="translate(-445.5 -121.26)"
       id="path45398" />
    <path
       class="cls-4"
       d="M724.58,238.25c-1.66,2.42,2.59,7.75-5.75,7.83,0,0,3-2.58,3.34-4s-1.57-2.5-1.24-3.58,7.9-6.17,5.15-17.58-12.5-8-13.58-3.92c0,0-1.08-6.08,5.42-6.33s13.08,7,11.16,17.33S726.25,235.83,724.58,238.25Z"
       transform="translate(-445.5 -121.26)"
       id="path45400" />
    <path
       class="cls-4"
       d="M722,156.42a8.93,8.93,0,0,1-2.42-6.09c-4.17,3.86-1.92,10.91-.59,14.1l3.54-.18a8.5,8.5,0,0,1-1.09-2.75c1,1.5,3.25,1.12,3.75,2.62l4.24-.16C728,161.5,724.16,158.43,722,156.42Z"
       transform="translate(-445.5 -121.26)"
       id="path45402" />
    <path
       class="cls-5"
       d="M734.42,232.5s5.83-8.08,6.58-10c.68-1.73,7.25-1.83,12.26-5.62a2.63,2.63,0,0,1,3.22,0A34.68,34.68,0,0,0,775.25,224s3.17,7.83-3.33,10.08c0,0,.91-2.83.33-4.58,0,0-2.25,4.08-6.67,4.58,0,0,1.92-1.33,2-6,0,0-4.16,4.67-7.91,5,0,0,2.5-3.16,2.33-5.91s-7.83-3.25-5.75,4.25c0,0-3.67,1.16-5.17-5.34C751.08,226.08,737.58,235.5,734.42,232.5Z"
       transform="translate(-445.5 -121.26)"
       id="path45404" />
    <path
       class="cls-5"
       d="M664,266.92c1.36-.11,2.53.22,2.89,1.08,1.25,3-.92,6.25-.92,6.25,8.33-1.08,3.33-7.5,6.17-7.75s2.66,5.17,2.66,5.17c5.09-1.92,3.59-6.84,4.34-6.59s2.91,3,2.91,3c2-4.14-.17-7.56-1.92-9.44a2.17,2.17,0,0,0-3.13,0,12.92,12.92,0,0,1-5,3.39,5.07,5.07,0,0,1-5.64-1.87c-1.41-1.92-2.55-3.66-3.48-5.22-5-8.48-3.71-12.05-4.86-12.86-1.41-1-1.5.59-5.75,1.17s-3.91-3.83-3.91-3.83,4.25,2.83,8,1.33,10.91-16,10.41-17.08-7.08-1.34-7.08-1.34c-.1,2,2.17,4.92,2.17,4.92-2.92-.08-6.09-3.58-6.09-3.58-8.08,10.32-11.65,14.25-13.21,15.75a1.7,1.7,0,0,0-.18,2.27c9.54,12.56,15.11,13.87,14.14,22.56-1.17,10.53,3.09,10,3.09,10C656,270.15,660.64,267.19,664,266.92Z"
       transform="translate(-445.5 -121.26)"
       id="path45406" />
    <path
       class="cls-5"
       d="M664,265.37a3.94,3.94,0,0,1-.91-.11c-3-.69-1.87-3.45-2.37-5.2s-6.94-9.25-6.94-9.25c1.08-3.23,4.48.87,6.8,4.47a25.24,25.24,0,0,1,2.26,4.1,8.15,8.15,0,0,1,.31,2.36,1.87,1.87,0,0,0,1.21,1.66C665.79,264,665.65,265.37,664,265.37Z"
       transform="translate(-445.5 -121.26)"
       id="path45408" />
    <path
       class="cls-4"
       d="M694.83,174.83,692.42,178s11-2.67,6,2.58c0,0,9.46-3.29,5.27,1.31a.09.09,0,0,0,0,.12.09.09,0,0,0,.09,0c1.87-.77,10.17-4,4.64,1.65,0,0,9.74-4.92,4.77,2.18,0,0,5.88-4.19,5.87.7"
       transform="translate(-445.5 -121.26)"
       id="path45410" />
    <path
       class="cls-4"
       d="M693.58,185.42s.76,1.31-1,2.4a8.29,8.29,0,0,1-2.8,1"
       transform="translate(-445.5 -121.26)"
       id="path45412" />
    <path
       class="cls-4"
       d="M692.57,187.82s1.92,1.5,3.38.59a3.27,3.27,0,0,0,1.3-2.16"
       transform="translate(-445.5 -121.26)"
       id="path45414" />
    <path
       class="cls-4"
       d="M702.92,188.17s.62,2.58-.42,3.21-1.18-2-6.55-3"
       transform="translate(-445.5 -121.26)"
       id="path45416" />
    <path
       class="cls-4"
       d="M702.5,191.38s3.27,1.53,4.7-.11a3.62,3.62,0,0,0,.63-2.69"
       transform="translate(-445.5 -121.26)"
       id="path45418" />
    <path
       class="cls-4"
       d="M707.2,191.27s4.44,2.73,5.91,1.13a2.08,2.08,0,0,0,.47-1.48"
       transform="translate(-445.5 -121.26)"
       id="path45420" />
    <path
       class="cls-4"
       d="M713.11,192.4s7.75,2.47,6.47-3.39h0"
       transform="translate(-445.5 -121.26)"
       id="path45422" />
    <path
       class="cls-6"
       d="M728.1,182.26a5.08,5.08,0,0,1-3,.08,3,3,0,0,1-2.27-3.9c.88-4.25,8.45-2.9,7.63,1.5A3.2,3.2,0,0,1,728.1,182.26Z"
       transform="translate(-445.5 -121.26)"
       id="path45424" />
    <path
       class="cls-6"
       d="M717.27,175.79c2.27-2.17,9.56-8.22,14.78-2.34a1,1,0,0,1-1.17,1.64l-.07,0c-2.3-1.09-7.47-1.83-12.44,2a.84.84,0,0,1-1,0h0A.83.83,0,0,1,717.27,175.79Z"
       transform="translate(-445.5 -121.26)"
       id="path45426" />
    <path
       class="cls-3"
       d="M775.25,510.43s3.17,7.83-3.33,10.08c0,0,.91-2.83.33-4.58,0,0-2.25,4.08-6.67,4.58,0,0,1.92-1.33,2-6,0,0-4.16,4.67-7.91,5,0,0,2.5-3.16,2.33-5.91s-7.83-3.25-5.75,4.25c0,0-3.67,1.16-5.17-5.34,0,0-13.5,9.42-16.66,6.42,0,0,5.83-8.08,6.58-10,.68-1.73,7.25-1.83,12.26-5.62a2.63,2.63,0,0,1,3.22,0A34.68,34.68,0,0,0,775.25,510.43Z"
       transform="translate(-445.5 -121.26)"
       id="path45428" />
    <path
       class="cls-3"
       d="M765.83,531.1s3,5.33-1.75,9.25c0,0,.42-4.25-.5-4.17s-2.83,5.67-7.83,6.83a14.77,14.77,0,0,0,2-4.91,12.39,12.39,0,0,1-8.17,2.66s3.67-2.83,3.42-4.91a3.53,3.53,0,0,0-4.67-2.67c-2.08.67-1.91,1.92-1.66,5.17,0,0-5.75,1.08-4.09-8.34,0,0-13.83,5.34-18.16,6s-12.67-.08-12.67-.08,3.25-5.33,3.33-10.33-3-12.59-8.66-13.42-7.5,8.17-1.59,10.08c0,0-1.64-2.85-1.39-4.94s3.64-4.72,6.56-.31,4.5,14.17-.75,14c0,0-14.17,1.67-41.17-22.66,0,0-8.25-2.42-10.66-1.34s-15.84,15.25-29.25,18.42c0,0-1.3,3.21,3.22,1.28a1.22,1.22,0,0,1,1.69,1.07c.2,4,.88,13.37,2.78,18.1l-2.17.86s-1.63,2.69-2.5,2.25-2.69-19.06-5.81-14.27c0,0,1.62,6,2.66,10l-1.74.47c-1.95-7.64-8.07-17.32-9.55-19.1-2.08-2.5,8.17-2.09,10.92-21.09,0,0-4.67,7.25-12.17,2.09s3.9-23,5.75-28c1.44-3.88-11.1-12.05-11.63,0a12.12,12.12,0,0,1-10.85,11.73l-.27,0s.5-1.17,2-4.75-3.92-9.25,3.83-15,19-4.84,21.59,3.16-3,14.37-6.17,21.75c0,0,.58,11.92,8.58,1.25s11.92-12.75,21.75-14.75,29,1.17,43.5,8.75c0,0,20.84,4.92,20.75-5.5a3.73,3.73,0,0,1,3.42,2.17s6.07-5.36-21.75-5.17a31.27,31.27,0,0,1-6.23-7.53,8.29,8.29,0,0,0,2.8-1s1.92,1.5,3.38.59c5.37,1,5.51,3.59,6.55,3,0,0,3.27,1.53,4.7-.11,0,0,4.44,2.73,5.91,1.13,0,0,7.75,2.47,6.47-3.39h0a1.67,1.67,0,0,0,.48-1.65,1,1,0,0,0-1-.79c0-4.89-5.87-.7-5.87-.7,5-7.1-4.77-2.18-4.77-2.18,5.53-5.67-2.77-2.42-4.64-1.65a.09.09,0,0,1-.09,0,.09.09,0,0,1,0-.12c4.19-4.6-5.27-1.31-5.27-1.31,5-5.25-6-2.58-6-2.58l2.41-3.17s10.59,1.34,12.25-.83A30.44,30.44,0,0,1,717.77,453a30.32,30.32,0,0,0,5.42.58c1.75.1,4.74-.81,6.86-1.69,1,1.93,5.56-.61,9.27,6.71-.16-.55-2.28-8,.85-11.14s8.25-6.75,9.25-8.92a10.15,10.15,0,0,1,.58,8.59c-1.92,4.41-3.42,3.25-5.08,12.5-1.57,8.69-1.22,15-7.41,22.82a3.08,3.08,0,0,0-.43,3.14c1.42,3.21,4,11.16,1.92,23.62,0,0-6.25,10.08-12.17,14.75,0,0,12.67,0,16.67-1s4.11-.75,7.22,2.83S760.25,530.76,765.83,531.1Zm-36.75-16.67c1.92-10.33-4.66-17.58-11.16-17.33s-5.42,6.33-5.42,6.33c1.08-4.08,10.83-7.5,13.58,3.92s-4.83,16.5-5.15,17.58,1.57,2.17,1.24,3.58-3.34,4-3.34,4c8.34-.08,4.09-5.41,5.75-7.83S727.17,524.76,729.08,514.43Zm-80.39-7s1.81,1.56,1.81-2-4.81-4.75-4.81-4.75A27.45,27.45,0,0,1,648.69,507.43Zm-19.61,6.45c2.51-6.18,9.85-8.34,8.11-10.39s-5.25,2.06-9.19,7.94c-2.64,3.94-1.74,7.07-.86,8.7a2,2,0,0,0,2.58,1c.49-.22.7-.6-.1-1.28a4.32,4.32,0,0,1-1.07-3.54A7.82,7.82,0,0,1,629.08,513.88Zm-26.33-33.62c1.17,2.79,8.21-7.08,3.67-5.71A5,5,0,0,0,602.75,480.26Z"
       transform="translate(-445.5 -121.26)"
       id="path45430" />
    <path
       class="cls-3"
       d="M722,442.85c2.16,2,6,5.08,7.43,7.54l-4.24.16c-.5-1.5-2.75-1.12-3.75-2.62a8.5,8.5,0,0,0,1.09,2.75l-3.54.18c-1.33-3.19-3.58-10.24.59-14.1A8.93,8.93,0,0,0,722,442.85Z"
       transform="translate(-445.5 -121.26)"
       id="path45432" />
    <path
       class="cls-2"
       d="M719.58,475.44c1.28,5.86-6.47,3.39-6.47,3.39a2.08,2.08,0,0,0,.47-1.48s2.18-.66,5.18-1.45A2,2,0,0,0,719.58,475.44Z"
       transform="translate(-445.5 -121.26)"
       id="path45434" />
    <path
       class="cls-2"
       d="M713.18,472.29s5.88-4.19,5.87.7a2.6,2.6,0,0,0-.47,0c-2.33.34-2.75,1.59-5.25,1C711.53,473.59,712.5,472.74,713.18,472.29Z"
       transform="translate(-445.5 -121.26)"
       id="path45436" />
    <path
       class="cls-2"
       d="M708.41,470.11s9.74-4.92,4.77,2.18c-.93.49-3,1.39-4.93.64C705.86,472,708.2,470.25,708.41,470.11Z"
       transform="translate(-445.5 -121.26)"
       id="path45438" />
    <path
       class="cls-2"
       d="M713.58,477.35a2.08,2.08,0,0,1-.47,1.48c-1.47,1.6-5.91-1.13-5.91-1.13a3.62,3.62,0,0,0,.63-2.69A5.25,5.25,0,0,1,713.58,477.35Z"
       transform="translate(-445.5 -121.26)"
       id="path45440" />
    <path
       class="cls-2"
       d="M703.77,468.46c1.87-.77,10.17-4,4.64,1.65a35.45,35.45,0,0,1-4.66,1.15c-2.08.33-.47-2.43-.34-2.65l.27-.17A.09.09,0,0,0,703.77,468.46Z"
       transform="translate(-445.5 -121.26)"
       id="path45442" />
    <path
       class="cls-2"
       d="M707.83,475a3.62,3.62,0,0,1-.63,2.69c-1.43,1.64-4.7.11-4.7.11,1-.63.42-3.21.42-3.21S706.17,472,707.83,475Z"
       transform="translate(-445.5 -121.26)"
       id="path45444" />
    <path
       class="cls-2"
       d="M698.42,467s9.46-3.29,5.27,1.31a.09.09,0,0,0,0,.12l-.27.17a13.57,13.57,0,0,1-5.66.82C694.33,469.26,698.42,467,698.42,467Z"
       transform="translate(-445.5 -121.26)"
       id="path45446" />
    <path
       class="cls-2"
       d="M702.92,474.6s.62,2.58-.42,3.21-1.18-2-6.55-3a3.27,3.27,0,0,0,1.3-2.16S699.92,470.51,702.92,474.6Z"
       transform="translate(-445.5 -121.26)"
       id="path45448" />
    <path
       class="cls-2"
       d="M692.42,464.43s11-2.67,6,2.58c0,0-4.75.67-7,0S692.42,464.43,692.42,464.43Z"
       transform="translate(-445.5 -121.26)"
       id="path45450" />
    <path
       class="cls-2"
       d="M697.25,472.68a3.27,3.27,0,0,1-1.3,2.16c-1.46.91-3.38-.59-3.38-.59,1.77-1.09,1-2.4,1-2.4A2.89,2.89,0,0,1,697.25,472.68Z"
       transform="translate(-445.5 -121.26)"
       id="path45452" />
    <path
       class="cls-2"
       d="M694.83,461.26l-2.41,3.17s-3.59-.5-4.92,0S688.67,459.18,694.83,461.26Z"
       transform="translate(-445.5 -121.26)"
       id="path45454" />
    <path
       class="cls-2"
       d="M693.58,471.85s.76,1.31-1,2.4a8.29,8.29,0,0,1-2.8,1,14.1,14.1,0,0,1-2-6.47S692.33,468.51,693.58,471.85Z"
       transform="translate(-445.5 -121.26)"
       id="path45456" />
    <path
       class="cls-3"
       d="M680.16,545.07c1.75,1.88,3.94,5.3,1.92,9.44,0,0-2.16-2.75-2.91-3s.75,4.67-4.34,6.59c0,0,.17-5.42-2.66-5.17s2.16,6.67-6.17,7.75c0,0,2.17-3.25.92-6.25-.36-.86-1.53-1.19-2.89-1.08L664,551.8c1.68,0,1.82-1.37.36-2a1.87,1.87,0,0,1-1.21-1.66,8.15,8.15,0,0,0-.31-2.36,25.24,25.24,0,0,0-2.26-4.1l2.39-.34c.93,1.56,2.07,3.3,3.48,5.22a5.07,5.07,0,0,0,5.64,1.87,12.92,12.92,0,0,0,5-3.39A2.17,2.17,0,0,1,680.16,545.07Z"
       transform="translate(-445.5 -121.26)"
       id="path45458" />
    <path
       class="cls-3"
       d="M666.83,510.1c.5,1.08-6.66,15.58-10.41,17.08s-8-1.33-8-1.33-.34,4.41,3.91,3.83,4.34-2.17,5.75-1.17c1.15.81-.15,4.38,4.86,12.86l-2.39.34c-2.32-3.6-5.72-7.7-6.8-4.47,0,0,6.44,7.5,6.94,9.25s-.63,4.51,2.37,5.2a3.94,3.94,0,0,0,.91.11l.06,1.55c-3.39.27-8,3.23-4.36,7.33,0,0-4.26.53-3.09-10,1-8.69-4.6-10-14.14-22.56a1.7,1.7,0,0,1,.18-2.27c1.56-1.5,5.13-5.43,13.21-15.75,0,0,3.17,3.5,6.09,3.58,0,0-2.27-2.91-2.17-4.92C659.75,508.76,666.33,509,666.83,510.1Z"
       transform="translate(-445.5 -121.26)"
       id="path45460" />
    <path
       class="cls-3"
       d="M651.18,550.6c.49,2.19.49,6.16-3.51,11.08,0,0,.33-6.83-2.5-6.33,0,0-.59,6.33-5.42,8,0,0,1.58-4.09.58-5.75s-1.5,4.66-7.66,6.41a11.41,11.41,0,0,0,2.58-6.83c-.08-3.75-8.08-3.75-7.58,4.5,0,0-5.5-2.75-1.59-8.92,1.12-1.76,1-4.5.22-7.56l1.74-.47c.15.58.28,1.11.4,1.58.94,3.74.75,5.5,2.94,5.37s2.87-.13,2.31-4.94l2.17-.86a8.58,8.58,0,0,0,.89,1.72c2.81,4,9,3.62,12.4,2A1.45,1.45,0,0,1,651.18,550.6Z"
       transform="translate(-445.5 -121.26)"
       id="path45462" />
    <path
       class="cls-4"
       d="M719.58,475.44a2,2,0,0,1-.82.46c-3,.79-5.18,1.45-5.18,1.45a5.25,5.25,0,0,0-5.75-2.34c-1.66-3-4.91-.41-4.91-.41-3-4.09-5.67-1.92-5.67-1.92a2.89,2.89,0,0,0-3.67-.83c-1.25-3.34-5.83-3.09-5.83-3.09a14.1,14.1,0,0,0,2,6.47,31.27,31.27,0,0,0,6.23,7.53c27.82-.19,21.75,5.17,21.75,5.17a3.73,3.73,0,0,0-3.42-2.17c.09,10.42-20.75,5.5-20.75,5.5-14.5-7.58-33.66-10.75-43.5-8.75s-13.75,4.09-21.75,14.75-8.58-1.25-8.58-1.25c3.15-7.38,8.75-13.75,6.17-21.75s-13.84-8.91-21.59-3.16-2.33,11.41-3.83,15-2,4.75-2,4.75l.27,0a12.12,12.12,0,0,0,10.85-11.73c.53-12,13.07-3.87,11.63,0-1.85,5-13.25,22.83-5.75,28S627.67,505,627.67,505c-2.75,19-13,18.59-10.92,21.09,1.48,1.78,7.6,11.46,9.55,19.1.79,3.06.9,5.8-.22,7.56-3.91,6.17,1.59,8.92,1.59,8.92-.5-8.25,7.5-8.25,7.58-4.5a11.41,11.41,0,0,1-2.58,6.83c6.16-1.75,6.66-8.08,7.66-6.41s-.58,5.75-.58,5.75c4.83-1.67,5.42-8,5.42-8,2.83-.5,2.5,6.33,2.5,6.33,4-4.92,4-8.89,3.51-11.08a1.45,1.45,0,0,0-2-1c-3.4,1.62-9.59,2-12.4-2a8.58,8.58,0,0,1-.89-1.72c-1.9-4.73-2.58-14.12-2.78-18.1a1.22,1.22,0,0,0-1.69-1.07c-4.52,1.93-3.22-1.28-3.22-1.28C641.58,522.26,655,508.1,657.42,507s10.66,1.34,10.66,1.34c27,24.33,41.17,22.66,41.17,22.66,5.25.17,3.67-9.58.75-14s-6.32-1.7-6.56.31,1.39,4.94,1.39,4.94c-5.91-1.91-4.08-10.91,1.59-10.08s8.75,8.42,8.66,13.42-3.33,10.33-3.33,10.33,8.33.75,12.67.08,18.16-6,18.16-6c-1.66,9.42,4.09,8.34,4.09,8.34-.25-3.25-.42-4.5,1.66-5.17a3.53,3.53,0,0,1,4.67,2.67c.25,2.08-3.42,4.91-3.42,4.91a12.39,12.39,0,0,0,8.17-2.66,14.77,14.77,0,0,1-2,4.91c5-1.16,6.92-6.75,7.83-6.83s.5,4.17.5,4.17c4.75-3.92,1.75-9.25,1.75-9.25-5.58-.34-12-1.75-15.11-5.34s-3.22-3.83-7.22-2.83-16.67,1-16.67,1c5.92-4.67,12.17-14.75,12.17-14.75,2.06-12.46-.5-20.41-1.92-23.62a3.08,3.08,0,0,1,.43-3.14c6.19-7.79,5.84-14.13,7.41-22.82,1.66-9.25,3.16-8.09,5.08-12.5a10.15,10.15,0,0,0-.58-8.59c-1,2.17-6,5.67-9.25,8.92s-1,10.59-.85,11.14c-3.71-7.32-8.25-4.78-9.27-6.71-2.12.88-5.11,1.79-6.86,1.69a30.32,30.32,0,0,1-5.42-.58,30.44,30.44,0,0,0-10.69,7.46c-1.66,2.17-12.25.83-12.25.83-6.16-2.08-8.66,3.67-7.33,3.17s4.92,0,4.92,0-3.25,1.92-1,2.58,7,0,7,0-4.09,2.25-.67,2.42a13.57,13.57,0,0,0,5.66-.82c-.13.22-1.74,3,.34,2.65a35.45,35.45,0,0,0,4.66-1.15c-.21.14-2.55,1.86-.16,2.82,1.88.75,4-.15,4.93-.64-.68.45-1.65,1.3.15,1.72,2.5.59,2.92-.66,5.25-1a2.6,2.6,0,0,1,.47,0,1,1,0,0,1,1,.79,1.67,1.67,0,0,1-.48,1.65"
       transform="translate(-445.5 -121.26)"
       id="path45464" />
    <path
       class="cls-4"
       d="M602.75,480.26a5,5,0,0,1,3.67-5.71C611,473.18,603.92,483,602.75,480.26Z"
       transform="translate(-445.5 -121.26)"
       id="path45466" />
    <path
       class="cls-4"
       d="M628,544.73c-1-4-2.66-10-2.66-10,3.12-4.79,4.93,13.83,5.81,14.27s2.5-2.25,2.5-2.25c.56,4.81-.13,4.81-2.31,4.94s-2-1.63-2.94-5.37C628.32,545.84,628.19,545.31,628,544.73Z"
       transform="translate(-445.5 -121.26)"
       id="path45468" />
    <path
       class="cls-4"
       d="M629.08,513.88a7.82,7.82,0,0,0-.53,2.39,4.32,4.32,0,0,0,1.07,3.54c.8.68.59,1.06.1,1.28a2,2,0,0,1-2.58-1c-.88-1.63-1.78-4.76.86-8.7,3.94-5.88,7.38-10.06,9.19-7.94S631.59,507.7,629.08,513.88Z"
       transform="translate(-445.5 -121.26)"
       id="path45470" />
    <path
       class="cls-4"
       d="M648.69,507.43a27.45,27.45,0,0,0-3-6.75s4.81,1.19,4.81,4.75S648.69,507.43,648.69,507.43Z"
       transform="translate(-445.5 -121.26)"
       id="path45472" />
    <path
       class="cls-4"
       d="M724.58,524.68c-1.66,2.42,2.59,7.75-5.75,7.83,0,0,3-2.58,3.34-4s-1.57-2.5-1.24-3.58,7.9-6.17,5.15-17.58-12.5-8-13.58-3.92c0,0-1.08-6.08,5.42-6.33s13.08,7,11.16,17.33S726.25,522.26,724.58,524.68Z"
       transform="translate(-445.5 -121.26)"
       id="path45474" />
    <path
       class="cls-4"
       d="M722,442.85a8.93,8.93,0,0,1-2.42-6.09c-4.17,3.86-1.92,10.91-.59,14.1l3.54-.18a8.5,8.5,0,0,1-1.09-2.75c1,1.5,3.25,1.12,3.75,2.62l4.24-.16C728,447.93,724.16,444.86,722,442.85Z"
       transform="translate(-445.5 -121.26)"
       id="path45476" />
    <path
       class="cls-5"
       d="M734.42,518.93s5.83-8.08,6.58-10c.68-1.73,7.25-1.83,12.26-5.62a2.63,2.63,0,0,1,3.22,0,34.68,34.68,0,0,0,18.77,7.09s3.17,7.83-3.33,10.08c0,0,.91-2.83.33-4.58,0,0-2.25,4.08-6.67,4.58,0,0,1.92-1.33,2-6,0,0-4.16,4.67-7.91,5,0,0,2.5-3.16,2.33-5.91s-7.83-3.25-5.75,4.25c0,0-3.67,1.16-5.17-5.34C751.08,512.51,737.58,521.93,734.42,518.93Z"
       transform="translate(-445.5 -121.26)"
       id="path45478" />
    <path
       class="cls-5"
       d="M664,553.35c1.36-.11,2.53.22,2.89,1.08,1.25,3-.92,6.25-.92,6.25,8.33-1.08,3.33-7.5,6.17-7.75s2.66,5.17,2.66,5.17c5.09-1.92,3.59-6.84,4.34-6.59s2.91,3,2.91,3c2-4.14-.17-7.56-1.92-9.44a2.17,2.17,0,0,0-3.13,0,12.92,12.92,0,0,1-5,3.39,5.07,5.07,0,0,1-5.64-1.87c-1.41-1.92-2.55-3.66-3.48-5.22-5-8.48-3.71-12.05-4.86-12.86-1.41-1-1.5.59-5.75,1.17s-3.91-3.83-3.91-3.83,4.25,2.83,8,1.33,10.91-16,10.41-17.08-7.08-1.34-7.08-1.34c-.1,2,2.17,4.92,2.17,4.92-2.92-.08-6.09-3.58-6.09-3.58-8.08,10.32-11.65,14.25-13.21,15.75a1.7,1.7,0,0,0-.18,2.27c9.54,12.56,15.11,13.87,14.14,22.56-1.17,10.53,3.09,10,3.09,10C656,556.58,660.64,553.62,664,553.35Z"
       transform="translate(-445.5 -121.26)"
       id="path45480" />
    <path
       class="cls-5"
       d="M664,551.8a3.94,3.94,0,0,1-.91-.11c-3-.69-1.87-3.45-2.37-5.2s-6.94-9.25-6.94-9.25c1.08-3.23,4.48.87,6.8,4.47a25.24,25.24,0,0,1,2.26,4.1,8.15,8.15,0,0,1,.31,2.36,1.87,1.87,0,0,0,1.21,1.66C665.79,550.43,665.65,551.8,664,551.8Z"
       transform="translate(-445.5 -121.26)"
       id="path45482" />
    <path
       class="cls-4"
       d="M694.83,461.26l-2.41,3.17s11-2.67,6,2.58c0,0,9.46-3.29,5.27,1.31a.09.09,0,0,0,0,.12.09.09,0,0,0,.09,0c1.87-.77,10.17-4,4.64,1.65,0,0,9.74-4.92,4.77,2.18,0,0,5.88-4.19,5.87.7"
       transform="translate(-445.5 -121.26)"
       id="path45484" />
    <path
       class="cls-4"
       d="M693.58,471.85s.76,1.31-1,2.4a8.29,8.29,0,0,1-2.8,1"
       transform="translate(-445.5 -121.26)"
       id="path45486" />
    <path
       class="cls-4"
       d="M692.57,474.25s1.92,1.5,3.38.59a3.27,3.27,0,0,0,1.3-2.16"
       transform="translate(-445.5 -121.26)"
       id="path45488" />
    <path
       class="cls-4"
       d="M702.92,474.6s.62,2.58-.42,3.21-1.18-2-6.55-3"
       transform="translate(-445.5 -121.26)"
       id="path45490" />
    <path
       class="cls-4"
       d="M702.5,477.81s3.27,1.53,4.7-.11a3.62,3.62,0,0,0,.63-2.69"
       transform="translate(-445.5 -121.26)"
       id="path45492" />
    <path
       class="cls-4"
       d="M707.2,477.7s4.44,2.73,5.91,1.13a2.08,2.08,0,0,0,.47-1.48"
       transform="translate(-445.5 -121.26)"
       id="path45494" />
    <path
       class="cls-4"
       d="M713.11,478.83s7.75,2.47,6.47-3.39h0"
       transform="translate(-445.5 -121.26)"
       id="path45496" />
    <path
       class="cls-6"
       d="M728.1,468.69a5.08,5.08,0,0,1-3,.08,3,3,0,0,1-2.27-3.9c.88-4.25,8.45-2.9,7.63,1.5A3.2,3.2,0,0,1,728.1,468.69Z"
       transform="translate(-445.5 -121.26)"
       id="path45498" />
    <path
       class="cls-6"
       d="M717.27,462.22c2.27-2.17,9.56-8.22,14.78-2.34a1,1,0,0,1-1.17,1.64l-.07,0c-2.3-1.09-7.47-1.83-12.44,2a.84.84,0,0,1-1,0h0A.83.83,0,0,1,717.27,462.22Z"
       transform="translate(-445.5 -121.26)"
       id="path45500" />
    <path
       class="cls-3"
       d="M599.27,367.21s-3.17,7.83,3.33,10.08c0,0-.91-2.83-.33-4.58,0,0,2.25,4.08,6.67,4.58,0,0-1.92-1.33-2-6,0,0,4.16,4.67,7.91,5,0,0-2.5-3.16-2.33-5.91s7.83-3.25,5.75,4.25c0,0,3.67,1.16,5.17-5.34,0,0,13.5,9.42,16.66,6.42,0,0-5.83-8.08-6.58-10-.68-1.73-7.25-1.83-12.26-5.62a2.63,2.63,0,0,0-3.22,0A34.68,34.68,0,0,1,599.27,367.21Z"
       transform="translate(-445.5 -121.26)"
       id="path45502" />
    <path
       class="cls-3"
       d="M649.33,307.33c.5-1.5,2.75-1.12,3.75-2.62a8.5,8.5,0,0,1-1.09,2.75l3.54.18c1.33-3.19,3.58-10.24-.59-14.1a8.93,8.93,0,0,1-2.42,6.09c-2.16,2-6,5.08-7.43,7.54Z"
       transform="translate(-445.5 -121.26)"
       id="path45504" />
    <path
       class="cls-2"
       d="M660.94,334.13s-2.18-.66-5.18-1.45a2,2,0,0,1-.82-.46c-1.28,5.86,6.47,3.39,6.47,3.39A2.08,2.08,0,0,1,660.94,334.13Z"
       transform="translate(-445.5 -121.26)"
       id="path45506" />
    <path
       class="cls-2"
       d="M661.34,329.07s-5.88-4.19-5.87.7a2.6,2.6,0,0,1,.47,0c2.33.34,2.75,1.59,5.25,1C663,330.37,662,329.52,661.34,329.07Z"
       transform="translate(-445.5 -121.26)"
       id="path45508" />
    <path
       class="cls-2"
       d="M667.32,334.48a3.62,3.62,0,0,1-.63-2.69,5.25,5.25,0,0,0-5.75,2.34,2.08,2.08,0,0,0,.47,1.48C662.88,337.21,667.32,334.48,667.32,334.48Z"
       transform="translate(-445.5 -121.26)"
       id="path45510" />
    <path
       class="cls-2"
       d="M666.27,329.71c2.39-1,0-2.68-.16-2.82,0,0-9.74-4.92-4.77,2.18C662.27,329.56,664.39,330.46,666.27,329.71Z"
       transform="translate(-445.5 -121.26)"
       id="path45512" />
    <path
       class="cls-2"
       d="M672,334.58c-1-.64-.41-3.2-.41-3.2s-3.25-2.59-4.91.41a3.62,3.62,0,0,0,.63,2.69C668.7,336.06,671.79,334.69,672,334.58Z"
       transform="translate(-445.5 -121.26)"
       id="path45514" />
    <path
       class="cls-2"
       d="M670.77,328c2.08.33.47-2.43.34-2.65l-.27-.17a.09.09,0,0,1-.09,0c-1.87-.77-10.17-4-4.64,1.65A35.45,35.45,0,0,0,670.77,328Z"
       transform="translate(-445.5 -121.26)"
       id="path45516" />
    <path
       class="cls-2"
       d="M671.11,325.39a13.57,13.57,0,0,0,5.66.82c3.42-.17-.67-2.42-.67-2.42s-9.46-3.29-5.27,1.31a.09.09,0,0,1,0,.12Z"
       transform="translate(-445.5 -121.26)"
       id="path45518" />
    <path
       class="cls-2"
       d="M671.6,331.38s-.62,2.56.41,3.2h0c1,.63,1.18-2,6.55-3a3.27,3.27,0,0,1-1.3-2.16S674.6,327.29,671.6,331.38Z"
       transform="translate(-445.5 -121.26)"
       id="path45520" />
    <path
       class="cls-2"
       d="M677.27,329.46a3.27,3.27,0,0,0,1.3,2.16c1.46.91,3.38-.59,3.38-.59-1.77-1.09-1-2.4-1-2.4A2.89,2.89,0,0,0,677.27,329.46Z"
       transform="translate(-445.5 -121.26)"
       id="path45522" />
    <path
       class="cls-2"
       d="M676.1,323.79s4.75.67,7,0-1-2.58-1-2.58S671.1,318.54,676.1,323.79Z"
       transform="translate(-445.5 -121.26)"
       id="path45524" />
    <path
       class="cls-2"
       d="M684.75,332a14.1,14.1,0,0,0,2-6.47s-4.58-.25-5.83,3.09c0,0-.76,1.31,1,2.4A8.29,8.29,0,0,0,684.75,332Z"
       transform="translate(-445.5 -121.26)"
       id="path45526" />
    <path
       class="cls-2"
       d="M682.1,321.21s3.59-.5,4.92,0-1.17-5.25-7.33-3.17Z"
       transform="translate(-445.5 -121.26)"
       id="path45528" />
    <path
       class="cls-3"
       d="M695.35,408.29c.75-.25-.75,4.67,4.34,6.59,0,0-.17-5.42,2.66-5.17s-2.16,6.67,6.17,7.75c0,0-2.17-3.25-.92-6.25.36-.86,1.53-1.19,2.89-1.08l.06-1.55c-1.68,0-1.82-1.37-.36-2A1.87,1.87,0,0,0,711.4,405a8.15,8.15,0,0,1,.31-2.36,25.24,25.24,0,0,1,2.26-4.1l-2.39-.34c-.93,1.56-2.07,3.3-3.48,5.22a5.07,5.07,0,0,1-5.64,1.87,12.92,12.92,0,0,1-5-3.39,2.17,2.17,0,0,0-3.13,0c-1.75,1.88-3.94,5.3-1.92,9.44C692.44,411.29,694.6,408.54,695.35,408.29Z"
       transform="translate(-445.5 -121.26)"
       id="path45530" />
    <path
       class="cls-3"
       d="M717.94,407.46c-1-8.69,4.6-10,14.14-22.56a1.7,1.7,0,0,0-.18-2.27c-1.56-1.5-5.13-5.43-13.21-15.75,0,0-3.17,3.5-6.09,3.58,0,0,2.27-2.91,2.17-4.92,0,0-6.58.25-7.08,1.34s6.66,15.58,10.41,17.08,8-1.33,8-1.33.34,4.41-3.91,3.83-4.34-2.17-5.75-1.17c-1.15.81.15,4.38-4.86,12.86l2.39.34c2.32-3.6,5.72-7.7,6.8-4.47,0,0-6.44,7.5-6.94,9.25s.63,4.51-2.37,5.2a3.94,3.94,0,0,1-.91.11l-.06,1.55c3.39.27,8,3.23,4.36,7.33C714.85,417.46,719.11,418,717.94,407.46Z"
       transform="translate(-445.5 -121.26)"
       id="path45532" />
    <path
       class="cls-3"
       d="M748.44,409.54c-1.12-1.76-1-4.5-.22-7.56l-1.74-.47c-.15.58-.28,1.11-.4,1.58-.94,3.74-.75,5.5-2.94,5.37s-2.87-.13-2.31-4.94l-2.17-.86a8.58,8.58,0,0,1-.89,1.72c-2.81,4-9,3.62-12.4,2a1.45,1.45,0,0,0-2,1c-.49,2.19-.49,6.16,3.51,11.08,0,0-.33-6.83,2.5-6.33,0,0,.59,6.33,5.42,8,0,0-1.58-4.09-.58-5.75s1.5,4.66,7.66,6.41a11.41,11.41,0,0,1-2.58-6.83c.08-3.75,8.08-3.75,7.58,4.5C746.85,418.46,752.35,415.71,748.44,409.54Z"
       transform="translate(-445.5 -121.26)"
       id="path45534" />
    <path
       class="cls-3"
       d="M774.3,337.39l-2.53-.35c-.77,1.85-4.12-1.85-5-4.16l-2.36,0a11.77,11.77,0,0,1,.47,3,12.12,12.12,0,0,0,10.85,11.73l.27,0s-.5-1.17-2-4.75C773.39,341.37,774,339.49,774.3,337.39Z"
       transform="translate(-445.5 -121.26)"
       id="path45536" />
    <path
       class="cls-3"
       d="M724,362.21c0-3.56,4.81-4.75,4.81-4.75a27.45,27.45,0,0,0-3,6.75S724,365.77,724,362.21Zm22.5,6c2.64,3.94,1.74,7.07.86,8.7a2,2,0,0,1-2.58,1c-.49-.22-.7-.6.1-1.28a4.32,4.32,0,0,0,1.07-3.54,7.82,7.82,0,0,0-.53-2.39c-2.51-6.18-9.85-8.34-8.11-10.39S742.58,362.33,746.52,368.21Zm-98.08-4.08c-2.75,11.41,4.83,16.5,5.15,17.58s-1.57,2.17-1.24,3.58,3.34,4,3.34,4c-8.34-.08-4.09-5.41-5.75-7.83s-2.59.08-4.5-10.25,4.66-17.58,11.16-17.33,5.42,6.33,5.42,6.33C660.94,356.13,651.19,352.71,648.44,364.13ZM669.69,379s1.64-2.85,1.39-4.94-3.64-4.72-6.56-.31-4.5,14.17.75,14c0,0,14.17,1.67,41.17-22.66,0,0,8.25-2.42,10.66-1.34s15.84,15.25,29.25,18.42c0,0,1.3,3.21-3.22,1.28a1.22,1.22,0,0,0-1.69,1.07c-.2,4-.88,13.37-2.78,18.1l2.17.86s1.63,2.69,2.5,2.25,2.69-19.06,5.81-14.27c0,0-1.62,6-2.66,10l1.74.47c1.95-7.64,8.07-17.32,9.55-19.1,2.08-2.5-8.17-2.09-10.92-21.09,0,0,4.67,7.25,12.17,2.09s-3.9-23-5.75-28c-1.3-3.5,8.79-10.5,11.16-3l2.36,0c-.44-1.19-.23-2,1.31-1.55a5,5,0,0,1,3.67,5.71l2.53.35c.45-2.88.38-6.18-4.11-9.51-7.75-5.75-19-4.84-21.59,3.16s3,14.37,6.17,21.75c0,0-.58,11.92-8.58,1.25s-11.92-12.75-21.75-14.75-29,1.17-43.5,8.75c0,0-20.84,4.92-20.75-5.5a3.73,3.73,0,0,0-3.42,2.17s-6.07-5.36,21.75-5.17a31.27,31.27,0,0,0,6.23-7.53,8.29,8.29,0,0,1-2.8-1s-1.92,1.5-3.38.59c-5.37,1-5.51,3.59-6.55,3h0c-.22.11-3.31,1.48-4.69-.1,0,0-4.44,2.73-5.91,1.13,0,0-7.75,2.47-6.47-3.39h0a1.67,1.67,0,0,1-.48-1.65,1,1,0,0,1,1-.79c0-4.89,5.87-.7,5.87-.7-5-7.1,4.77-2.18,4.77-2.18-5.53-5.67,2.77-2.42,4.64-1.65a.09.09,0,0,0,.09,0,.09.09,0,0,0,0-.12c-4.19-4.6,5.27-1.31,5.27-1.31-5-5.25,6-2.58,6-2.58L679.69,318s-10.59,1.34-12.25-.83a30.44,30.44,0,0,0-10.69-7.46,30.32,30.32,0,0,1-5.42.58c-1.75.1-4.74-.81-6.86-1.69-1,1.93-5.56-.61-9.27,6.71.16-.55,2.28-8-.85-11.14s-8.25-6.75-9.25-8.92a10.15,10.15,0,0,0-.58,8.59c1.92,4.41,3.42,3.25,5.08,12.5,1.57,8.69,1.22,15,7.41,22.82a3.08,3.08,0,0,1,.43,3.14c-1.42,3.21-4,11.16-1.92,23.62,0,0,6.25,10.08,12.17,14.75,0,0-12.67,0-16.67-1s-4.11-.75-7.22,2.83-9.53,5-15.11,5.34c0,0-3,5.33,1.75,9.25,0,0-.42-4.25.5-4.17s2.83,5.67,7.83,6.83a14.77,14.77,0,0,1-2-4.91,12.39,12.39,0,0,0,8.17,2.66s-3.67-2.83-3.42-4.91a3.53,3.53,0,0,1,4.67-2.67c2.08.67,1.91,1.92,1.66,5.17,0,0,5.75,1.08,4.09-8.34,0,0,13.83,5.34,18.16,6s12.67-.08,12.67-.08-3.25-5.33-3.33-10.33,3-12.59,8.66-13.42S675.6,377.13,669.69,379Z"
       transform="translate(-445.5 -121.26)"
       id="path45538" />
    <path
       class="cls-4"
       d="M654.94,332.21a1.67,1.67,0,0,1-.48-1.65,1,1,0,0,1,1-.79,2.6,2.6,0,0,1,.47,0c2.33.34,2.75,1.59,5.25,1,1.8-.42.83-1.27.15-1.72.93.49,3,1.39,4.93.64,2.39-1,0-2.68-.16-2.82a35.45,35.45,0,0,0,4.66,1.15c2.08.33.47-2.43.34-2.65a13.57,13.57,0,0,0,5.66.82c3.42-.17-.67-2.42-.67-2.42s4.75.67,7,0-1-2.58-1-2.58,3.59-.5,4.92,0-1.17-5.25-7.33-3.17c0,0-10.59,1.34-12.25-.83a30.44,30.44,0,0,0-10.69-7.46,30.32,30.32,0,0,1-5.42.58c-1.75.1-4.74-.81-6.86-1.69-1,1.93-5.56-.61-9.27,6.71.16-.55,2.28-8-.85-11.14s-8.25-6.75-9.25-8.92a10.15,10.15,0,0,0-.58,8.59c1.92,4.41,3.42,3.25,5.08,12.5,1.57,8.69,1.22,15,7.41,22.82a3.08,3.08,0,0,1,.43,3.14c-1.42,3.21-4,11.16-1.92,23.62,0,0,6.25,10.08,12.17,14.75,0,0-12.67,0-16.67-1s-4.11-.75-7.22,2.83-9.53,5-15.11,5.34c0,0-3,5.33,1.75,9.25,0,0-.42-4.25.5-4.17s2.83,5.67,7.83,6.83a14.77,14.77,0,0,1-2-4.91,12.39,12.39,0,0,0,8.17,2.66s-3.67-2.83-3.42-4.91a3.53,3.53,0,0,1,4.67-2.67c2.08.67,1.91,1.92,1.66,5.17,0,0,5.75,1.08,4.09-8.34,0,0,13.83,5.34,18.16,6s12.67-.08,12.67-.08-3.25-5.33-3.33-10.33,3-12.59,8.66-13.42,7.5,8.17,1.59,10.08c0,0,1.64-2.85,1.39-4.94s-3.64-4.72-6.56-.31-4.5,14.17.75,14c0,0,14.17,1.67,41.17-22.66,0,0,8.25-2.42,10.66-1.34s15.84,15.25,29.25,18.42c0,0,1.3,3.21-3.22,1.28a1.22,1.22,0,0,0-1.69,1.07c-.2,4-.88,13.37-2.78,18.1a8.58,8.58,0,0,1-.89,1.72c-2.81,4-9,3.62-12.4,2a1.45,1.45,0,0,0-2,1c-.49,2.19-.49,6.16,3.51,11.08,0,0-.33-6.83,2.5-6.33,0,0,.59,6.33,5.42,8,0,0-1.58-4.09-.58-5.75s1.5,4.66,7.66,6.41a11.41,11.41,0,0,1-2.58-6.83c.08-3.75,8.08-3.75,7.58,4.5,0,0,5.5-2.75,1.59-8.92-1.12-1.76-1-4.5-.22-7.56,1.95-7.64,8.07-17.32,9.55-19.1,2.08-2.5-8.17-2.09-10.92-21.09,0,0,4.67,7.25,12.17,2.09s-3.9-23-5.75-28c-1.3-3.5,8.79-10.5,11.16-3a11.77,11.77,0,0,1,.47,3,12.12,12.12,0,0,0,10.85,11.73l.27,0s-.5-1.17-2-4.75c-.63-1.51,0-3.39.28-5.49.45-2.88.38-6.18-4.11-9.51-7.75-5.75-19-4.84-21.59,3.16s3,14.37,6.17,21.75c0,0-.58,11.92-8.58,1.25s-11.92-12.75-21.75-14.75-29,1.17-43.5,8.75c0,0-20.84,4.92-20.75-5.5a3.73,3.73,0,0,0-3.42,2.17s-6.07-5.36,21.75-5.17a31.27,31.27,0,0,0,6.23-7.53,14.1,14.1,0,0,0,2-6.47s-4.58-.25-5.83,3.09a2.89,2.89,0,0,0-3.67.83s-2.67-2.17-5.67,1.92c0,0-3.25-2.59-4.91.41a5.25,5.25,0,0,0-5.75,2.34s-2.18-.66-5.18-1.45a2,2,0,0,1-.82-.46"
       transform="translate(-445.5 -121.26)"
       id="path45540" />
    <path
       class="cls-4"
       d="M766.79,332.88c-.44-1.19-.23-2,1.31-1.55a5,5,0,0,1,3.67,5.71C771,338.89,767.65,335.19,766.79,332.88Z"
       transform="translate(-445.5 -121.26)"
       id="path45542" />
    <path
       class="cls-4"
       d="M740.83,403.52s1.63,2.69,2.5,2.25,2.69-19.06,5.81-14.27c0,0-1.62,6-2.66,10-.15.58-.28,1.11-.4,1.58-.94,3.74-.75,5.5-2.94,5.37S740.27,408.33,740.83,403.52Z"
       transform="translate(-445.5 -121.26)"
       id="path45544" />
    <path
       class="cls-4"
       d="M737.33,360.27c1.81-2.12,5.25,2.06,9.19,7.94,2.64,3.94,1.74,7.07.86,8.7a2,2,0,0,1-2.58,1c-.49-.22-.7-.6.1-1.28a4.32,4.32,0,0,0,1.07-3.54,7.82,7.82,0,0,0-.53-2.39C742.93,364.48,735.59,362.32,737.33,360.27Z"
       transform="translate(-445.5 -121.26)"
       id="path45546" />
    <path
       class="cls-4"
       d="M724,362.21c0-3.56,4.81-4.75,4.81-4.75a27.45,27.45,0,0,0-3,6.75S724,365.77,724,362.21Z"
       transform="translate(-445.5 -121.26)"
       id="path45548" />
    <path
       class="cls-4"
       d="M645.44,371.21c-1.92-10.33,4.66-17.58,11.16-17.33s5.42,6.33,5.42,6.33c-1.08-4.08-10.83-7.5-13.58,3.92s4.83,16.5,5.15,17.58-1.57,2.17-1.24,3.58,3.34,4,3.34,4c-8.34-.08-4.09-5.41-5.75-7.83S647.35,381.54,645.44,371.21Z"
       transform="translate(-445.5 -121.26)"
       id="path45550" />
    <path
       class="cls-4"
       d="M645.09,307.17l4.24.16c.5-1.5,2.75-1.12,3.75-2.62a8.5,8.5,0,0,1-1.09,2.75l3.54.18c1.33-3.19,3.58-10.24-.59-14.1a8.93,8.93,0,0,1-2.42,6.09C650.36,301.64,646.53,304.71,645.09,307.17Z"
       transform="translate(-445.5 -121.26)"
       id="path45552" />
    <path
       class="cls-5"
       d="M640.1,375.71s-5.83-8.08-6.58-10c-.68-1.73-7.25-1.83-12.26-5.62a2.63,2.63,0,0,0-3.22,0,34.68,34.68,0,0,1-18.77,7.09s-3.17,7.83,3.33,10.08c0,0-.91-2.83-.33-4.58,0,0,2.25,4.08,6.67,4.58,0,0-1.92-1.33-2-6,0,0,4.16,4.67,7.91,5,0,0-2.5-3.16-2.33-5.91s7.83-3.25,5.75,4.25c0,0,3.67,1.16,5.17-5.34C623.44,369.29,636.94,378.71,640.1,375.71Z"
       transform="translate(-445.5 -121.26)"
       id="path45554" />
    <path
       class="cls-5"
       d="M711.58,398.15c-.93,1.56-2.07,3.3-3.48,5.22a5.07,5.07,0,0,1-5.64,1.87,12.92,12.92,0,0,1-5-3.39,2.17,2.17,0,0,0-3.13,0c-1.75,1.88-3.94,5.3-1.92,9.44,0,0,2.16-2.75,2.91-3s-.75,4.67,4.34,6.59c0,0-.17-5.42,2.66-5.17s-2.16,6.67,6.17,7.75c0,0-2.17-3.25-.92-6.25.36-.86,1.53-1.19,2.89-1.08,3.39.27,8,3.23,4.36,7.33,0,0,4.26.53,3.09-10-1-8.69,4.6-10,14.14-22.56a1.7,1.7,0,0,0-.18-2.27c-1.56-1.5-5.13-5.43-13.21-15.75,0,0-3.17,3.5-6.09,3.58,0,0,2.27-2.91,2.17-4.92,0,0-6.58.25-7.08,1.34s6.66,15.58,10.41,17.08,8-1.33,8-1.33.34,4.41-3.91,3.83-4.34-2.17-5.75-1.17C715.29,386.1,716.59,389.67,711.58,398.15Z"
       transform="translate(-445.5 -121.26)"
       id="path45556" />
    <path
       class="cls-5"
       d="M710.55,408.58c-1.68,0-1.82-1.37-.36-2A1.87,1.87,0,0,0,711.4,405a8.15,8.15,0,0,1,.31-2.36,25.24,25.24,0,0,1,2.26-4.1c2.32-3.6,5.72-7.7,6.8-4.47,0,0-6.44,7.5-6.94,9.25s.63,4.51-2.37,5.2A3.94,3.94,0,0,1,710.55,408.58Z"
       transform="translate(-445.5 -121.26)"
       id="path45558" />
    <path
       class="cls-4"
       d="M679.69,318l2.41,3.17s-11-2.67-6,2.58c0,0-9.46-3.29-5.27,1.31a.09.09,0,0,1,0,.12.09.09,0,0,1-.09,0c-1.87-.77-10.17-4-4.64,1.65,0,0-9.74-4.92-4.77,2.18,0,0-5.88-4.19-5.87.7"
       transform="translate(-445.5 -121.26)"
       id="path45560" />
    <path
       class="cls-4"
       d="M680.94,328.63s-.76,1.31,1,2.4a8.29,8.29,0,0,0,2.8,1"
       transform="translate(-445.5 -121.26)"
       id="path45562" />
    <path
       class="cls-4"
       d="M682,331s-1.92,1.5-3.38.59a3.27,3.27,0,0,1-1.3-2.16"
       transform="translate(-445.5 -121.26)"
       id="path45564" />
    <path
       class="cls-4"
       d="M672,334.58c1,.63,1.18-2,6.55-3"
       transform="translate(-445.5 -121.26)"
       id="path45566" />
    <path
       class="cls-4"
       d="M671.6,331.38s-.62,2.56.41,3.2"
       transform="translate(-445.5 -121.26)"
       id="path45568" />
    <path
       class="cls-4"
       d="M672,334.58h0c-.22.11-3.31,1.48-4.69-.1a3.62,3.62,0,0,1-.63-2.69"
       transform="translate(-445.5 -121.26)"
       id="path45570" />
    <path
       class="cls-4"
       d="M667.32,334.48s-4.44,2.73-5.91,1.13a2.08,2.08,0,0,1-.47-1.48"
       transform="translate(-445.5 -121.26)"
       id="path45572" />
    <path
       class="cls-4"
       d="M661.41,335.61s-7.75,2.47-6.47-3.39h0"
       transform="translate(-445.5 -121.26)"
       id="path45574" />
    <path
       class="cls-6"
       d="M646.42,325.47a5.08,5.08,0,0,0,3,.08,3,3,0,0,0,2.27-3.9c-.87-4.25-8.45-2.9-7.62,1.5A3.2,3.2,0,0,0,646.42,325.47Z"
       transform="translate(-445.5 -121.26)"
       id="path45576" />
    <path
       class="cls-6"
       d="M657.25,319c-2.27-2.17-9.56-8.22-14.78-2.34a1,1,0,0,0,1.17,1.64l.07,0c2.3-1.09,7.47-1.83,12.44,2a.84.84,0,0,0,1,0h0A.83.83,0,0,0,657.25,319Z"
       transform="translate(-445.5 -121.26)"
       id="path45578" />
  </g>
  <g
     id="Layer_3"
     data-name="Layer 3">
    <path
       class="cls-7"
       d="M927,122.76V328.6a313.88,313.88,0,0,1-2.28,38c-.11.93-.24,1.86-.36,2.79,0,.2,0,.4-.08.59-.09.74-.19,1.47-.31,2.2-.46,3.37-1,6.69-1.6,10-.07.44-.15.87-.23,1.31-.16.8-.29,1.6-.45,2.4s-.34,1.79-.51,2.69l-.45,2.22-.24,1.15c-.15.71-.3,1.44-.46,2.15-.54,2.37-1.07,4.71-1.61,7l-.58,2.32-.52,2q-1.53,5.88-3.27,11.61c-.29,1-.59,1.94-.9,2.92l-.6,1.88c-.2.63-.4,1.24-.61,1.86-.37,1.09-.73,2.17-1.1,3.25s-.68,2-1,3c-.47,1.28-.93,2.56-1.39,3.81-.36,1-.73,2-1.11,3l-.19.5c-.43,1.14-.87,2.25-1.32,3.36s-.87,2.17-1.31,3.2c0,.15-.12.28-.18.42-.4,1-.8,2-1.25,3s-.76,1.75-1.13,2.62l-.66,1.49c-.48,1.07-1,2.11-1.44,3.15s-.9,2-1.36,2.93l-1,2.12c-.29.63-.6,1.25-.91,1.87-.63,1.33-1.31,2.64-2,4q-2.52,5-5.19,9.77l-2,3.57-.12.21c-1.42,2.47-2.86,4.92-4.33,7.33-.71,1.2-1.46,2.4-2.18,3.54-.11.16-.2.32-.3.47-.55.89-1.12,1.78-1.69,2.66l-.65,1c-.65,1-1.31,2-2,3l-.13.18c-.65,1-1.31,2-2,3l-.45.67q-2.25,3.29-4.54,6.46l-.31.43c-.8,1.07-1.54,2.14-2.31,3.19s-1.66,2.23-2.5,3.32c-1.52,2-3.06,4-4.61,6l-.81,1q-1.09,1.39-2.22,2.76L854,526.61l-.57.69c-.8.94-1.6,1.87-2.41,2.8q-2.82,3.32-5.72,6.53c-.75.85-1.52,1.69-2.29,2.51s-1.47,1.6-2.22,2.4q-3,3.2-5.93,6.24-2.76,2.82-5.53,5.59c-.92.91-1.84,1.82-2.76,2.71s-1.85,1.78-2.79,2.66l-2.28,2.12c-.68.65-1.36,1.28-2,1.91a449.24,449.24,0,0,1-61.76,47.47c-.86.55-1.72,1.1-2.57,1.6q-6.43,4.06-12.47,7.63l-2.41,1.4-2.36,1.37-2.33,1.34-2.23,1.29c-8.34,4.68-15.9,8.59-22.38,11.76l-1.6.8c-10.64,5.15-18.12,8.22-21,9.35l-.42.17-.61.24-.14,0h-.08l-.23-.09-.21,0-1.07-.42-.54-.23c-.87-.34-2-.8-3.37-1.38l-.46-.18c-1.76-.8-3.89-1.67-6.33-2.77l-1.39-.61a442.25,442.25,0,0,1-39.75-20.6c-.8-.44-1.6-.92-2.35-1.38a474,474,0,0,1-44.78-30l-2.63-2c-1-.75-2-1.51-2.94-2.29l-2.81-2.21c-6.19-4.92-12.43-10.15-18.64-15.69L558.08,566q-2.31-2.05-4.59-4.2l-1.67-1.57L550,558.54l-2-1.94c-1.12-1.07-2.23-2.17-3.33-3.27-.85-.79-1.69-1.66-2.52-2.5l-.24-.26c-.84-.83-1.67-1.67-2.5-2.51-.66-.68-1.32-1.36-2-2l-2-2.06-.13-.15-2.1-2.25q-3.36-3.6-6.66-7.36c-.68-.79-1.36-1.54-2.05-2.34-.57-.65-1.12-1.29-1.66-1.94q-1-1.2-2-2.4-4.28-5.1-8.39-10.48c-.76-1-1.5-1.93-2.24-2.92-1.89-2.47-3.73-5-5.57-7.55-.55-.8-1.12-1.59-1.68-2.39-.13-.16-.24-.34-.36-.5-.59-.86-1.19-1.7-1.77-2.56-.94-1.38-1.89-2.77-2.81-4.17-.74-1.09-1.47-2.2-2.19-3.31a1,1,0,0,0-.15-.24l-2.22-3.48-.22-.36c-.7-1.14-1.41-2.27-2.1-3.4s-1.49-2.46-2.21-3.71-1.43-2.39-2.13-3.67q-4.61-8-8.77-16.46c-.35-.69-.69-1.38-1-2.09-.22-.44-.44-.88-.65-1.35-.43-.87-.8-1.74-1.25-2.63a25.91,25.91,0,0,1-1.15-2.47l-.23-.48c-.27-.58-.53-1.16-.81-1.75l-.26-.57c-.27-.59-.52-1.19-.8-1.78q-1.44-3.25-2.79-6.57c-.42-1-.8-2-1.23-3.08-.1-.25-.21-.52-.31-.79-.4-1-.8-2-1.16-3s-.69-1.82-1-2.74l-.24-.65c-.17-.44-.33-.91-.49-1.35q-1-2.7-1.9-5.44c-.21-.6-.4-1.2-.6-1.8-.26-.8-.51-1.54-.75-2.32-.14-.41-.27-.8-.4-1.22-.25-.8-.49-1.59-.75-2.39-.31-1-.61-2.06-.92-3.11-.19-.64-.39-1.28-.57-1.95-.37-1.29-.74-2.58-1.09-3.89-.19-.68-.37-1.35-.55-2-.13-.5-.27-1-.4-1.51-.32-1.22-.62-2.45-.92-3.7-.18-.7-.34-1.4-.52-2.11-.07-.28-.13-.56-.19-.85-.37-1.55-.72-3.11-1.07-4.69-.26-1.16-.5-2.33-.74-3.5-.13-.71-.29-1.43-.42-2.14s-.32-1.59-.48-2.45a1.86,1.86,0,0,0-.09-.47c-.16-.8-.3-1.64-.45-2.48s-.32-1.84-.48-2.77-.29-1.8-.45-2.71q-.57-3.7-1.07-7.47c-.17-1.23-.33-2.47-.48-3.71A312.7,312.7,0,0,1,447,328.58V122.76Z"
       transform="translate(-445.5 -121.26)"
       id="path45581" />
  </g>
  <path
     id="shine"
     d="M 1.5799998,0.6840334 V 207.06091 c 0,229.66454 239.9200002,319.6031 239.9200002,319.6031 0,0 239.92,-89.93856 239.92,-319.6031 V 0.6840334 Z"
     style="fill:url(#rg);stroke:#000000;stroke-width:2.41218" />
</svg>
