<?xml version="1.0" encoding="UTF-8"?>
<svg xmlns="http://www.w3.org/2000/svg" width="361.7" height="396.4" version="1.1" xmlns:i="http://ns.adobe.com/AdobeIllustrator/10.0/" xmlns:inkscape="http://www.inkscape.org/namespaces/inkscape" xmlns:sodipodi="http://sodipodi.sourceforge.net/DTD/sodipodi-0.dtd" xmlns:svg="http://www.w3.org/2000/svg" xmlns:xlink="http://www.w3.org/1999/xlink" viewBox="0 0 361.7 396.4">
  <!-- Generator: Adobe Illustrator 30.2.1, SVG Export Plug-In . SVG Version: 2.1.1 Build 1)  -->
  <defs>
    <radialGradient id="radial-gradient" cx="730.5" cy="-47.2" fx="730.5" fy="-47.2" r="405" gradientTransform="translate(-308.5 103.8) scale(.6 -.6)" gradientUnits="userSpaceOnUse">
      <stop offset="0" stop-color="#fff" stop-opacity=".3"/>
      <stop offset=".2" stop-color="#fff" stop-opacity=".2"/>
      <stop offset=".6" stop-color="#666" stop-opacity=".1"/>
      <stop offset="1" stop-color="#000" stop-opacity=".1"/>
    </radialGradient>
  </defs>
  <g id="svg1" inkscape:version="1.3.2 (091e20e, 2023-11-25, custom)">
    <sodipodi:namedview id="namedview1" bordercolor="#000000" borderopacity="0.25" inkscape:current-layer="layer1" inkscape:cx="-24.314506" inkscape:cy="351.88493" inkscape:deskcolor="#d1d1d1" inkscape:document-units="mm" inkscape:pagecheckerboard="0" inkscape:pageopacity="0.0" inkscape:showpageshadow="2" inkscape:window-height="1009" inkscape:window-maximized="1" inkscape:window-width="2560" inkscape:window-x="-8" inkscape:window-y="-8" inkscape:zoom="0.74029882" pagecolor="#ffffff"/>
    <path id="path8-6" d="M360.8,1.5v154.4c0,9.5-.6,19-1.7,28.5,0,.7-.2,1.4-.3,2.1,0,.7-.2,1.4-.3,2.1-.4,2.5-.8,5-1.2,7.5,0,.3-.1.7-.2,1-.1.6-.2,1.2-.3,1.8-.1.6-.3,1.4-.4,2l-.3,1.7-.2.9c-.1.5-.2,1.1-.4,1.6-.4,1.8-.8,3.5-1.2,5.2l-.4,1.7-.4,1.5c-.8,2.9-1.6,5.8-2.5,8.7-.2.8-.4,1.5-.7,2.2l-.5,1.4c-.1.5-.3.9-.5,1.4l-.8,2.4c-.3.8-.5,1.5-.8,2.2-.4,1-.7,1.9-1,2.9-.3.8-.5,1.5-.8,2.2v.4c-.5.9-.8,1.7-1.1,2.5s-.7,1.6-1,2.4c0,.1,0,.2-.1.3-.3.8-.6,1.5-.9,2.2-.3.8-.6,1.3-.8,2l-.5,1.1c-.4.8-.7,1.6-1.1,2.4-.4.8-.7,1.5-1,2.2l-.8,1.6c-.2.5-.5.9-.7,1.4-.5,1-1,2-1.5,3-1.3,2.5-2.6,4.9-3.9,7.3l-1.5,2.6v.2c-1.1,1.9-2.2,3.7-3.3,5.5-.5.9-1.1,1.8-1.6,2.7,0,.1-.1.2-.2.3-.4.7-.8,1.3-1.3,2l-.5.8c-.5.8-1,1.5-1.5,2.2h0c-.5.9-1,1.6-1.5,2.4l-.3.5c-1.1,1.6-2.3,3.3-3.4,4.8l-.2.3c-.6.8-1.2,1.6-1.7,2.4s-1.2,1.7-1.9,2.5c-1.1,1.5-2.3,3-3.5,4.5l-.6.8c-.5.7-1.1,1.4-1.7,2.1l-1.7,2.1-.4.5-1.8,2.1c-1.4,1.7-2.8,3.3-4.3,4.9-.6.6-1.1,1.3-1.7,1.9l-1.7,1.8c-1.5,1.6-3,3.2-4.4,4.7-1.4,1.4-2.8,2.8-4.1,4.2-.7.7-1.4,1.4-2.1,2-.7.7-1.4,1.3-2.1,2l-1.7,1.6c-.5.5-1,1-1.5,1.4-14.4,13.2-29.9,25.1-46.3,35.6-.6.4-1.3.8-1.9,1.2-3.2,2-6.3,3.9-9.3,5.7l-1.8,1-1.8,1-1.8,1-1.7,1c-6.3,3.5-11.9,6.4-16.8,8.8l-1.2.6c-8,3.9-13.6,6.2-15.8,7h-.3c0,.1-.5.3-.5.3h-.1s0,0,0,0h-.2c0,0-.2,0-.2,0l-.8-.3-.4-.2c-.7-.3-1.5-.6-2.5-1h-.4c-1.3-.7-2.9-1.4-4.7-2.2l-1-.5c-10.2-4.6-20.1-9.8-29.8-15.5-.6-.3-1.2-.7-1.8-1-11.6-6.9-22.8-14.4-33.6-22.5l-2-1.5c-.7-.6-1.5-1.1-2.2-1.7l-2.1-1.7c-4.6-3.7-9.3-7.6-14-11.8l-1.1-1c-1.1-1-2.3-2.1-3.4-3.2l-1.3-1.2-1.4-1.3-1.5-1.5c-.8-.8-1.7-1.6-2.5-2.4-.6-.6-1.3-1.3-1.9-1.9l-.2-.2c-.6-.6-1.2-1.3-1.9-1.9-.5-.5-1-1-1.5-1.5l-1.5-1.6h0c0-.1-1.6-1.8-1.6-1.8-1.7-1.8-3.3-3.6-5-5.5-.5-.6-1-1.2-1.5-1.8-.4-.5-.8-1-1.2-1.5l-1.5-1.8c-2.1-2.6-4.2-5.2-6.3-7.9-.6-.7-1.1-1.5-1.7-2.2-1.4-1.9-2.8-3.8-4.2-5.7l-1.3-1.8c0-.1-.2-.3-.3-.4-.4-.6-.9-1.3-1.3-1.9-.7-1-1.4-2.1-2.1-3.1-.6-.8-1.1-1.6-1.6-2.5v-.2c-.1,0-1.8-2.7-1.8-2.7,0,0-.1-.2-.2-.3-.5-.9-1.1-1.7-1.6-2.6s-1.1-1.8-1.7-2.8c-.5-.9-1.1-1.8-1.6-2.8-2.3-4-4.5-8.1-6.6-12.4-.3-.5-.5-1-.7-1.6-.2-.3-.3-.7-.5-1-.3-.7-.6-1.3-.9-2-.3-.6-.6-1.2-.9-1.9l-.2-.4c-.2-.4-.4-.9-.6-1.3l-.2-.4c-.2-.4-.4-.9-.6-1.3-.7-1.6-1.4-3.3-2.1-4.9-.3-.8-.6-1.5-.9-2.3,0-.2-.2-.4-.2-.6-.3-.8-.6-1.5-.9-2.2-.3-.8-.5-1.4-.7-2.1l-.2-.5c-.1-.3-.3-.7-.4-1-.5-1.3-1-2.7-1.4-4.1-.2-.5-.3-.9-.4-1.4-.2-.6-.4-1.2-.6-1.7-.1-.3-.2-.6-.3-.9-.2-.6-.4-1.2-.6-1.8-.2-.8-.5-1.5-.7-2.3-.1-.5-.3-1-.4-1.5-.3-1-.6-1.9-.8-2.9-.1-.5-.3-1-.4-1.5,0-.4-.2-.8-.3-1.1-.2-.9-.5-1.8-.7-2.8-.1-.5-.3-1.1-.4-1.6,0-.2,0-.4-.1-.6-.3-1.2-.5-2.3-.8-3.5-.2-.9-.4-1.7-.6-2.6-.1-.5-.2-1.1-.3-1.6-.1-.5-.2-1.2-.4-1.8,0-.1,0-.2,0-.4-.1-.6-.2-1.2-.3-1.9-.1-.6-.2-1.4-.4-2.1-.1-.7-.2-1.4-.3-2-.4-2.8-.8-5.6-1.2-8.4-1.1-9.4-1.7-18.8-1.7-28.3V1.5h359.9Z" style="fill: #ba5c26;"/>
    <g id="g1">
      <g>
        <g>
          <path d="M160.1,246.6c-.2,0-.4,0-.6-.3-1.3-1.6-.9-3.8-.4-5.9.5-2.6,1-5.1-1-6.7-4.1-3.4-6.3-6.9-3.8-13,1.3-3.1-.6-8.6-1.4-10.8h0c0-.3-.1-.5-.2-.7l-.2-.5c0-.1,0-.2-.1-.3-.1-.3,0-.7.2-.9.1-.1.3-.2.5-.2s.3,0,.4.1h0c3.1,1.4,10,5.5,8.5,13.2-.7,3.6,1.8,5.5,5,7.9,3.4,2.6,7.4,5.5,7.2,11.4,0,.3-.2.6-.5.7l-13.3,5.8c0,0-.2,0-.3,0Z" style="fill: #f5f5f5;"/>
          <path d="M153,208.3c.2.2,9.9,4,8.2,12.4-1.7,8.4,12.4,8.7,12.2,19.5l-6.1,2.7-7.2,3.1c-2.4-2.9,2.6-9.3-1.6-12.8-3.9-3.2-5.9-6.5-3.6-12.2,1.3-3.3-.4-8.8-1.4-11.3h0c0-.3-.2-.5-.2-.7,0-.1-.1-.2-.1-.3,0,0,0-.2-.1-.2,0,0,0,0,0-.1M153,206.8c-.4,0-.7.1-1,.4-.5.4-.6,1.1-.4,1.7,0,0,0,.1,0,.2h0s0,.1,0,.1h0c0,.2,0,.2,0,.3,0,0,0,0,0,0,0,.1.1.3.2.5h0c1.7,4.5,2.2,8.3,1.4,10.3-2.8,7,.3,10.8,4,13.9,1.5,1.3,1.3,3.1.8,6-.4,2.3-.9,4.7.6,6.6.3.4.7.5,1.2.5s.4,0,.6-.1l7.2-3.1,6.1-2.7c.5-.2.9-.8.9-1.3.2-6.3-4.1-9.5-7.5-12.1-3.4-2.5-5.3-4.1-4.7-7.1,1.6-8.1-5.7-12.5-8.9-14h0c-.2-.2-.5-.2-.7-.2h0Z" style="fill: #ba5c26;"/>
        </g>
        <path d="M153,208.3s6.8,4.6,4.9,13.7,11.2,7.7,8.8,20.2" style="fill: none; stroke: #ba5c26; stroke-linejoin: round;"/>
        <g>
          <path d="M145.7,269.4c-2-.2-3.3-2.1-4.5-3.9-1.4-2.1-2.7-4.1-5.1-4.1s-.3,0-.4,0c-.8,0-1.5.1-2.2.1-4.8,0-7.7-2-9.7-6.6-1.3-3.1-6.5-5.7-8.6-6.6h-.1c-.2-.1-.4-.2-.5-.3,0,0-.7-.3-.7-.3-.3-.1-.5-.4-.5-.7s.3-.6.6-.7h0c2.2-.8,4.4-1.3,6.4-1.3,3.8,0,6.9,1.6,8.9,4.5,1.2,1.7,2.7,2.5,5.1,2.5h0c1.2,0,2.6-.2,4-.4,1.6-.2,3.2-.5,4.8-.5,3.5,0,6.2,1.1,8.4,3.5.2.2.3.5.2.8l-5.3,13.5c-.1.3-.4.5-.7.5s0,0,0,0Z" style="fill: #f5f5f5;"/>
          <path d="M120.5,245.9c2.8,0,6.1.9,8.3,4.2,1.5,2.2,3.5,2.8,5.7,2.8s5.8-.9,8.8-.9,5.4.7,7.8,3.2l-2.4,6.2-2.9,7.3c-3.7-.4-4.7-7.9-9.6-7.9-.2,0-.3,0-.5,0-.7,0-1.5.1-2.1.1-4,0-6.9-1.4-9-6.2-1.4-3.3-6.5-5.9-9-7h-.1c-.2-.1-.4-.2-.6-.3-.1,0-.2,0-.3-.1,0,0-.2,0-.2,0,0,0,0,0-.1,0,.2,0,3-1.2,6.3-1.2M120.5,244.4h0c-2.1,0-4.4.4-6.7,1.3h0c-.6.2-1,.8-1.1,1.4,0,.6.3,1.2.9,1.5,0,0,.1,0,.2,0h0s.1,0,.1,0h.1c0,0,.1,0,.2.1,0,0,0,0,0,0,.1,0,.3.1.5.2h.1c4.3,2,7.4,4.3,8.3,6.3,2.1,4.9,5.3,7.1,10.4,7.1s1.4,0,2.3-.1c.1,0,.2,0,.3,0,1.8,0,2.9,1.5,4.4,3.7,1.3,2,2.7,4,5.1,4.2,0,0,0,0,.1,0,.6,0,1.2-.4,1.4-.9l2.9-7.3,2.4-6.2c.2-.5,0-1.2-.3-1.6-2.4-2.5-5.2-3.7-8.9-3.7s-3.3.2-4.9.5c-1.4.2-2.7.4-3.9.4-2.1,0-3.4-.6-4.5-2.1-2.1-3.2-5.4-4.8-9.5-4.8h0Z" style="fill: #ba5c26;"/>
        </g>
        <path d="M114.2,247.1s8-1.6,13.2,6.2c5.1,7.8,13.4-2.4,20.5,8.1" style="fill: none; stroke: #ba5c26; stroke-linejoin: round;"/>
        <g>
          <path d="M114.1,302.8c-.2,0-.4,0-.6-.3-.2-.2-.2-.6,0-.9h0c1.2-2.7,4.7-8.8,11.1-8.8s1.4,0,2,.2c.4,0,.8.1,1.2.1h0c2.9,0,4.7-2.4,6.7-5.1,2.5-3.4,5.4-7.2,11.1-7.2h.3c.3,0,.6.2.7.5l5.8,13.3c.1.3,0,.7-.2.9-.7.6-1.6.9-2.8.9s-2.1-.2-3.2-.4c-1.1-.2-2.3-.4-3.3-.4-1.5,0-2.6.4-3.4,1.5-2,2.4-4.5,4.8-8.3,4.8s-3-.3-4.7-1c-.7-.3-1.6-.4-2.6-.4-2.9,0-6.4,1.2-8.2,1.8h-.1c-.2.1-.4.2-.5.3l-.5.2c-.1,0-.2,0-.2.1-.1,0-.2,0-.3,0Z" style="fill: #f5f5f5;"/>
          <path d="M145.7,281.6c.1,0,.2,0,.3,0l2.7,6.1,3.1,7.2c-.6.5-1.4.7-2.3.7-1.9,0-4.3-.9-6.5-.9-1.5,0-2.9.4-4,1.7-2.3,2.8-4.6,4.6-7.7,4.6s-2.8-.3-4.4-1c-.8-.3-1.8-.5-2.9-.5-3,0-6.5,1.2-8.4,1.9h-.1c-.2.1-.4.2-.6.3-.1,0-.2.1-.3.1,0,0-.2,0-.2.1,0,0,0,0-.1,0,.1-.2,3.4-8.4,10.5-8.4.6,0,1.2,0,1.9.2.5,0,.9.1,1.3.1,7.1,0,7.9-12.3,17.8-12.3M145.7,280.1c-6.1,0-9.2,4.2-11.7,7.5-2.2,3-3.7,4.8-6.1,4.8s-.7,0-1-.1c-.7-.1-1.5-.2-2.2-.2-6.8,0-10.5,6.4-11.8,9.1h0c-.3.6-.2,1.3.2,1.8.3.3.7.5,1.1.5s.4,0,.6-.1c0,0,.1,0,.2,0h0s.1,0,.1,0h.1c0,0,.1,0,.2-.1,0,0,0,0,0,0,.1,0,.3-.1.5-.2h.1c1.8-.7,5.1-1.8,7.9-1.8.9,0,1.7.1,2.3.4,1.8.7,3.5,1.1,5,1.1,4.1,0,6.8-2.6,8.9-5.1.7-.8,1.5-1.2,2.8-1.2,1,0,2.1.2,3.2.4,1.1.2,2.3.4,3.3.4s2.4-.3,3.2-1c.5-.4.7-1.1.4-1.8l-3.1-7.2-2.7-6.1c-.2-.5-.8-.9-1.3-.9-.1,0-.2,0-.4,0h0Z" style="fill: #ba5c26;"/>
        </g>
        <path d="M114.2,302s4.6-6.8,13.7-4.9c9.1,1.9,7.7-11.2,20.2-8.8" style="fill: none; stroke: #ba5c26; stroke-linejoin: round;"/>
        <g>
          <path d="M153,341.6c-.3,0-.6-.3-.7-.6h0c-1.2-3.3-3.2-11.1,3.3-15.4,3.1-2.1,2.6-5.2,2.1-9.1-.6-4.3-1.3-9.1,3-13.2.1-.1.3-.2.5-.2s.2,0,.3,0l6.2,2.4,7.3,2.9c.3.1.5.4.5.8-.2,2-2.1,3.3-3.9,4.5-2.2,1.5-4.3,2.9-4,5.5.5,5.2-.4,9.3-6.5,11.9-3.1,1.3-5.7,6.5-6.6,8.6h0c0,.3-.2.5-.2.6l-.2.5c0,.2,0,.2,0,.2-.1.3-.4.5-.7.5s0,0,0,0Z" style="fill: #f5f5f5;"/>
          <path d="M161.1,303.9l6.2,2.4,7.3,2.9c-.4,3.8-8.4,4.7-7.9,10.1.5,5.1-.4,8.7-6.1,11.1-3.3,1.4-5.9,6.5-7,9h0c0,.3-.2.5-.2.7,0,.1,0,.2-.1.3,0,0,0,.2,0,.2,0,0,0,0,0,.1,0-.3-4.2-9.8,2.9-14.6,7.1-4.8-2.6-15,5.2-22.4M161.1,302.4c-.4,0-.7.1-1,.4-4.6,4.4-3.8,9.6-3.2,13.8.6,4.2.8,6.6-1.7,8.4-6.9,4.6-4.8,12.9-3.6,16.2h0c.2.7.7,1.1,1.4,1.1,0,0,0,0,0,0,.6,0,1.1-.4,1.4-.9,0,0,0-.1,0-.2h0s0-.1,0-.1h0c0-.2,0-.2,0-.3,0,0,0,0,0,0,0-.1.1-.3.2-.5h0c1.9-4.4,4.2-7.5,6.2-8.4,6.9-3,7.4-7.8,7-12.7-.2-2,1.3-3.1,3.7-4.8,2-1.3,4-2.7,4.2-5.1,0-.7-.3-1.3-.9-1.5l-7.3-2.9-6.2-2.4c-.2,0-.4-.1-.5-.1h0Z" style="fill: #ba5c26;"/>
        </g>
        <path d="M153,340.9s-1.6-8,6.2-13.2c7.8-5.1-2.4-13.4,8.1-20.5" style="fill: none; stroke: #ba5c26; stroke-linejoin: round;"/>
        <g>
          <path d="M208,341.6c-.1,0-.3,0-.4-.1h-.1c-3.1-1.5-10-5.6-8.5-13.2.7-3.6-1.8-5.5-5-7.9-3.4-2.6-7.4-5.5-7.2-11.4,0-.3.2-.6.5-.7l13.3-5.8c0,0,.2,0,.3,0,.2,0,.4,0,.6.3,1.3,1.6.9,3.8.4,5.9-.5,2.6-1,5.1,1,6.7,4.1,3.4,6.3,6.9,3.8,13-1.3,3.1.6,8.6,1.4,10.8h0c0,.3.1.5.2.7l.2.5c0,.1,0,.2.1.2.2.3,0,.6-.2.9-.1.1-.3.2-.5.2Z" style="fill: #f5f5f5;"/>
          <path d="M200.8,303.3c2.4,2.9-2.6,9.3,1.6,12.8,3.9,3.2,5.9,6.5,3.6,12.2-1.3,3.3.4,8.8,1.4,11.3h0c0,.3.2.5.2.7,0,.1.1.2.1.3,0,0,0,.2.1.2,0,0,0,0,0,.1-.2-.2-9.9-4-8.2-12.4,1.7-8.4-12.4-8.7-12.2-19.5l6.1-2.7,7.2-3.1M200.8,301.8c-.2,0-.4,0-.6.1l-7.2,3.1-6.1,2.7c-.5.2-.9.8-.9,1.3-.2,6.3,4.1,9.5,7.5,12.1,3.4,2.5,5.3,4.1,4.7,7.1-1.6,8.1,5.7,12.5,8.9,14h0c.2.2.5.2.7.2.4,0,.7-.1,1-.4.5-.4.6-1.1.4-1.7,0,0,0-.1,0-.2h0s0-.1,0-.1h0c0-.2,0-.2,0-.3,0,0,0,0,0,0,0-.1-.1-.3-.2-.5h0c-1.7-4.5-2.2-8.3-1.4-10.3,2.8-7-.3-10.8-4-13.9-1.5-1.3-1.3-3.1-.8-6,.4-2.3.9-4.7-.6-6.6-.3-.4-.7-.5-1.2-.5h0Z" style="fill: #ba5c26;"/>
        </g>
        <path d="M207.9,340.9s-6.8-4.6-4.9-13.7c1.9-9.1-11.2-7.7-8.8-20.2" style="fill: none; stroke: #ba5c26; stroke-linejoin: round;"/>
        <g>
          <path d="M240.5,304c-3.8,0-6.9-1.6-8.9-4.5-1.2-1.7-2.7-2.5-5.1-2.5s-2.6.2-4,.4c-1.6.2-3.2.5-4.8.5-3.5,0-6.2-1.1-8.4-3.5-.2-.2-.3-.5-.2-.8l2.4-6.2,2.9-7.3c.1-.3.4-.5.7-.5s0,0,0,0c2,.2,3.3,2.1,4.5,3.9,1.4,2.1,2.7,4.1,5.1,4.1s.3,0,.4,0c.8,0,1.5-.1,2.2-.1,4.8,0,7.7,2,9.7,6.6,1.3,3.1,6.5,5.7,8.6,6.6h.1c.2.1.4.2.5.3,0,0,.7.3.7.3.3.1.5.4.5.7,0,.3-.3.6-.6.7h0c-2.2.8-4.4,1.3-6.4,1.3Z" style="fill: #f5f5f5;"/>
          <path d="M215.1,280.5c3.7.4,4.7,7.9,9.6,7.9s.3,0,.5,0c.7,0,1.5-.1,2.1-.1,4,0,6.9,1.4,9,6.2,1.4,3.3,6.5,5.9,9,7h.1c.2.1.4.2.6.3.1,0,.2,0,.3.1,0,0,.2,0,.2,0,0,0,0,0,.1,0-.2,0-3,1.2-6.3,1.2s-6.1-.9-8.3-4.2c-1.5-2.2-3.5-2.8-5.7-2.8s-5.8.9-8.8.9-5.4-.7-7.8-3.2l2.4-6.2,2.9-7.3M215.1,279c-.6,0-1.2.4-1.4.9l-2.9,7.3-2.4,6.2c-.2.5,0,1.2.3,1.6,2.4,2.5,5.2,3.7,8.9,3.7s3.3-.2,4.9-.5c1.4-.2,2.7-.4,3.9-.4,2.1,0,3.4.6,4.5,2.1,2.1,3.2,5.4,4.8,9.5,4.8s4.4-.4,6.7-1.3h0c.6-.2,1-.8,1.1-1.4,0-.6-.3-1.2-.9-1.5,0,0-.1,0-.2,0h0s-.1,0-.1,0h-.1c0,0-.1,0-.2-.1,0,0,0,0,0,0-.1,0-.3-.1-.5-.2h-.1c-4.3-2-7.4-4.3-8.3-6.3-2.1-4.9-5.3-7.1-10.4-7.1s-1.4,0-2.3.1c-.1,0-.2,0-.3,0-1.8,0-2.9-1.5-4.4-3.7-1.3-2-2.7-4-5.1-4.2,0,0,0,0-.1,0h0Z" style="fill: #ba5c26;"/>
        </g>
        <path d="M246.8,302s-8,1.6-13.2-6.2-13.4,2.4-20.5-8.1" style="fill: none; stroke: #ba5c26; stroke-linejoin: round;"/>
        <g>
          <path d="M214.9,268.2c-.3,0-.6-.2-.7-.5l-5.8-13.3c-.1-.3,0-.7.2-.9.7-.6,1.6-.9,2.8-.9s2.1.2,3.2.4c1.1.2,2.3.4,3.3.4,1.5,0,2.6-.4,3.4-1.5,2-2.4,4.5-4.8,8.3-4.8s3,.3,4.7,1c.7.3,1.6.4,2.6.4,2.9,0,6.4-1.2,8.2-1.8h.1c.2-.1.4-.2.5-.3l.5-.2c.1,0,.2,0,.2-.1.1,0,.2,0,.3,0,.2,0,.4,0,.6.3.2.3.2.6,0,.9h0c-1.2,2.7-4.7,8.8-11.1,8.8s-1.4,0-2-.2c-.4,0-.8-.1-1.2-.1-2.9,0-4.7,2.4-6.7,5.1-2.5,3.4-5.4,7.2-11.1,7.2h-.3Z" style="fill: #f5f5f5;"/>
          <path d="M246.8,247.1h0M246.8,247.1c-.1.2-3.4,8.4-10.5,8.4s-1.2,0-1.9-.2c-.5,0-.9-.1-1.3-.1-7.1,0-7.9,12.3-17.8,12.3s-.2,0-.3,0l-2.7-6.1-3.1-7.2c.6-.5,1.4-.7,2.3-.7,1.9,0,4.3.9,6.5.9s2.9-.4,4-1.7c2.3-2.8,4.6-4.6,7.7-4.6s2.8.3,4.4,1c.8.3,1.8.5,2.9.5,3,0,6.5-1.2,8.4-1.9h.1c.2-.1.4-.2.6-.3.1,0,.2-.1.3-.1,0,0,.2,0,.2-.1,0,0,0,0,.1,0M246.8,245.6c0,0-.1,0-.2,0-.1,0-.3,0-.4.1,0,0-.1,0-.2,0h0s-.1,0-.1,0h-.1c0,0-.1,0-.2.1,0,0,0,0,0,0-.1,0-.3.1-.5.2h-.1c-1.8.7-5.1,1.8-7.9,1.8s-1.7-.1-2.3-.4c-1.8-.7-3.5-1.1-5-1.1-4.1,0-6.8,2.6-8.9,5.1-.7.8-1.5,1.2-2.8,1.2s-2.1-.2-3.2-.4c-1.1-.2-2.3-.4-3.3-.4s-2.4.3-3.2,1c-.5.4-.7,1.1-.4,1.8l3.1,7.2,2.7,6.1c.2.5.8.9,1.3.9.1,0,.2,0,.4,0,6.1,0,9.2-4.2,11.7-7.5,2.2-3,3.7-4.8,6.1-4.8s.7,0,1,.1c.7.1,1.5.2,2.2.2,6.8,0,10.5-6.4,11.8-9.1h0c.1-.3.2-.5.2-.8,0-.8-.7-1.5-1.5-1.5,0,0,0,0,0,0h0ZM246.8,248.6h0,0Z" style="fill: #ba5c26;"/>
        </g>
        <path d="M246.8,247.1s-4.6,6.8-13.7,4.9c-9.1-1.9-7.7,11.2-20.2,8.8" style="fill: none; stroke: #ba5c26; stroke-linejoin: round;"/>
        <g>
          <path d="M199.8,246c0,0-.2,0-.3,0l-6.2-2.4-7.3-2.9c-.3-.1-.5-.4-.5-.8.2-2,2.1-3.3,3.9-4.5,2.2-1.5,4.3-2.9,4-5.5-.5-5.2.4-9.3,6.5-11.9,3.1-1.3,5.7-6.5,6.6-8.6h0c0-.3.2-.5.2-.6,0,0,.3-.7.3-.7,0-.3.4-.5.7-.5s0,0,0,0c.3,0,.6.3.7.6h0c1.2,3.2,3.2,11-3.3,15.4-3.1,2.1-2.6,5.2-2.1,9.1.6,4.3,1.3,9.1-3,13.2-.1.1-.3.2-.5.2Z" style="fill: #f5f5f5;"/>
          <path d="M207.9,208.3c0,.3,4.2,9.8-2.9,14.6-7.1,4.8,2.6,15-5.2,22.4l-6.2-2.4-7.3-2.9c.4-3.8,8.4-4.7,7.9-10.1-.5-5.1.4-8.7,6.1-11.1,3.3-1.4,5.9-6.5,7-9h0c0-.3.2-.5.2-.7,0-.1,0-.2.1-.3,0,0,0-.2,0-.2,0,0,0,0,0-.1M207.9,206.8c-.6,0-1.1.4-1.4.9,0,0,0,.1,0,.2h0s0,.1,0,.1h0c0,.2,0,.2,0,.3,0,0,0,0,0,0,0,.1-.1.3-.2.5h0c-1.9,4.4-4.2,7.5-6.2,8.4-6.9,3-7.4,7.8-7,12.7.2,2-1.3,3.1-3.7,4.8-2,1.3-4,2.7-4.2,5.1,0,.7.3,1.3.9,1.5l7.3,2.9,6.2,2.4c.2,0,.4.1.5.1.4,0,.7-.1,1-.4,4.6-4.4,3.8-9.6,3.2-13.8-.6-4.2-.8-6.6,1.7-8.4,6.9-4.6,4.8-12.9,3.6-16.2h0c-.2-.7-.7-1.1-1.4-1.1,0,0,0,0,0,0h0Z" style="fill: #ba5c26;"/>
        </g>
        <path d="M207.9,208.3s1.6,8-6.2,13.2,2.4,13.4-8.1,20.5" style="fill: none; stroke: #ba5c26; stroke-linejoin: round;"/>
      </g>
      <g id="path1" inkscape:transform-center-x="1.0660109e-06" inkscape:transform-center-y="3.2987115" sodipodi:nodetypes="ccccccccccccccccc">
        <path d="M180.2,340.6c-.4,0-.7-.2-.7-.6l-9.1-42.2-37.7,24.3c-.1,0-.3.1-.4.1s-.4,0-.5-.2c-.2-.2-.3-.6,0-.9l23.8-36.8-42.3-9.1c-.3,0-.6-.4-.6-.7s.2-.7.6-.7l41.9-9-23.7-36.6c-.2-.3-.2-.7,0-.9.1-.1.3-.2.5-.2s.3,0,.4.1l37.7,24.4,9.3-43.4c0-.3.4-.6.7-.6s.7.2.7.6l9.3,43.5,37.9-24.5c.1,0,.3-.1.4-.1s.4,0,.5.2c.2.2.3.6,0,.9l-23.7,36.7,41.5,8.9c.3,0,.6.4.6.7s-.2.7-.6.7l-41.6,8.9,23.9,36.9c.2.3.2.7,0,.9s-.3.2-.5.2-.3,0-.4-.1l-38.1-24.6-9.1,42.5c0,.3-.4.6-.7.6Z" style="fill: #f5f5f5;"/>
        <path d="M180.2,208.3l9.6,44.5,38.8-25.1-24.3,37.6,42.5,9.1-42.7,9.2,24.4,37.8-39-25.2-9.4,43.5-9.3-43.2-38.6,24.9,24.3-37.7-43.4-9.3,43-9.2-24.2-37.5,38.7,25,9.6-44.4M180.2,206.8c-.7,0-1.3.5-1.5,1.2l-9.1,42.3-36.8-23.8c-.2-.2-.5-.2-.8-.2-.4,0-.8.1-1.1.4-.5.5-.6,1.3-.2,1.9l23.1,35.7-40.9,8.8c-.7.1-1.2.8-1.2,1.5s.5,1.3,1.2,1.5l41.3,8.9-23.2,35.9c-.4.6-.3,1.4.2,1.9.3.3.7.4,1.1.4s.6,0,.8-.2l36.8-23.8,8.8,41.1c.1.7.8,1.2,1.5,1.2s1.3-.5,1.5-1.2l8.9-41.4,37.2,24c.2.2.5.2.8.2s.8-.1,1.1-.4c.5-.5.6-1.3.2-1.9l-23.3-36,40.5-8.7c.7-.1,1.2-.8,1.2-1.5s-.5-1.3-1.2-1.5l-40.4-8.7,23.1-35.8c.4-.6.3-1.4-.2-1.9-.3-.3-.7-.4-1.1-.4-.3,0-.6,0-.8.2l-37,23.9-9.1-42.4c-.1-.7-.8-1.2-1.5-1.2h0Z" style="fill: #ba5c26;"/>
      </g>
      <path id="path31" d="M180.2,208.2v32.5" sodipodi:nodetypes="cc" style="fill: none; stroke: #ba5c26; stroke-linejoin: round;"/>
      <path id="path32" d="M180.2,307.5v32.5" sodipodi:nodetypes="cc" style="fill: none; stroke: #ba5c26; stroke-linejoin: round;"/>
      <path id="path33" d="M145.7,274.5h-32.5" sodipodi:nodetypes="cc" style="fill: none; stroke: #ba5c26; stroke-linejoin: round;"/>
      <path id="path34" d="M246.9,274.5h-32.5" sodipodi:nodetypes="cc" style="fill: none; stroke: #ba5c26; stroke-linejoin: round;"/>
      <path id="path35" d="M228.6,227.7l-23,23" sodipodi:nodetypes="cc" style="fill: none; stroke: #ba5c26; stroke-linejoin: round;"/>
      <path id="path36" d="M132,227.7l23,23" sodipodi:nodetypes="cc" style="fill: none; stroke: #ba5c26; stroke-linejoin: round;"/>
      <path id="path37" d="M132.3,321.6l23-23" sodipodi:nodetypes="cc" style="fill: none; stroke: #ba5c26; stroke-linejoin: round;"/>
      <path id="path38" d="M228.6,321.6l-23-23" sodipodi:nodetypes="cc" style="fill: none; stroke: #ba5c26; stroke-linejoin: round;"/>
      <g id="path30">
        <path d="M180.5,310.5c-19.8,0-35.9-16.1-35.9-35.9s16.1-35.9,35.9-35.9,35.9,16.1,35.9,35.9-16.1,35.9-35.9,35.9Z" style="fill: #f5f5f5;"/>
        <path d="M180.5,239.4c19.4,0,35.2,15.7,35.2,35.2s-15.7,35.2-35.2,35.2-35.2-15.7-35.2-35.2,15.7-35.2,35.2-35.2M180.5,237.9c-20.2,0-36.7,16.5-36.7,36.7s16.5,36.7,36.7,36.7,36.7-16.5,36.7-36.7-16.5-36.7-36.7-36.7h0Z" style="fill: #ba5c26;"/>
      </g>
      <path d="M153,208.3h0s0,0,0,0" style="fill: none; stroke: #ba5c26; stroke-linejoin: round;"/>
      <polyline points="153 208.4 153.1 208.6 153.3 209 153.5 209.5" style="fill: none; stroke: #ba5c26; stroke-linejoin: round;"/>
    </g>
    <path id="rect1" d="M.9,1.5v26.9l180,153L360.8,28.4V1.5h-50.4l-129.6,110.1L51.3,1.5H.9Z" style="fill: #f5f5f5;"/>
    <path id="shine-7" d="M.9.9v154.8c0,172.2,179.9,239.7,179.9,239.7,0,0,179.9-67.5,179.9-239.7V.9H.9Z" style="fill: url(#radial-gradient); stroke: #000; stroke-miterlimit: 11.3; stroke-width: 1.8px;"/>
  </g>

</svg>