<?xml version="1.0" encoding="UTF-8" standalone="no"?>
<svg
   width="600"
   height="600"
   version="1.1"
   id="svg72"
   sodipodi:docname="House Dayne GoT.svg"
   inkscape:version="1.2.1 (9c6d41e410, 2022-07-14)"
   xmlns:inkscape="http://www.inkscape.org/namespaces/inkscape"
   xmlns:sodipodi="http://sodipodi.sourceforge.net/DTD/sodipodi-0.dtd"
   xmlns:xlink="http://www.w3.org/1999/xlink"
   xmlns="http://www.w3.org/2000/svg"
   xmlns:svg="http://www.w3.org/2000/svg"
   xmlns:rdf="http://www.w3.org/1999/02/22-rdf-syntax-ns#"
   xmlns:cc="http://creativecommons.org/ns#"
   xmlns:dc="http://purl.org/dc/elements/1.1/">
  <title
     id="title3717">House Dayne</title>
  <sodipodi:namedview
     id="namedview74"
     pagecolor="#ffffff"
     bordercolor="#000000"
     borderopacity="0.25"
     inkscape:showpageshadow="2"
     inkscape:pageopacity="0.0"
     inkscape:pagecheckerboard="0"
     inkscape:deskcolor="#d1d1d1"
     showgrid="false"
     inkscape:zoom="0.6975"
     inkscape:cx="28.673835"
     inkscape:cy="344.08602"
     inkscape:window-width="1920"
     inkscape:window-height="1017"
     inkscape:window-x="-8"
     inkscape:window-y="-8"
     inkscape:window-maximized="1"
     inkscape:current-layer="svg72" />
  <defs
     id="defs54">
    <radialGradient
       id="rg"
       gradientUnits="userSpaceOnUse"
       cx="220"
       cy="220"
       r="405">
      <stop
         style="stop-color:#fff;stop-opacity:.3"
         offset="0"
         id="stop2" />
      <stop
         style="stop-color:#fff;stop-opacity:.2"
         offset=".2"
         id="stop4" />
      <stop
         style="stop-color:#666;stop-opacity:.1"
         offset=".6"
         id="stop6" />
      <stop
         style="stop-color:#000;stop-opacity:.13"
         offset="1"
         id="stop8" />
    </radialGradient>
    <circle
       id="shield"
       cx="300"
       cy="300"
       r="298" />
    <g
       id="sun"
       transform="translate(300,300)scale(0.9)translate(-300,-300)"
       style="stroke-width:1;stroke-linecap:round;stroke-linejoin:round;">
      <g
         id="wavy-rays"
         transform="rotate(22.5,300,300)">
        <g
           id="wavy-ray">
          <path
             style="fill:#cc0000;stroke:none;"
             d="m 295.71673,70.37585 c -2.38477,5.976283 -6.7925,17.205125 -9.21187,29.4824 -2.48155,13.19766 -2.69547,27.57144 -1.27552,43.82304 v 2e-5 c 0.9165,13.14114 2.36127,26.69187 0.2801,36.94871 -1.5238,9.64131 -6.37028,19.49065 -11.65569,30.465 -6.48769,12.08882 -13.44166,26.83452 -16.40516,47.21637 -1.10448,16.24642 1.28913,30.23675 5.17828,41.68861 h 37.36937 l 18.02493,-120.0503 -18.02117,-59.97485 -2.71283,-29.987425 2.71283,-29.987425 c 0,0 -1.59954,3.650359 -4.28327,10.37585 z"
             id="path12" />
          <path
             style="fill:#aa0000;stroke:none;"
             d="m 337.36561,300 c -1.98638,-5.85559 -4.36398,-11.09158 -6.86602,-15.53917 -1e-5,-4e-5 -0.0316,-0.0736 -0.0317,-0.0736 h 5e-5 v 0 c -3.60485,-8.37348 -8.77008,-17.39754 -8.83053,-22.69862 -1.56615,-6.81556 1.57439,-17.21075 4.50884,-32.78363 3.53396,-14.92204 5.36752,-31.99714 3.05631,-49.535 -2.90283,-17.45097 -9.21149,-31.54555 -14.4319,-43.05129 l -1e-5,-1e-5 c -6.10281,-13.8338 -10.29735,-24.63776 -12.38351,-36.17693 -1.99032,-10.56752 -2.15623,-22.657551 -2.24509,-28.944025 -0.10163,-7.188564 -0.14205,-11.197725 -0.14205,-11.197725 -2.575,13.3333 -5.316,26.6667 -5.554,40 -0.238,13.333 2.231,26.667 5.554,40 3.323,13.333 6.9715,26.66699 7.356,40 0.3845,13.33299 -2.815,26.667 -7.356,40 -4.541,13.333 -9.7555,26.66703 -10.457,40 -0.7015,13.33303 3.664,26.667 10.457,40"
             id="path14" />
        </g>
        <use
           xlink:href="#wavy-ray"
           transform="rotate(45,300,300)"
           id="use17" />
        <use
           xlink:href="#wavy-ray"
           transform="rotate(90,300,300)"
           id="use19" />
        <use
           xlink:href="#wavy-ray"
           transform="rotate(135,300,300)"
           id="use21" />
        <use
           xlink:href="#wavy-ray"
           transform="rotate(180,300,300)"
           id="use23" />
        <use
           xlink:href="#wavy-ray"
           transform="rotate(225,300,300)"
           id="use25" />
        <use
           xlink:href="#wavy-ray"
           transform="rotate(270,300,300)"
           id="use27" />
        <use
           xlink:href="#wavy-ray"
           transform="rotate(315,300,300)"
           id="use29" />
      </g>
      <g
         id="straight-rays">
        <g
           id="straight-ray">
          <path
             style="fill:#cc0000;stroke:none;"
             d="m 300,60 -30.61467,166.08964 30.61467,73.91036 15,-73.91036 z"
             id="path32" />
          <path
             style="fill:#aa0000;stroke:none;"
             d="m 300,300 v -240 l 30.61467,166.08964 z"
             id="path34" />
        </g>
        <use
           xlink:href="#straight-ray"
           transform="rotate(45,300,300)"
           id="use37" />
        <use
           xlink:href="#straight-ray"
           transform="rotate(90,300,300)"
           id="use39" />
        <use
           xlink:href="#straight-ray"
           transform="rotate(135,300,300)"
           id="use41" />
        <use
           xlink:href="#straight-ray"
           transform="rotate(180,300,300)"
           id="use43" />
        <use
           xlink:href="#straight-ray"
           transform="rotate(225,300,300)"
           id="use45" />
        <use
           xlink:href="#straight-ray"
           transform="rotate(270,300,300)"
           id="use47" />
        <use
           xlink:href="#straight-ray"
           transform="rotate(315,300,300)"
           id="use49" />
      </g>
      <circle
         id="disk"
         style="fill:#cc0000;stroke:#aa0000;"
         cx="300"
         cy="300"
         r="80" />
    </g>
    <radialGradient
       id="rg-7"
       gradientUnits="userSpaceOnUse"
       cx="220"
       cy="220"
       r="405">
      <stop
         style="stop-color:#fff;stop-opacity:.3"
         offset="0"
         id="stop2-7" />
      <stop
         style="stop-color:#fff;stop-opacity:.2"
         offset=".2"
         id="stop4-3" />
      <stop
         style="stop-color:#666;stop-opacity:.1"
         offset=".6"
         id="stop6-1" />
      <stop
         style="stop-color:#000;stop-opacity:.13"
         offset="1"
         id="stop8-9" />
    </radialGradient>
    <radialGradient
       id="radialGradient878"
       gradientUnits="userSpaceOnUse"
       cx="220"
       cy="220"
       r="405">
      <stop
         style="stop-color:#fff;stop-opacity:.3"
         offset="0"
         id="stop870" />
      <stop
         style="stop-color:#fff;stop-opacity:.2"
         offset=".2"
         id="stop872" />
      <stop
         style="stop-color:#666;stop-opacity:.1"
         offset=".6"
         id="stop874" />
      <stop
         style="stop-color:#000;stop-opacity:.13"
         offset="1"
         id="stop876" />
    </radialGradient>
  </defs>
  <use
     id="circle"
     xlink:href="#shield"
     style="opacity:1;fill:#035897;fill-opacity:1;stroke:#000000;stroke-width:3" />
  <g
     id="Layer_4"
     data-name="Layer 4"
     transform="matrix(1.4729619,0,0,1.0413049,-55.364677,50.280905)">
    <path
       class="cls-2"
       d="m 636.56,535.19 c -7.11,-4.38 -15.52,-4.67 -22.69,-9.73 8.32,-3.54 16.87,-2.21 25,-4.64 -3.7,-5.37 -9.5,-8.33 -12.39,-14.18 4.75,-1.1 8.24,1.6 11.94,2.81 3.7,1.21 7.27,3.77 12.44,2.78 l -14.4,-23.37 c 11.46,3.43 18.44,11.47 28.15,14.7 -2.53,-5.59 -7.17,-9.92 -7.66,-16.22 -0.06,-0.8 -0.58,-1.58 -0.6,-2.37 -0.36,-18.36 -11.93,-28.62 -26.45,-36.8 -2.84,-1.6 -5.55,-3.42 -8.34,-5.1 -4.43,-2.68 -2.82,-4.92 0.74,-6.38 6.63,-2.73 13.19,-1.87 19.56,1.16 a 31.77,31.77 0 0 0 6.87,2.54 c -6.7,-10.67 -13.73,-21 -22.34,-30.16 -5.54,-5.92 -11.93,-11.42 -12.86,-20.31 -0.06,-0.61 -0.26,-1.21 -0.31,-1.82 -0.27,-3.49 -0.54,-8.14 2.37,-9.43 2.56,-1.13 3.33,3.75 5,5.85 2.91,3.55 5.32,7.71 10.87,8.72 -2,-11 -8.74,-19.09 -14.52,-27.58 -5.05,-7.43 -10.95,-14.24 -16.79,-21.11 -7.21,-8.48 -11.84,-18.48 -9,-31.53 L 613,333.26 c -0.12,-7.15 -3.59,-12 -5,-17.39 -4.15,-15.73 -6.74,-32 -14.67,-46.53 -0.43,-0.78 -1.52,-1.59 -0.24,-2.6 a 3.13,3.13 0 0 1 2.87,-0.35 c 6.61,1.33 10.35,6.38 14.21,11.1 2.82,3.44 5.11,7.32 7.91,11.4 a 47.79,47.79 0 0 0 -8.18,-26.27 c -8,-12.35 -11.47,-25.27 -4.49,-39.34 0.44,-0.88 1.09,-1.66 2.46,-3.72 2.89,11.88 6.69,22.18 18.89,28.19 -3.37,-10.84 -7.9,-20.57 -5.6,-31.34 2.16,-10.12 4.3,-20.22 10.58,-29.86 3.61,7.23 4.27,14.88 9.3,21.67 1.53,-11.37 1.48,-22.16 8.18,-31.12 3.08,-4.11 6.19,-8.14 10.39,-11.18 1,-0.7 2.14,-1.78 3.31,-0.87 1.17,0.91 0.24,2.17 0.06,3.36 -0.78,5.24 -1.63,10.54 1.76,16.61 2.7,-7.29 5.18,-13.76 7.49,-20.3 2.73,-7.72 6.45,-15 10.18,-22.22 1.5,-2.92 2.65,-3.26 4.26,0 7.45,15.06 20.21,27.58 21,47.15 4.5,-6.13 6,-11 4.17,-16.79 -0.27,-0.86 -1.36,-2.37 0.3,-3.18 1.06,-0.51 1.9,0.29 2.8,0.8 3.45,1.94 5.08,5.28 6.51,8.65 5.13,12.08 7.63,24.82 9.15,38.59 5.13,-7.8 7,-15.85 7.07,-25.23 7.44,4 9.25,10.6 9.59,17.22 0.47,9.2 -0.09,18.46 -0.36,27.7 a 46.21,46.21 0 0 0 2.81,16.79 c 0.38,1.1 0.09,2.91 1.66,2.83 1,0 2,-1.23 2.72,-2.16 4.57,-6.14 7.18,-13.24 9.93,-20.59 5.55,5.91 6.18,13.06 5.46,20.42 -1.67,17.3 -4.75,34.3 -12.17,50.3 a 19.94,19.94 0 0 0 -0.75,2.72 c 7.95,-3.84 12.11,-9.89 14.58,-17.53 0.52,-1.62 0.37,-4.81 3.13,-4.47 2,0.25 3.09,2.74 3.73,4.58 2.9,8.32 0.93,16.61 -0.86,24.76 -3.15,14.38 -10.7,26.82 -18,39.34 -0.38,0.65 -1,1.32 0.08,2.87 a 58.48,58.48 0 0 0 17.71,-24 c 0.48,-1.21 -0.19,-3.22 2,-3.15 1.73,0.06 2.09,1.85 2.7,3.06 2.37,4.72 1.91,9.38 -0.25,14.15 -7.15,15.84 -14.84,31.34 -25.45,45.25 -1.41,1.85 -5.22,4.26 -2.89,6.51 2.33,2.25 4.25,-1.71 6.1,-3.15 A 71.64,71.64 0 0 0 772.3,383 c 0.61,-0.8 1.06,-1.9 2.33,-1.4 1.27,0.5 1.14,1.55 1.23,2.6 0.35,3.94 0.09,7.67 -2,11.26 -10.06,17.2 -20.78,33.81 -37.42,45.63 -3.36,2.39 -7,4.81 -8.41,9.73 9,-2.93 16.82,-9 28,-7 -10.53,8.79 -20.46,16.5 -29.1,25.67 -9.06,9.61 -12.72,21.54 -16.26,34.09 4.41,0.6 7.56,-2.06 11.06,-3.34 2.48,-0.91 4.74,-2.43 7.24,-3.24 1.9,-0.62 4.29,-2.76 5.91,-0.58 1.45,2 -0.93,3.71 -2.12,5.28 -4.45,5.89 -9.89,10.87 -16.43,17.24 13.13,-1.6 24.85,-4.22 37.77,-2.43 -6.47,7 -15.23,8.67 -23.3,12.72 6.09,3.33 12.9,2.58 18.75,5.11 1.38,0.6 3.93,-0.16 3.78,2.09 -0.12,1.88 -2.57,1.48 -4,2.1 -4.35,1.87 -9,0.07 -13.35,1.5 -1.28,0.42 -3.12,0.3 -3.62,1.95 -0.56,1.85 1.34,2.17 2.3,3.1 a 41.55,41.55 0 0 0 9.64,6.51 c 1.88,1 5.11,1.67 4.22,4.24 -0.71,2.05 -3.57,0.62 -5.48,0.29 -3.22,-0.57 -6.41,-1.31 -9.65,-1.75 -3.24,-0.44 -4.65,0.88 -3.1,4.2 2.08,4.48 4.14,9 6.6,14.31 -6.64,-1.94 -11,-5.62 -15.7,-8.7 -2.2,-1.44 -4.83,-3.66 -7.22,-2.24 -2.39,1.42 -0.33,4.43 -0.24,6.74 a 56.12,56.12 0 0 1 0.38,6.11 c -0.17,2.49 1.66,6.27 -1.31,7.1 -2.32,0.65 -4,-3 -5.65,-5 -0.39,-0.48 -0.82,-0.92 -1.18,-1.42 -8.09,-11.17 -8.08,-11.16 -14.66,1.4 -0.9,1.73 -1.36,4.7 -3.74,4.11 -2.2,-0.55 -1.56,-3.41 -1.74,-5.43 -0.23,-2.64 -0.61,-5.28 -1,-7.9 -0.27,-1.72 0.31,-4 -2.13,-4.6 -2.44,-0.6 -4.38,0.32 -6,2.19 -2.13,2.5 -4.33,4.93 -6.5,7.4 l -6.27,7.1 c -1.94,-2.57 -1.35,-4.2 -0.9,-6 0.7,-2.75 1.9,-5.35 1.91,-8.31 0,-6.14 -0.5,-6.52 -6.09,-3.72 q -8,4 -16,8 l -0.91,-1.33 c 2.45,-4.62 5,-9.18 7.31,-13.88 1.12,-2.3 2.66,-4.93 0.53,-7.38 -2.13,-2.45 -4.89,-1.56 -7.5,-1.12 -7.09,1.17 -14.18,2.4 -22.7,3.84 5.32,-6.6 11.91,-9.47 16.98,-14.65 z"
       transform="translate(-445.5,-121.26)"
       id="path53431"
       style="fill:#fefefe" />
    <path
       class="cls-3"
       d="m 699.34,270.67 c -2,4.95 -1.18,10.09 -0.9,15.15 1.59,28.69 0.46,57.37 0.25,86.06 q -0.23,31.28 -1,62.54 c -0.4,16.21 -4.71,32 -4.56,48.27 0,1.42 -0.24,3.14 -2,3.29 -1.76,0.15 -2.17,-1.66 -2.89,-2.81 -8.87,-14.23 -12.71,-29.8 -13.7,-46.5 -1.72,-29.26 -1.73,-58.54 -2.33,-87.82 -0.55,-27.27 -0.88,-54.55 -1.31,-81.83 10.1,-3.28 19.51,-1.77 28.44,3.65 z"
       transform="translate(-445.5,-121.26)"
       id="path53433"
       style="fill:#4c5b5d" />
    <path
       class="cls-4"
       d="m 699.34,270.67 c -9.31,-2.46 -18.72,-4.08 -28.4,-3.65 -6,-2.71 -10.7,-1 -14.43,4.07 -1.65,2.24 -3.39,4.68 -6.41,2.71 -3.26,-2.12 -2.67,-5.24 -0.82,-8.09 3.68,-5.7 9.9,-7.16 15.8,-8.41 18.17,-3.88 25.38,-19.52 16.13,-35.81 -4.1,-7.22 -2.87,-9.58 5.66,-10.88 5.24,-0.8 9.11,1.51 12.12,5.51 2.87,3.81 1.39,7 -1.21,10.45 -4.34,5.77 -4.72,24.36 -1.08,30.12 1.08,1.71 2.8,2.32 4.52,3 6.66,2.51 13,5.9 20,7.51 3.18,0.73 5.61,2.78 6.16,6.12 a 4.54,4.54 0 0 1 -2.63,4.52 c -3,1.57 -5.58,0.06 -7.75,-2 -5,-4.77 -11.1,-5.84 -17.66,-5.17 z"
       transform="translate(-445.5,-121.26)"
       id="path53435"
       style="fill:#374148" />
  </g>
  <metadata
     id="metadata3715">
    <rdf:RDF>
      <cc:Work
         rdf:about="">
        <dc:title>House Dayne</dc:title>
      </cc:Work>
    </rdf:RDF>
  </metadata>
  <use
     id="shine"
     xlink:href="#shield"
     style="fill:url(#rg-7);stroke:#000000;stroke-width:3" />
</svg>
