<?xml version="1.0" encoding="UTF-8" standalone="no"?>
<svg
   viewBox="0 0 483 527.48"
   version="1.1"
   id="svg46518"
   sodipodi:docname="House Seaworth GoT.svg"
   inkscape:version="1.2.1 (9c6d41e410, 2022-07-14)"
   xmlns:inkscape="http://www.inkscape.org/namespaces/inkscape"
   xmlns:sodipodi="http://sodipodi.sourceforge.net/DTD/sodipodi-0.dtd"
   xmlns="http://www.w3.org/2000/svg"
   xmlns:svg="http://www.w3.org/2000/svg">
  <sodipodi:namedview
     id="namedview46520"
     pagecolor="#ffffff"
     bordercolor="#000000"
     borderopacity="0.25"
     inkscape:showpageshadow="2"
     inkscape:pageopacity="0.0"
     inkscape:pagecheckerboard="0"
     inkscape:deskcolor="#d1d1d1"
     showgrid="false"
     inkscape:zoom="1.12203"
     inkscape:cx="172.00966"
     inkscape:cy="244.20024"
     inkscape:window-width="1920"
     inkscape:window-height="1017"
     inkscape:window-x="-8"
     inkscape:window-y="-8"
     inkscape:window-maximized="1"
     inkscape:current-layer="svg46518" />
  <defs
     id="defs46474">
    <style
       id="style46472">.cls-1,.cls-12{fill:#737373;}.cls-1{stroke:#000;stroke-width:3px;}.cls-2{fill:#101010;}.cls-3{fill:#e5e5e5;}.cls-4{fill:#e4e4e4;}.cls-5{fill:#515151;}.cls-6{fill:#545454;}.cls-7{fill:#474747;}.cls-8{fill:#505050;}.cls-9{fill:#494949;}.cls-10{fill:#4f4f4f;}.cls-11{fill:#4a4a4a;}</style>
    <radialGradient
       id="rg"
       gradientUnits="userSpaceOnUse"
       cx="220"
       cy="220"
       r="405"
       gradientTransform="matrix(0.80510068,0,0,0.80302287,1.2897996,-2.086028)">
      <stop
         style="stop-color:#ffffff;stop-opacity:.3"
         offset="0"
         id="stop753" />
      <stop
         style="stop-color:#ffffff;stop-opacity:.2"
         offset=".2"
         id="stop755" />
      <stop
         style="stop-color:#666666;stop-opacity:.1"
         offset=".6"
         id="stop757" />
      <stop
         style="stop-color:#000000;stop-opacity:.13"
         offset="1"
         id="stop759" />
    </radialGradient>
  </defs>
  <title
     id="title46476">House Seaworth</title>
  <g
     id="Layer_2"
     data-name="Layer 2">
    <path
       class="cls-1"
       d="M927,122.76V328.6a314.37,314.37,0,0,1-2.28,38c-.11.93-.24,1.86-.36,2.79s-.24,1.86-.39,2.79q-.7,5.05-1.61,10c-.07.44-.15.87-.23,1.31-.15.8-.29,1.6-.45,2.39s-.34,1.8-.51,2.69l-.45,2.22-.24,1.16c-.15.71-.3,1.44-.47,2.15q-.8,3.55-1.61,7l-.58,2.32-.52,2q-1.52,5.88-3.27,11.61c-.29,1-.59,1.94-.9,2.92l-.6,1.88c-.19.63-.39,1.25-.6,1.86l-1.1,3.26c-.37,1.09-.68,2-1,3-.47,1.28-.92,2.55-1.39,3.81-.36,1-.73,2-1.11,3l-.19.49c-.43,1.14-.87,2.25-1.32,3.37s-.87,2.16-1.32,3.19a3.35,3.35,0,0,1-.18.42c-.4,1-.8,2-1.25,3s-.75,1.75-1.13,2.62l-.66,1.49c-.47,1.07-.95,2.12-1.44,3.15s-.9,2-1.36,2.93l-1,2.12c-.3.63-.6,1.25-.91,1.88-.63,1.32-1.31,2.64-2,4q-2.53,5-5.19,9.77l-2,3.57-.11.21q-2.13,3.71-4.33,7.33c-.71,1.2-1.46,2.39-2.18,3.54-.1.16-.19.31-.3.46-.55.89-1.12,1.78-1.69,2.66l-.66,1c-.65,1-1.31,2-2,3l-.13.18c-.66,1-1.32,2-2,3l-.45.67q-2.26,3.28-4.54,6.46l-.31.42c-.8,1.07-1.54,2.14-2.31,3.19s-1.66,2.23-2.5,3.32q-2.29,3-4.61,6l-.8,1c-.73.93-1.48,1.85-2.22,2.76L854,526.61l-.57.69L851,530.1q-2.83,3.32-5.72,6.53c-.75.85-1.52,1.69-2.29,2.51l-2.22,2.39q-3,3.19-5.93,6.24-2.76,2.83-5.53,5.59c-.91.91-1.84,1.82-2.76,2.71s-1.85,1.78-2.78,2.67l-2.28,2.11c-.68.65-1.36,1.28-2.05,1.91a448.64,448.64,0,0,1-61.76,47.47c-.86.55-1.73,1.1-2.58,1.6q-6.42,4.07-12.46,7.63l-2.41,1.4-2.36,1.36-2.34,1.35-2.22,1.28c-8.35,4.68-15.91,8.59-22.38,11.76l-1.61.8c-10.63,5.15-18.11,8.22-21,9.35l-.42.18-.61.23-.14.06h-.08l-.23-.1-.21,0-1.07-.42-.55-.23c-.87-.34-2-.8-3.36-1.38l-.47-.18c-1.76-.8-3.88-1.67-6.33-2.77l-1.39-.61a443.16,443.16,0,0,1-39.74-20.6c-.8-.45-1.61-.92-2.36-1.38a473.14,473.14,0,0,1-44.78-30l-2.62-2c-1-.75-2-1.52-2.95-2.29l-2.81-2.21c-6.19-4.92-12.43-10.15-18.64-15.69L558.08,566q-2.3-2.05-4.59-4.2l-1.67-1.57L550,558.54l-2-1.94c-1.12-1.07-2.24-2.16-3.34-3.26-.84-.8-1.69-1.67-2.52-2.51l-.24-.26q-1.25-1.25-2.5-2.51c-.66-.68-1.32-1.36-2-2l-2-2.07-.13-.15-2.1-2.24q-3.36-3.61-6.66-7.36c-.68-.8-1.36-1.55-2-2.35-.57-.65-1.12-1.28-1.66-1.94l-2-2.39q-4.26-5.11-8.39-10.48-1.13-1.45-2.24-2.92c-1.89-2.47-3.73-5-5.57-7.55l-1.68-2.39c-.13-.16-.24-.34-.36-.5-.59-.85-1.19-1.7-1.77-2.55-.95-1.38-1.89-2.77-2.82-4.17q-1.11-1.64-2.18-3.31l-.15-.24-2.22-3.47c-.07-.13-.15-.24-.22-.37-.71-1.14-1.41-2.27-2.1-3.4s-1.49-2.46-2.21-3.7-1.44-2.39-2.13-3.67q-4.6-8-8.77-16.47c-.35-.69-.69-1.38-1-2.08-.22-.44-.44-.89-.65-1.35-.43-.87-.8-1.75-1.25-2.63a27.17,27.17,0,0,1-1.15-2.47l-.23-.48c-.26-.58-.52-1.16-.8-1.75l-.26-.57c-.26-.58-.52-1.18-.8-1.77q-1.44-3.26-2.78-6.58c-.42-1-.8-2-1.23-3.07-.1-.26-.21-.53-.31-.8-.4-1-.8-2-1.16-3s-.68-1.82-1-2.74l-.23-.65c-.18-.45-.34-.91-.5-1.36q-1-2.69-1.89-5.44c-.21-.6-.4-1.21-.6-1.8-.26-.8-.51-1.54-.75-2.31-.14-.42-.26-.8-.39-1.22-.26-.8-.5-1.6-.75-2.39-.31-1-.61-2.06-.92-3.1-.18-.65-.39-1.28-.57-2-.37-1.28-.74-2.58-1.08-3.89-.19-.68-.37-1.35-.55-2-.13-.5-.26-1-.39-1.51-.32-1.22-.63-2.46-.92-3.7-.18-.7-.35-1.4-.52-2.11-.07-.29-.13-.57-.19-.85-.37-1.55-.71-3.11-1.07-4.69-.26-1.16-.5-2.33-.74-3.5-.14-.71-.29-1.43-.43-2.14s-.32-1.6-.47-2.45a2.13,2.13,0,0,0-.1-.47c-.15-.8-.3-1.64-.45-2.48s-.31-1.84-.47-2.77-.3-1.8-.45-2.71q-.87-5.52-1.56-11.17A314.73,314.73,0,0,1,447,328.58V122.76Z"
       transform="translate(-445.5 -121.26)"
       id="path46478" />
  </g>
  <g
     id="Layer_3"
     data-name="Layer 3">
    <path
       class="cls-2"
       d="M731.61,238.78c.43,3.43,2.66,6,4.4,8.73a219.84,219.84,0,0,1,21.33,43.64,287.86,287.86,0,0,1,12.14,44.48c.56,3,1.39,6.16,4.56,7.63,3.75,1.75,4.11,4.84,3.52,8.29-2.45,14.37-4.91,28.75-10.14,42.44a32.35,32.35,0,0,1-4.16,8.23c-4.24,5.51-9.16,9.34-17.06,9.05a247.81,247.81,0,0,0-82.6,11.31c-11.75,3.63-24.53,2.84-35.88,8.22-5.95,2.82-11.88,5.67-17.87,8.39-1.42.64-3,2.28-4.5,1.12-1.7-1.31,0-3,.39-4.5,1.1-4.37,2.4-8.69,3.45-13.08.78-3.25,0-4.54-3.73-3.16-16.27,6-31.6,13.85-46.77,22.12-2.47,1.35-4.71,3.2-8.79,3.77,1.95-4,3.52-7.47,5.23-10.83a78.52,78.52,0,0,0,8.47-28.14c.68-6.84-2.2-12.93-4.77-18.92a75.38,75.38,0,0,0-16.94-24.08c-1.11-1.09-3.07-2.08-2.3-4s2.76-1.37,4.36-1.65c23.29-4.1,18.31-2.64,18.7-22,.25-12.28-6.72-21.71-13.87-30.86-1.88-2.41-3.92-4.7-6.34-7.57,6.67,0,12.64.2,18.6,0,14-.55,16.45-4.34,14.68-18.43-1.79-14.31-9-24.3-21.18-31.42-2.11-1.24-5.92-2.39-5-5.4.76-2.48,4.39-1.33,6.76-1.54,20.83-1.82,41.82-2.33,62-8.69,9.8-3.08,10.47-4.47,4.83-13-.63-1-2.16-1.68-1.33-3.08s2.56-1,4-1.06c11.1-.28,22.19-.36,33.3-1A233,233,0,0,0,700.92,207c2.5-1,4.21,0,5.84,1.9,3.17,3.75,6.93,7,10.26,10.57a11.53,11.53,0,0,1,1,1.34c2.17,3.56,5.26,6.25,8.42,8.88C728.59,232.49,732.23,234.44,731.61,238.78Z"
       transform="translate(-445.5 -121.26)"
       id="path46481" />
    <path
       class="cls-3"
       d="M739,494.71c1-.09,1.29,0,1.34-.13,4.7-8.85,11-5.38,17.5-2.52,4.62,2,9.5,3.5,14.21,6-12.28,1.46-24.35,4.63-36.73,2.73-6.44-1-8.61-5.26-6-12.09,2.81-7.25,6.06-14.37,11.26-20.4a468.47,468.47,0,0,1,35.24-37.15c1.73-1.61,6.19-3.32,3.14-6.5-2.75-2.87-5.47.08-7.81,2.24-9.06,8.38-18,17-27.38,24.92a68.5,68.5,0,0,0-21.4,31.06c-5.63,17-17.23,24.16-34.57,25a737.53,737.53,0,0,1-75.24.09c-5.14-.28-10.29-.34-15.43-.44-2.41,0-4.8-.05-7.37-2.31,8-2.54,15.68-3.33,23.3-4.29,14.13-1.77,27.25-7.68,41.28-9.79a43.11,43.11,0,0,1,8-.58c5.65.21,10.68-.65,15.68-3.94,7.06-4.64,18.22-1.39,23.44,5.91,1,1.42,1.41,3.42,3.89,4.17.53-3.85-1.14-6.48-3.37-8.81A22.67,22.67,0,0,0,674.89,484c-1.94,1.12-3.78,2.8-6.17,2.57-16.65-1.65-31.92,5-47.74,8.1a171.56,171.56,0,0,1-43.55,3c-7-.4-13.56-3.07-19.88-6.14-6.08-3-8-7.9-7.07-14.26,1.51-9.92,5.43-18.88,10.87-27.24,1.69-2.59,4.17-3.83,7-4.7a75.58,75.58,0,0,1,20-3.12c6-.18,11.24.47,14.81,6.46,2.61,4.37,7.13,3.89,11.62,2.58A150.75,150.75,0,0,0,647.51,437c25.43-14.57,53-20.29,82-21.27,16-.54,32.08-.63,48.11-1a27.65,27.65,0,0,0,15.41-5c12.71-8.64,27.33-13.16,41.72-18,3.82-1.29,7.28-2.73,9.91-5.82,4.13-4.85,9.68-5.11,15.3-4.32,4.09.58,5.11,3,2.63,6.58-3.14,4.51-8.07,6.27-12.83,8.12-8.8,3.43-17.61,6.89-26.59,9.8-15.81,5.12-28.09,15.08-38.94,27.21-9.59,10.72-20.27,20.41-29.09,31.88C748.23,474.11,743.38,484,739,494.71Z"
       transform="translate(-445.5 -121.26)"
       id="path46483" />
    <path
       class="cls-2"
       d="M731.61,238.78l-5.44-8c-2.93-3.44-6.53-6.26-9.15-10l0,.05c-4.11-5.71-10.31-9.7-13.42-16.24-.75-2.45-4.67-4.7-2.86-6.74,2-2.25,5.31.4,8,1.32,17.45,6.12,31.47,17.59,45.47,29.12C783,252,810.78,277,834.4,305.87c16.16,19.75,27.09,43.12,37.52,66.43,2.9,6.49,1.24,7.8-5.85,6.87a49.25,49.25,0,0,0-24.87,2.89c-8.39,3.34-16.84,6.52-24.67,11.2s-17.2,6.44-26.81,10.89c3.52-10.66,3.8-20.59,4-30.59.5-25.13-6.08-48.45-18.26-70.11-11.91-21.16-25.68-41.18-39.93-60.85A31.4,31.4,0,0,0,731.61,238.78Z"
       transform="translate(-445.5 -121.26)"
       id="path46485" />
    <path
       class="cls-2"
       d="M696.3,190.22c-.49-4.77-.69-9.42-1.5-14-1-5.41,1.58-8,6.32-9.46,10.34-3.15,19.47-1.33,27,6.68,2.67,2.85,5,4.49,9.47,3.22,7.08-2,13.28,1.23,18.44,6.06,3,2.79,5.54,6,8.33,9,4.61,5,9.24,9.91,17,12.14-8.21,3.46-13.78-.05-19-4.33-5.72-4.68-11.71-8.38-19.5-7.13a25.54,25.54,0,0,0-7.11,1.77c-4,1.95-6.82.76-9.86-2.06C711.64,179.06,711.59,179.12,696.3,190.22Z"
       transform="translate(-445.5 -121.26)"
       id="path46487" />
    <path
       class="cls-4"
       d="M681.31,190.3c0-6.32-.31-12.67.92-19,.7-3.61,2.78-4,5.68-4,3.08-.1,4.16,1.1,4.6,4.21a123.49,123.49,0,0,1-.11,32.47c-.64,5.19-5,4.07-8,4.53-3.55.53-3-2.52-3-4.66C681.26,199.31,681.31,194.8,681.31,190.3Z"
       transform="translate(-445.5 -121.26)"
       id="path46489" />
    <path
       class="cls-5"
       d="M703.64,204.61c4.6,5.31,10.27,9.73,13.42,16.24-4.5-2.85-7.55-7.21-11.19-10.94-1.46-1.5-2.68-3-4.95-2.92Z"
       transform="translate(-445.5 -121.26)"
       id="path46491" />
    <path
       class="cls-3"
       d="M683.25,229l.51-4.37c.84.36,1.61.43,1.86.83,2.7,4.34,6.37,7.93,9.33,12.11,4,5.68,10.08,9.29,17.39,10.68,13.32,2.55,22.15,10.19,24.89,23.92,1.82,9.15-1.09,17.49-5.1,25.41-6,11.86-15.81,20.31-26.37,28a8.91,8.91,0,0,1-8.21,1.4c-14.12-4.75-27.44-10.49-36.78-23.24-9.18-12.54-8.88-29.31,1.82-40.51,3.68-3.85,7.73-7.31,10.69-11.88,3.55-5.48,6.69-10.83,4.39-17.75a5.69,5.69,0,0,1,1.69-6.23C681.19,225.84,681.64,229.13,683.25,229Z"
       transform="translate(-445.5 -121.26)"
       id="path46493" />
    <path
       class="cls-6"
       d="M717,220.79a27.32,27.32,0,0,1,9.15,10A18.74,18.74,0,0,1,717,220.79Z"
       transform="translate(-445.5 -121.26)"
       id="path46495" />
    <path
       class="cls-7"
       d="M691.23,239.84c4.17,10.72,12.9,15.87,22,20.5,13.45,6.86,17,17.77,16.08,29.93-.72,9.91-11,23.26-21.16,27.64,2.43-2.23,5-4.34,7.27-6.72,6.06-6.3,10.95-13.23,11.65-22.38,1.05-13.63-5-22.83-17.34-28.17a40.29,40.29,0,0,1-17.37-14.32C691.14,244.59,689.48,242.8,691.23,239.84Z"
       transform="translate(-445.5 -121.26)"
       id="path46497" />
    <path
       class="cls-6"
       d="M667.25,300c-3.9-11.81-3.29-22.91,5-32.94,3.91-4.75,8.13-9.33,10.88-14.91,1.69-3.43,3.19-7,2.19-11.92,3.17,2.73,2.07,5.23,1.52,7.58-1.51,6.42-5.16,11.77-9.7,16.2-10.55,10.29-11.42,22.55-8.39,35.87Q668.05,300.91,667.25,300Z"
       transform="translate(-445.5 -121.26)"
       id="path46499" />
    <path
       class="cls-7"
       d="M692.67,261.7c3.44,7,9.35,12.23,13.2,18.9,6.49,11.27,5.14,24.25-3.53,34-.54-2.39,1.09-3.94,2-5.62,6-11.22,4.75-21.63-2.92-31.63C697.77,272.64,693.42,268.19,692.67,261.7Z"
       transform="translate(-445.5 -121.26)"
       id="path46501" />
    <path
       class="cls-8"
       d="M689.61,270.67c-5.34,14.88-9.46,29.54,6.5,42.61C682.59,307.08,678.07,290.49,689.61,270.67Z"
       transform="translate(-445.5 -121.26)"
       id="path46503" />
    <path
       class="cls-7"
       d="M716,287.52c-.85-6.37-3.91-11.52-8.45-16-6.56-6.44-12.86-13.11-16.44-21.92,6.67,11,17.63,18.28,24.28,29.23a11.35,11.35,0,0,1,1.83,7.06C717.78,287.17,717.23,287.6,716,287.52Z"
       transform="translate(-445.5 -121.26)"
       id="path46505" />
    <path
       class="cls-9"
       d="M673.54,286.31c-.22-4.5,1.5-8.51,3.76-12.14,4.31-6.93,9.16-13.54,11.95-21.35-.2,6.93-3.93,12.4-7.48,17.85-3.17,4.86-6,9.78-6.87,15.6A.9.9,0,0,1,673.54,286.31Z"
       transform="translate(-445.5 -121.26)"
       id="path46507" />
    <path
       class="cls-10"
       d="M667.25,300l1.44-.12c3.41,11.6,12,17.37,23.76,20.45C681.41,321.54,670.64,312.54,667.25,300Z"
       transform="translate(-445.5 -121.26)"
       id="path46509" />
    <path
       class="cls-11"
       d="M716,287.52l1.21-1.61c2,8.45-2.15,21.62-9.52,28.15C712.2,305.05,716.92,297.1,716,287.52Z"
       transform="translate(-445.5 -121.26)"
       id="path46511" />
    <path
       class="cls-5"
       d="M674.88,296.27c2,9.83,8.05,16.26,18.15,20.44-9.29-.24-17.19-8.44-19.5-19C673.07,296.4,673.66,296,674.88,296.27Z"
       transform="translate(-445.5 -121.26)"
       id="path46513" />
    <path
       class="cls-12"
       d="M674.88,296.27l-1.35,1.45a14.53,14.53,0,0,1,0-11.42l1.36,0Z"
       transform="translate(-445.5 -121.26)"
       id="path46515" />
  </g>
  <path
     id="shine"
     d="M 2.9000008,-0.479982 V 205.8969 C 2.9000008,435.56144 242.82,525.5 242.82,525.5 c 0,0 239.92,-89.93856 239.92,-319.6031 V -0.479982 Z"
     style="fill:url(#rg);stroke:#000000;stroke-width:2.41218" />
</svg>
