<?xml version="1.0" encoding="UTF-8"?>
<svg xmlns="http://www.w3.org/2000/svg" width="483" height="527.5" version="1.1" xmlns:cc="http://creativecommons.org/ns#" xmlns:dc="http://purl.org/dc/elements/1.1/" xmlns:i="http://ns.adobe.com/AdobeIllustrator/10.0/" xmlns:inkscape="http://www.inkscape.org/namespaces/inkscape" xmlns:rdf="http://www.w3.org/1999/02/22-rdf-syntax-ns#" xmlns:sodipodi="http://sodipodi.sourceforge.net/DTD/sodipodi-0.dtd" xmlns:svg="http://www.w3.org/2000/svg" xmlns:xlink="http://www.w3.org/1999/xlink" viewBox="0 0 483 527.5">
  <!-- Generator: Adobe Illustrator 30.2.1, SVG Export Plug-In . SVG Version: 2.1.1 Build 1)  -->
  <defs>
    <clipPath id="clippath">
      <path id="path8361" data-name="path836" d="M481.5,1.5v205.8c0,12.7-.8,25.4-2.3,38-.1.9-.2,1.9-.4,2.8s-.2,1.9-.4,2.8c-.5,3.4-1,6.7-1.6,10,0,.4-.2.9-.2,1.3-.2.8-.3,1.6-.5,2.4s-.3,1.8-.5,2.7l-.5,2.2-.2,1.2c-.2.7-.3,1.4-.5,2.1-.5,2.4-1.1,4.7-1.6,7l-.6,2.3-.5,2c-1,3.9-2.1,7.8-3.3,11.6-.3,1-.6,1.9-.9,2.9l-.6,1.9c-.2.6-.4,1.2-.6,1.9l-1.1,3.3c-.4,1.1-.7,2-1,3-.5,1.3-.9,2.5-1.4,3.8-.4,1-.7,2-1.1,3l-.2.5c-.4,1.1-.9,2.2-1.3,3.4s-.9,2.2-1.3,3.2c0,.1-.1.3-.2.4-.4,1-.8,2-1.2,3s-.8,1.8-1.1,2.6l-.7,1.5c-.5,1.1-1,2.1-1.4,3.1s-.9,2-1.4,2.9l-1,2.1c-.3.6-.6,1.2-.9,1.9-.6,1.3-1.3,2.6-2,4-1.7,3.3-3.4,6.6-5.2,9.8l-2,3.6v.2c-1.5,2.5-3,4.9-4.4,7.3-.7,1.2-1.5,2.4-2.2,3.5,0,.2-.2.3-.3.5-.5.9-1.1,1.8-1.7,2.7l-.7,1c-.7,1-1.3,2-2,3v.2c-.8,1-1.5,2-2.1,3l-.5.7c-1.5,2.2-3,4.3-4.5,6.5l-.3.4c-.8,1.1-1.5,2.1-2.3,3.2s-1.7,2.2-2.5,3.3c-1.5,2-3.1,4-4.6,6l-.8,1c-.7.9-1.5,1.8-2.2,2.8l-2.2,2.6-.6.7-2.4,2.8c-1.9,2.2-3.8,4.4-5.7,6.5-.8.8-1.5,1.7-2.3,2.5l-2.2,2.4c-2,2.1-4,4.2-5.9,6.2-1.8,1.9-3.7,3.8-5.5,5.6-.9.9-1.8,1.8-2.8,2.7s-1.8,1.8-2.8,2.7l-2.3,2.1c-.7.7-1.4,1.3-2,1.9-19.2,17.6-39.8,33.5-61.8,47.5-.9.5-1.7,1.1-2.6,1.6-4.3,2.7-8.4,5.3-12.5,7.6l-2.4,1.4-2.4,1.4-2.3,1.3-2.2,1.3c-8.3,4.7-15.9,8.6-22.4,11.8l-1.6.8c-10.6,5.2-18.1,8.2-21,9.3l-.4.2-.6.2h-.1c0,0,0,0,0,0h-.2c0,0-.2,0-.2,0l-1.1-.4-.5-.2c-.9-.3-2-.8-3.4-1.4l-.5-.2c-1.8-.8-3.9-1.7-6.3-2.8l-1.4-.6c-13.6-6.2-26.8-13.1-39.7-20.6-.8-.5-1.6-.9-2.4-1.4-15.5-9.1-30.4-19.2-44.8-30l-2.6-2c-1-.8-2-1.5-3-2.3l-2.8-2.2c-6.2-4.9-12.4-10.2-18.6-15.7l-1.5-1.4c-1.5-1.4-3.1-2.8-4.6-4.2l-1.7-1.6-1.8-1.7-2-1.9c-1.1-1.1-2.2-2.2-3.3-3.3-.8-.8-1.7-1.7-2.5-2.5l-.2-.3c-.8-.8-1.7-1.7-2.5-2.5-.7-.7-1.3-1.4-2-2l-2-2.1v-.2c-.1,0-2.2-2.2-2.2-2.2-2.2-2.4-4.5-4.9-6.7-7.4-.7-.8-1.4-1.5-2-2.3-.6-.7-1.1-1.3-1.7-1.9l-2-2.4c-2.8-3.4-5.6-6.9-8.4-10.5-.8-1-1.5-1.9-2.2-2.9-1.9-2.5-3.7-5-5.6-7.5l-1.7-2.4c-.1-.2-.2-.3-.4-.5-.6-.9-1.2-1.7-1.8-2.5-1-1.4-1.9-2.8-2.8-4.2-.7-1.1-1.5-2.2-2.2-3.3v-.2c-.1,0-2.4-3.5-2.4-3.5,0-.1-.1-.2-.2-.4-.7-1.1-1.4-2.3-2.1-3.4s-1.5-2.5-2.2-3.7-1.4-2.4-2.1-3.7c-3.1-5.3-6-10.8-8.8-16.5-.4-.7-.7-1.4-1-2.1-.2-.4-.4-.9-.6-1.4-.4-.9-.8-1.8-1.2-2.6-.4-.8-.8-1.6-1.1-2.5l-.2-.5c-.3-.6-.5-1.2-.8-1.8l-.3-.6c-.3-.6-.5-1.2-.8-1.8-1-2.2-1.9-4.4-2.8-6.6-.4-1-.8-2-1.2-3.1-.1-.3-.2-.5-.3-.8-.4-1-.8-2-1.2-3s-.7-1.8-1-2.7l-.2-.6c-.2-.5-.3-.9-.5-1.4-.7-1.8-1.3-3.6-1.9-5.4-.2-.6-.4-1.2-.6-1.8-.3-.8-.5-1.5-.8-2.3-.1-.4-.3-.8-.4-1.2-.3-.8-.5-1.6-.8-2.4-.3-1-.6-2.1-.9-3.1-.2-.6-.4-1.3-.6-2-.4-1.3-.7-2.6-1.1-3.9-.2-.7-.4-1.4-.5-2-.1-.5-.3-1-.4-1.5-.3-1.2-.6-2.5-.9-3.7-.2-.7-.4-1.4-.5-2.1,0-.3-.1-.6-.2-.9-.4-1.5-.7-3.1-1.1-4.7-.3-1.2-.5-2.3-.7-3.5-.1-.7-.3-1.4-.4-2.1s-.3-1.6-.5-2.5c0-.2,0-.3-.1-.5-.1-.8-.3-1.6-.5-2.5s-.3-1.8-.5-2.8-.3-1.8-.5-2.7c-.6-3.7-1.1-7.4-1.6-11.2-1.6-12.5-2.4-25.2-2.4-37.8V1.5h480Z" style="fill: none;"/>
    </clipPath>
    <radialGradient id="radial-gradient" cx="393.7" cy="242" fx="393.7" fy="242" r="405" gradientTransform="translate(-139.9 370.1) scale(.8 -.8)" gradientUnits="userSpaceOnUse">
      <stop offset="0" stop-color="#fff" stop-opacity=".3"/>
      <stop offset=".2" stop-color="#fff" stop-opacity=".2"/>
      <stop offset=".6" stop-color="#666" stop-opacity=".1"/>
      <stop offset="1" stop-color="#000" stop-opacity=".1"/>
    </radialGradient>
  </defs>
  <g id="svg471" sodipodi:docname="House Darklyn HotD.svg">
    <g id="Layer_2">
      <path id="path836" d="M481.5,1.5v205.8c0,12.7-.8,25.4-2.3,38-.1.9-.2,1.9-.4,2.8s-.2,1.9-.4,2.8c-.5,3.4-1,6.7-1.6,10,0,.4-.2.9-.2,1.3-.2.8-.3,1.6-.5,2.4s-.3,1.8-.5,2.7l-.5,2.2-.2,1.2c-.2.7-.3,1.4-.5,2.1-.5,2.4-1.1,4.7-1.6,7l-.6,2.3-.5,2c-1,3.9-2.1,7.8-3.3,11.6-.3,1-.6,1.9-.9,2.9l-.6,1.9c-.2.6-.4,1.2-.6,1.9l-1.1,3.3c-.4,1.1-.7,2-1,3-.5,1.3-.9,2.5-1.4,3.8-.4,1-.7,2-1.1,3l-.2.5c-.4,1.1-.9,2.2-1.3,3.4s-.9,2.2-1.3,3.2c0,.1-.1.3-.2.4-.4,1-.8,2-1.2,3s-.8,1.8-1.1,2.6l-.7,1.5c-.5,1.1-1,2.1-1.4,3.1s-.9,2-1.4,2.9l-1,2.1c-.3.6-.6,1.2-.9,1.9-.6,1.3-1.3,2.6-2,4-1.7,3.3-3.4,6.6-5.2,9.8l-2,3.6v.2c-1.5,2.5-3,4.9-4.4,7.3-.7,1.2-1.5,2.4-2.2,3.5,0,.2-.2.3-.3.5-.5.9-1.1,1.8-1.7,2.7l-.7,1c-.7,1-1.3,2-2,3v.2c-.8,1-1.5,2-2.1,3l-.5.7c-1.5,2.2-3,4.3-4.5,6.5l-.3.4c-.8,1.1-1.5,2.1-2.3,3.2s-1.7,2.2-2.5,3.3c-1.5,2-3.1,4-4.6,6l-.8,1c-.7.9-1.5,1.8-2.2,2.8l-2.2,2.6-.6.7-2.4,2.8c-1.9,2.2-3.8,4.4-5.7,6.5-.8.8-1.5,1.7-2.3,2.5l-2.2,2.4c-2,2.1-4,4.2-5.9,6.2-1.8,1.9-3.7,3.8-5.5,5.6-.9.9-1.8,1.8-2.8,2.7s-1.8,1.8-2.8,2.7l-2.3,2.1c-.7.7-1.4,1.3-2,1.9-19.2,17.6-39.8,33.5-61.8,47.5-.9.5-1.7,1.1-2.6,1.6-4.3,2.7-8.4,5.3-12.5,7.6l-2.4,1.4-2.4,1.4-2.3,1.3-2.2,1.3c-8.3,4.7-15.9,8.6-22.4,11.8l-1.6.8c-10.6,5.2-18.1,8.2-21,9.3l-.4.2-.6.2h-.1c0,0,0,0,0,0h-.2c0,0-.2,0-.2,0l-1.1-.4-.5-.2c-.9-.3-2-.8-3.4-1.4l-.5-.2c-1.8-.8-3.9-1.7-6.3-2.8l-1.4-.6c-13.6-6.2-26.8-13.1-39.7-20.6-.8-.5-1.6-.9-2.4-1.4-15.5-9.1-30.4-19.2-44.8-30l-2.6-2c-1-.8-2-1.5-3-2.3l-2.8-2.2c-6.2-4.9-12.4-10.2-18.6-15.7l-1.5-1.4c-1.5-1.4-3.1-2.8-4.6-4.2l-1.7-1.6-1.8-1.7-2-1.9c-1.1-1.1-2.2-2.2-3.3-3.3-.8-.8-1.7-1.7-2.5-2.5l-.2-.3c-.8-.8-1.7-1.7-2.5-2.5-.7-.7-1.3-1.4-2-2l-2-2.1v-.2c-.1,0-2.2-2.2-2.2-2.2-2.2-2.4-4.5-4.9-6.7-7.4-.7-.8-1.4-1.5-2-2.3-.6-.7-1.1-1.3-1.7-1.9l-2-2.4c-2.8-3.4-5.6-6.9-8.4-10.5-.8-1-1.5-1.9-2.2-2.9-1.9-2.5-3.7-5-5.6-7.5l-1.7-2.4c-.1-.2-.2-.3-.4-.5-.6-.9-1.2-1.7-1.8-2.5-1-1.4-1.9-2.8-2.8-4.2-.7-1.1-1.5-2.2-2.2-3.3v-.2c-.1,0-2.4-3.5-2.4-3.5,0-.1-.1-.2-.2-.4-.7-1.1-1.4-2.3-2.1-3.4s-1.5-2.5-2.2-3.7-1.4-2.4-2.1-3.7c-3.1-5.3-6-10.8-8.8-16.5-.4-.7-.7-1.4-1-2.1-.2-.4-.4-.9-.6-1.4-.4-.9-.8-1.8-1.2-2.6-.4-.8-.8-1.6-1.1-2.5l-.2-.5c-.3-.6-.5-1.2-.8-1.8l-.3-.6c-.3-.6-.5-1.2-.8-1.8-1-2.2-1.9-4.4-2.8-6.6-.4-1-.8-2-1.2-3.1-.1-.3-.2-.5-.3-.8-.4-1-.8-2-1.2-3s-.7-1.8-1-2.7l-.2-.6c-.2-.5-.3-.9-.5-1.4-.7-1.8-1.3-3.6-1.9-5.4-.2-.6-.4-1.2-.6-1.8-.3-.8-.5-1.5-.8-2.3-.1-.4-.3-.8-.4-1.2-.3-.8-.5-1.6-.8-2.4-.3-1-.6-2.1-.9-3.1-.2-.6-.4-1.3-.6-2-.4-1.3-.7-2.6-1.1-3.9-.2-.7-.4-1.4-.5-2-.1-.5-.3-1-.4-1.5-.3-1.2-.6-2.5-.9-3.7-.2-.7-.4-1.4-.5-2.1,0-.3-.1-.6-.2-.9-.4-1.5-.7-3.1-1.1-4.7-.3-1.2-.5-2.3-.7-3.5-.1-.7-.3-1.4-.4-2.1s-.3-1.6-.5-2.5c0-.2,0-.3-.1-.5-.1-.8-.3-1.6-.5-2.5s-.3-1.8-.5-2.8-.3-1.8-.5-2.7c-.6-3.7-1.1-7.4-1.6-11.2-1.6-12.5-2.4-25.2-2.4-37.8V1.5h480Z" style="fill: #daa520;"/>
    </g>
    <g id="Layer_21" data-name="Layer_2">
      <path d="M241.7,1.5v524.5h-.3c0,0-.2,0-.2,0l-1.1-.4-.5-.2c-.9-.3-2-.8-3.4-1.4l-.5-.2c-1.8-.8-3.9-1.7-6.3-2.8l-1.4-.6c-13.6-6.2-26.9-13.1-39.7-20.6-.8-.5-1.6-.9-2.4-1.4-15.5-9.1-30.4-19.2-44.8-30l-2.6-2c-1-.8-2-1.5-3-2.3l-2.8-2.2c-6.2-4.9-12.4-10.2-18.6-15.7l-1.5-1.4c-1.5-1.4-3.1-2.8-4.6-4.2l-1.7-1.6-1.8-1.7-2-1.9c-1.1-1.1-2.2-2.2-3.3-3.3-.8-.8-1.7-1.7-2.5-2.5l-.2-.3c-.8-.8-1.7-1.7-2.5-2.5-.7-.7-1.3-1.4-2-2l-2-2.1h-.1c0-.1-2.1-2.4-2.1-2.4-2.2-2.4-4.5-4.9-6.7-7.4-.7-.8-1.4-1.5-2-2.3-.6-.7-1.1-1.3-1.7-1.9l-2-2.4c-2.8-3.4-5.6-6.9-8.4-10.5-.8-1-1.5-1.9-2.2-2.9-1.9-2.5-3.7-5-5.6-7.5l-1.7-2.4c-.1-.2-.2-.3-.4-.5-.6-.8-1.2-1.7-1.8-2.5-1-1.4-1.9-2.8-2.8-4.2-.7-1.1-1.5-2.2-2.2-3.3l-.2-.2-2.2-3.5c0-.1-.1-.2-.2-.4-.7-1.1-1.4-2.3-2.1-3.4s-1.5-2.5-2.2-3.7c-.7-1.2-1.4-2.4-2.1-3.7-3.1-5.3-6-10.8-8.8-16.5-.3-.7-.7-1.4-1-2.1-.2-.4-.4-.9-.6-1.3-.4-.9-.8-1.8-1.2-2.6-.4-.8-.8-1.6-1.2-2.5l-.2-.5c-.3-.6-.5-1.2-.8-1.8l-.3-.6c-.3-.6-.5-1.2-.8-1.8-1-2.2-1.9-4.4-2.8-6.6-.4-1-.8-2-1.2-3.1-.1-.3-.2-.5-.3-.8-.4-1-.8-2-1.2-3-.4-1-.7-1.8-1-2.7l-.2-.7c-.2-.5-.3-.9-.5-1.4-.7-1.8-1.3-3.6-1.9-5.4-.2-.6-.4-1.2-.6-1.8-.3-.8-.5-1.5-.8-2.3-.1-.4-.3-.8-.4-1.2-.3-.8-.5-1.6-.8-2.4-.3-1-.6-2.1-.9-3.1-.2-.7-.4-1.3-.6-2-.4-1.3-.7-2.6-1.1-3.9-.2-.7-.4-1.3-.5-2-.1-.5-.3-1-.4-1.5-.3-1.2-.6-2.5-.9-3.7-.2-.7-.3-1.4-.5-2.1,0-.3-.1-.6-.2-.8-.4-1.5-.7-3.1-1.1-4.7-.3-1.2-.5-2.3-.7-3.5-.1-.7-.3-1.4-.4-2.1-.1-.7-.3-1.6-.5-2.5,0-.2,0-.3-.1-.5-.1-.8-.3-1.6-.5-2.5-.1-.8-.3-1.8-.5-2.8s-.3-1.8-.5-2.7c-.6-3.7-1.1-7.4-1.6-11.2-1.6-12.5-2.4-25.2-2.4-37.8V1.5h240.2Z" style="fill: #ab0000;"/>
    </g>
    <g id="escutcheon">
      <path id="shield" d="M141.7,36.7v31c0,34.6,36,48.1,36,48.1,0,0,36-13.5,36-48.1v-31h-72Z" style="fill: #fff;"/>
    </g>
    <g id="escutcheon-4">
      <path id="shield1" data-name="shield" d="M141.7,148v31c0,34.6,36,48.1,36,48.1,0,0,36-13.5,36-48.1v-31h-72Z" style="fill: #fff;"/>
    </g>
    <g id="escutcheon-0">
      <path id="shield2" data-name="shield" d="M141.7,259.4v31c0,34.6,36,48.1,36,48.1,0,0,36-13.5,36-48.1v-31h-72Z" style="fill: #fff;"/>
    </g>
    <g id="escutcheon-52">
      <path id="shield3" data-name="shield" d="M37.1,36.7v31c0,34.6,36,48.1,36,48.1,0,0,36-13.5,36-48.1v-31H37.1Z" style="fill: #fff;"/>
    </g>
    <g id="escutcheon-4-3">
      <path id="shield4" data-name="shield" d="M37.1,148v31c0,34.6,36,48.1,36,48.1,0,0,36-13.5,36-48.1v-31H37.1Z" style="fill: #fff;"/>
    </g>
    <g id="escutcheon-0-8">
      <path id="shield5" data-name="shield" d="M37.1,259.4v31c0,34.6,36,48.1,36,48.1,0,0,36-13.5,36-48.1v-31H37.1Z" style="fill: #fff;"/>
    </g>
    <g id="escutcheon-5">
      <path id="shield6" data-name="shield" d="M141.7,370.7v31c0,34.6,36,48.1,36,48.1,0,0,36-13.5,36-48.1v-31h-72Z" style="fill: #fff;"/>
    </g>
    <g style="clip-path: url(#clippath);">
      <path d="M241.5,329.3l39.7,65.6,39.7-65.6-39.7-65.6-39.7,65.6Z"/>
      <path d="M241.5,460.4l39.7,65.6,39.7-65.6-39.7-65.6-39.7,65.6Z"/>
      <path d="M241.5,198.2l39.7,65.6,39.7-65.6-39.7-65.6-39.7,65.6Z"/>
      <path d="M241.5,67.1l39.7,65.6,39.7-65.6L281.2,1.5l-39.7,65.6Z"/>
      <path d="M321,329.3l39.7,65.6,39.7-65.6-39.7-65.6-39.7,65.6Z"/>
      <path d="M321,460.4l39.7,65.6,39.7-65.6-39.7-65.6-39.7,65.6Z"/>
      <path d="M321,198.2l39.7,65.6,39.7-65.6-39.7-65.6-39.7,65.6Z"/>
      <path d="M321,67.1l39.7,65.6,39.7-65.6L360.7,1.5l-39.7,65.6Z"/>
      <path d="M400.4,329.3l39.7,65.6,39.7-65.6-39.7-65.6-39.7,65.6Z"/>
      <path d="M400.4,460.4l39.7,65.6,39.7-65.6-39.7-65.6-39.7,65.6Z"/>
      <path d="M400.4,198.2l39.7,65.6,39.7-65.6-39.7-65.6-39.7,65.6Z"/>
      <path d="M400.4,67.1l39.7,65.6,39.7-65.6L440.2,1.5l-39.7,65.6Z"/>
    </g>
    <sodipodi:namedview id="namedview473" bordercolor="#000000" borderopacity="0.25" inkscape:current-layer="svg471" inkscape:cx="572.0722" inkscape:cy="321.16334" inkscape:deskcolor="#d1d1d1" inkscape:pagecheckerboard="0" inkscape:pageopacity="0.0" inkscape:showpageshadow="2" inkscape:window-height="1017" inkscape:window-maximized="1" inkscape:window-width="1920" inkscape:window-x="-8" inkscape:window-y="-8" inkscape:zoom="0.44836998" pagecolor="#ffffff" showgrid="false"/>
    <g id="Layer_22" data-name="Layer_2">
      <path id="path8362" data-name="path836" d="M481.5,1.5v205.8c0,12.7-.8,25.4-2.3,38-.1.9-.2,1.9-.4,2.8s-.2,1.9-.4,2.8c-.5,3.4-1,6.7-1.6,10,0,.4-.2.9-.2,1.3-.2.8-.3,1.6-.5,2.4s-.3,1.8-.5,2.7l-.5,2.2-.2,1.2c-.2.7-.3,1.4-.5,2.1-.5,2.4-1.1,4.7-1.6,7l-.6,2.3-.5,2c-1,3.9-2.1,7.8-3.3,11.6-.3,1-.6,1.9-.9,2.9l-.6,1.9c-.2.6-.4,1.2-.6,1.9l-1.1,3.3c-.4,1.1-.7,2-1,3-.5,1.3-.9,2.5-1.4,3.8-.4,1-.7,2-1.1,3l-.2.5c-.4,1.1-.9,2.2-1.3,3.4s-.9,2.2-1.3,3.2c0,.1-.1.3-.2.4-.4,1-.8,2-1.2,3s-.8,1.8-1.1,2.6l-.7,1.5c-.5,1.1-1,2.1-1.4,3.1s-.9,2-1.4,2.9l-1,2.1c-.3.6-.6,1.2-.9,1.9-.6,1.3-1.3,2.6-2,4-1.7,3.3-3.4,6.6-5.2,9.8l-2,3.6v.2c-1.5,2.5-3,4.9-4.4,7.3-.7,1.2-1.5,2.4-2.2,3.5,0,.2-.2.3-.3.5-.5.9-1.1,1.8-1.7,2.7l-.7,1c-.7,1-1.3,2-2,3v.2c-.8,1-1.5,2-2.1,3l-.5.7c-1.5,2.2-3,4.3-4.5,6.5l-.3.4c-.8,1.1-1.5,2.1-2.3,3.2s-1.7,2.2-2.5,3.3c-1.5,2-3.1,4-4.6,6l-.8,1c-.7.9-1.5,1.8-2.2,2.8l-2.2,2.6-.6.7-2.4,2.8c-1.9,2.2-3.8,4.4-5.7,6.5-.8.8-1.5,1.7-2.3,2.5l-2.2,2.4c-2,2.1-4,4.2-5.9,6.2-1.8,1.9-3.7,3.8-5.5,5.6-.9.9-1.8,1.8-2.8,2.7s-1.8,1.8-2.8,2.7l-2.3,2.1c-.7.7-1.4,1.3-2,1.9-19.2,17.6-39.8,33.5-61.8,47.5-.9.5-1.7,1.1-2.6,1.6-4.3,2.7-8.4,5.3-12.5,7.6l-2.4,1.4-2.4,1.4-2.3,1.3-2.2,1.3c-8.3,4.7-15.9,8.6-22.4,11.8l-1.6.8c-10.6,5.2-18.1,8.2-21,9.3l-.4.2-.6.2h-.1c0,0,0,0,0,0h-.2c0,0-.2,0-.2,0l-1.1-.4-.5-.2c-.9-.3-2-.8-3.4-1.4l-.5-.2c-1.8-.8-3.9-1.7-6.3-2.8l-1.4-.6c-13.6-6.2-26.8-13.1-39.7-20.6-.8-.5-1.6-.9-2.4-1.4-15.5-9.1-30.4-19.2-44.8-30l-2.6-2c-1-.8-2-1.5-3-2.3l-2.8-2.2c-6.2-4.9-12.4-10.2-18.6-15.7l-1.5-1.4c-1.5-1.4-3.1-2.8-4.6-4.2l-1.7-1.6-1.8-1.7-2-1.9c-1.1-1.1-2.2-2.2-3.3-3.3-.8-.8-1.7-1.7-2.5-2.5l-.2-.3c-.8-.8-1.7-1.7-2.5-2.5-.7-.7-1.3-1.4-2-2l-2-2.1v-.2c-.1,0-2.2-2.2-2.2-2.2-2.2-2.4-4.5-4.9-6.7-7.4-.7-.8-1.4-1.5-2-2.3-.6-.7-1.1-1.3-1.7-1.9l-2-2.4c-2.8-3.4-5.6-6.9-8.4-10.5-.8-1-1.5-1.9-2.2-2.9-1.9-2.5-3.7-5-5.6-7.5l-1.7-2.4c-.1-.2-.2-.3-.4-.5-.6-.9-1.2-1.7-1.8-2.5-1-1.4-1.9-2.8-2.8-4.2-.7-1.1-1.5-2.2-2.2-3.3v-.2c-.1,0-2.4-3.5-2.4-3.5,0-.1-.1-.2-.2-.4-.7-1.1-1.4-2.3-2.1-3.4s-1.5-2.5-2.2-3.7-1.4-2.4-2.1-3.7c-3.1-5.3-6-10.8-8.8-16.5-.4-.7-.7-1.4-1-2.1-.2-.4-.4-.9-.6-1.4-.4-.9-.8-1.8-1.2-2.6-.4-.8-.8-1.6-1.1-2.5l-.2-.5c-.3-.6-.5-1.2-.8-1.8l-.3-.6c-.3-.6-.5-1.2-.8-1.8-1-2.2-1.9-4.4-2.8-6.6-.4-1-.8-2-1.2-3.1-.1-.3-.2-.5-.3-.8-.4-1-.8-2-1.2-3s-.7-1.8-1-2.7l-.2-.6c-.2-.5-.3-.9-.5-1.4-.7-1.8-1.3-3.6-1.9-5.4-.2-.6-.4-1.2-.6-1.8-.3-.8-.5-1.5-.8-2.3-.1-.4-.3-.8-.4-1.2-.3-.8-.5-1.6-.8-2.4-.3-1-.6-2.1-.9-3.1-.2-.6-.4-1.3-.6-2-.4-1.3-.7-2.6-1.1-3.9-.2-.7-.4-1.4-.5-2-.1-.5-.3-1-.4-1.5-.3-1.2-.6-2.5-.9-3.7-.2-.7-.4-1.4-.5-2.1,0-.3-.1-.6-.2-.9-.4-1.5-.7-3.1-1.1-4.7-.3-1.2-.5-2.3-.7-3.5-.1-.7-.3-1.4-.4-2.1s-.3-1.6-.5-2.5c0-.2,0-.3-.1-.5-.1-.8-.3-1.6-.5-2.5s-.3-1.8-.5-2.8-.3-1.8-.5-2.7c-.6-3.7-1.1-7.4-1.6-11.2-1.6-12.5-2.4-25.2-2.4-37.8V1.5h480Z" style="fill: none; stroke: #000; stroke-width: 3px;"/>
    </g>
    <path id="shine" d="M1.6.7v206.4c0,229.7,239.9,319.6,239.9,319.6,0,0,239.9-89.9,239.9-319.6V.7H1.6Z" style="fill: url(#radial-gradient); stroke: #000; stroke-width: 2.4px;"/>
  </g>

</svg>