<svg xmlns="http://www.w3.org/2000/svg" viewBox="0 0 512 512" role="img" aria-labelledby="brand-title brand-description">
  <title id="brand-title">Map of Ice and Fire</title>
  <desc id="brand-description">An antique-gold map medallion on a deep navy field.</desc>
  <defs>
    <radialGradient id="night" cx="50%" cy="42%" r="72%">
      <stop offset="0" stop-color="#172a34" />
      <stop offset="0.62" stop-color="#0b1820" />
      <stop offset="1" stop-color="#050d12" />
    </radialGradient>
    <linearGradient id="gold" x1="0" y1="0" x2="1" y2="1">
      <stop offset="0" stop-color="#f0d493" />
      <stop offset="0.46" stop-color="#c99e5d" />
      <stop offset="1" stop-color="#8d6334" />
    </linearGradient>
    <filter id="soft-shadow" x="-20%" y="-20%" width="140%" height="140%">
      <feDropShadow dx="0" dy="5" stdDeviation="8" flood-color="#00070a" flood-opacity="0.72" />
    </filter>
  </defs>

  <rect width="512" height="512" rx="54" fill="url(#night)" />
  <circle cx="256" cy="256" r="220" fill="none" stroke="#d8b371" stroke-width="5" />
  <circle cx="256" cy="256" r="207" fill="none" stroke="#9b7443" stroke-width="2" opacity="0.88" />

  <g fill="#d8b371" aria-hidden="true">
    <path d="M256 37 263 50 276 57 263 64 256 77 249 64 236 57 249 50Z" />
    <path d="M256 435 263 448 276 455 263 462 256 475 249 462 236 455 249 448Z" />
    <path d="M37 256 50 249 57 236 64 249 77 256 64 263 57 276 50 263Z" />
    <path d="M435 256 448 249 455 236 462 249 475 256 462 263 455 276 448 263Z" />
  </g>

  <g filter="url(#soft-shadow)" fill="url(#gold)" stroke="#f2daa0" stroke-width="2.3" stroke-linejoin="round">
    <path d="M177 104c-18 12-33 31-35 50-2 14 8 25 5 39-3 16-18 26-17 44 1 17 18 25 20 40 3 18-14 30-10 48 3 14 17 19 20 32 4 16-7 29-3 44 4 14 18 18 29 10 13-10 11-29 20-41 8-11 24-14 27-28 4-17-10-29-8-46 1-15 16-25 15-41-1-18-19-26-21-43-2-14 9-26 4-41-4-13-17-17-21-29-4-13 5-25 0-36-5-11-18-11-27-2Z" />
    <path d="M280 148c20-16 47-25 71-19 16 4 24 19 39 24 16 5 33-3 48 5 12 6 19 20 15 33-5 16-24 20-34 32-9 11-8 28-21 36-13 9-30 2-44 8-14 6-20 23-35 27-17 4-29-11-45-9-13 2-22 16-36 16-13 0-24-11-24-24 0-15 14-25 16-39 2-16-10-29-5-44 6-18 26-29 45-46Z" />
    <path d="M292 326c15-10 35-8 45 6 8 11 3 24-7 32-9 7-22 10-27 21-5 10-1 24-11 30-10 7-23 0-25-12-2-13 8-23 9-35 1-15-8-32 6-42Z" />
    <path d="M111 300c9-7 22-5 28 4 6 9 1 21-8 26-10 6-23 3-28-7-4-8 1-17 8-23Z" />
  </g>

  <g fill="none" stroke="#08151c" stroke-linecap="round" opacity="0.58" aria-hidden="true">
    <path d="M169 151c15 12 21 27 17 45-4 17-16 30-11 49 5 18 23 28 21 47" stroke-width="6" />
    <path d="M311 171c25 9 42 7 61 1 17-6 35 0 47 12" stroke-width="7" />
    <path d="M290 232c22 8 47 7 67-4" stroke-width="5" />
  </g>

  <path d="M195 338C237 315 279 318 322 292" fill="none" stroke="#f6dfaa" stroke-width="4" stroke-linecap="round" stroke-dasharray="2 13" opacity="0.98" />
  <circle cx="195" cy="338" r="7" fill="#07141b" stroke="#f2d796" stroke-width="4" />
  <circle cx="322" cy="292" r="7" fill="#07141b" stroke="#f2d796" stroke-width="4" />
</svg>
